<?xml version="1.0" encoding="UTF-8" standalone="no"?> <!-- Created with Vectornator for iOS (http://vectornator.io/) --><!DOCTYPE svg PUBLIC "-//W3C//DTD SVG 1.1//EN" "http://www.w3.org/Graphics/SVG/1.1/DTD/svg11.dtd">
<svg style="fill-rule:evenodd;clip-rule:evenodd;stroke-linecap:round;stroke-linejoin:round;" xmlns:vectornator="http://vectornator.io" xmlns:xlink="http://www.w3.org/1999/xlink" xmlns="http://www.w3.org/2000/svg" xml:space="preserve" version="1.1" viewBox="0 0 120 120">
<metadata>
<vectornator:setting key="DimensionsVisible" value="1"/>
<vectornator:setting key="SnapToGrid" value="0"/>
<vectornator:setting key="SnapToPoints" value="0"/>
<vectornator:setting key="GuidesVisible" value="1"/>
<vectornator:setting key="RulersVisible" value="1"/>
<vectornator:setting key="SnapToEdges" value="0"/>
<vectornator:setting key="DisplayWhiteBackground" value="1"/>
<vectornator:setting key="SnapToGuides" value="1"/>
<vectornator:setting key="GridSpacing" value="36"/>
<vectornator:setting key="Units" value="Pixels"/>
<vectornator:setting key="DynamicGuides" value="0"/>
<vectornator:setting key="New" value="1"/>
</metadata>
<defs/>
<g id="レイヤー 1" vectornator:layerName="レイヤー 1">
<path stroke="#000000" stroke-width="1" d="M122.535+50.1295C122.535+49.2226+122.092+49.6777+121.789+49.0105C121.336+48.0141+121.803+46.9466+121.192+45.8774" fill="none" stroke-linecap="round" opacity="1" stroke-linejoin="round"/>
<path stroke="#000000" stroke-width="1" d="M44.3036+21.452C44.3036+25.855+43.9024+30.2484+43.9024+34.6926" fill="none" stroke-linecap="round" opacity="1" stroke-linejoin="round"/>
<path stroke="#000000" stroke-width="1" d="M45.1863+21.6928C53.3082+31.4391+69.7739+28.8406+79.4708+24.2773" fill="none" stroke-linecap="round" opacity="1" stroke-linejoin="round"/>
<path stroke="#000000" stroke-width="1" d="M44.8836+21.0748C55.5491+16.3346+71.5058+15.5126+79.9328+23.9396" fill="none" stroke-linecap="round" opacity="1" stroke-linejoin="round"/>
<path stroke="#000000" stroke-width="1" d="M79.7727+24.4211C79.7727+28.5159+78.7911+32.7163+78.7911+36.808" fill="none" stroke-linecap="round" opacity="1" stroke-linejoin="round"/>
<path stroke="#000000" stroke-width="1" d="M44.2039+34.4061C44.9107+35.8198+45.7879+36.4191+48.1672+37.339C54.4482+39.7673+64.2595+40.2839+71.303+39.6296C74.7918+39.3055+76.8911+37.5246+78.2306+36.5678" fill="none" stroke-linecap="round" opacity="1" stroke-linejoin="round"/>
<path stroke="#000000" stroke-width="1" d="M121.599+69.3279C126.467+69.4618+131.32+69.9433+136.189+69.8094" fill="none" stroke-linecap="round" opacity="1" stroke-linejoin="round"/>
<path stroke="#000000" stroke-width="1" d="M42.9228+33.3653C41.6016+36.5741+37.8784+38.5122+36.3868+41.4953" fill="none" stroke-linecap="round" opacity="1" stroke-linejoin="round"/>
<path stroke="#000000" stroke-width="1" d="M36.3868+41.9757C50.01+41.9757+65.8316+40.9461+79.0648+44.2975" fill="none" stroke-linecap="round" opacity="1" stroke-linejoin="round"/>
<path stroke="#000000" stroke-width="1" d="M81.7024+36.0874C81.4338+37.3412+81.0295+38.9509+80.3123+40.3308C79.7284+41.4541+79.8659+43.1008+78.7911+44.494" fill="none" stroke-linecap="round" opacity="1" stroke-linejoin="round"/>
<path stroke="#000000" stroke-width="1" d="M48.5223+48.7662C40.0388+46.2211+41.1661+69.6264+45.672+62.8675" fill="none" stroke-linecap="round" opacity="1" stroke-linejoin="round"/>
<path stroke="#000000" stroke-width="7.27" d="M44.5469+50.9414C44.2613+52.9405+41.8692+55.5549+40.8716+57.467C37.8191+63.3174+43.9082+55.49+44.6219+53.4916C45.0383+52.3257+36.9025+62.2445+37.4212+62.4174C39.0679+62.9663+43.6169+53.1648+44.1719+51.8415C45.1914+49.4102+32.2627+67.0052+38.6213+59.3421C50.3977+45.1502+37.5713+54.924+37.5713+64.5176" fill="none" stroke-linecap="round" opacity="1" stroke-linejoin="round"/>
<path stroke="#000000" stroke-width="7.27" d="M59.0232+60.0172C31.4712+60.0172+76.3737+86.3234+64.0487+58.5921C61.8757+53.7028+39.9313+75.1481+42.2967+76.6687C45.6904+78.8504+59.0607+61.1704+56.398+57.842C50.2101+50.1071+30.3804+72.5155+35.021+75.9187C45.7442+83.7823+52.792+55.4042+48.9723+54.2417C41.824+52.0661+29.3454+71.168+32.5458+77.5688C34.6024+81.6821+47.1057+56.1094+44.5469+54.6167C40.1071+52.0268+28.2996+71.3157+29.4705+72.0183C29.9777+72.3226+40.2072+54.2263+38.1713+57.1669C24.8159+76.458+34.1781+48.5501+38.0963+46.591C47.1076+42.0853+66.9516+54.2498+67.499+53.8666C67.6272+53.7769+72.2593+48.7285+71.6244+51.6914C71.221+53.574+50.8317+73.2737+44.8469+65.7927C41.6084+61.7446+26.8512+76.0387+31.5707+73.8935C37.9676+70.9858+30.4965+87.9785+31.1957+94.9704C31.4096+97.1093+43.4182+80.9524+38.6964+91.9701C35.3792+99.7101+48.5477+85.9037+48.8223+87.6197C50.2554+96.5765+56.226+82.8493+63.8987+91.0701C65.3634+92.6394+80.3257+71.6474+74.4746+84.3944C68.4705+97.4748+83.3749+65.595+80.4002+77.4938" fill="none" stroke-linecap="round" opacity="1" stroke-linejoin="round"/>
<path stroke="#000000" stroke-width="7.27" d="M78.975+81.9942C86.495+66.9543+76.5972+57.9558+81.0002+76.6687C81.9989+80.9133+72.5929+65.0431+70.4993+68.868C53.6874+99.582+74.2927+49.4984+63.5986+83.7194C62.8843+86.0051+75.3757+70.5936+76.3498+70.9682C79.2524+72.0846+63.7675+88.828+62.3985+85.8946C60.2875+81.3709+72.5865+64.1996+65.1738+73.8185C50.5014+92.8576+52.4711+84.1207+63.8237+69.3931C65.1961+67.6126+52.1132+87.1219+49.2723+86.2696C47.9206+85.8641+59.9685+69.6791+59.6983+68.193C59.4842+67.0157+36.9653+111.074+52.7976+71.4933C55.5569+64.5952+37.0929+95.1838+37.5713+87.7698C37.9002+82.6703+48.8802+71.4102+44.5469+74.1185C37.4631+78.5459+33.0502+79.2805+31.0457+81.6192C29.3849+83.5568+26.8369+88.659+25.2701+86.6447C23.5338+84.4123+27.0066+79.3769+28.2704+77.3438C29.5902+75.2207+28.53+72.2897+29.3205+69.9181C35.3694+51.7713+35.5962+78.6365+39.7465+77.3438C56.2356+72.2078+65.9856+88.4895+70.4243+93.2453C74.3845+97.4883+87.0829+82.53+85.8757+85.5946C82.2734+94.7389+23.4481+103.677+24.9701+82.3693C26.46+61.5103+52.3201+42.3383+71.9244+47.5661C81.8075+50.2016+80.3383+64.6264+85.3506+80.1191C85.439+80.392+85.9767+81.5875+86.1757+81.9192C86.3219+82.1629+86.6543+82.7049+86.8508+81.9192C86.9248+81.6232+86.511+78.1573+86.2507+78.3939C78.5885+85.3596+80.5797+96.343+77.1749+73.8185C75.3308+61.6191+69.8674+66.1286+66.3739+68.193C62.4902+70.4879+67.3997+56.5584+71.8494+55.8168C79.1441+54.601+61.2542+75.6276+55.5729+70.8932C52.1689+68.0566+59.3174+58.598+61.1234+56.7919C67.8511+50.0642+58.9927+63.5622+52.8727+64.8927C45.6725+66.4579+59.6166+50.0313+59.4733+49.8163C58.677+48.6219+45.6823+59.7274+48.8973+62.9425C52.7864+66.8315+60.7058+54.5817+55.1229+51.3914C47.7424+47.174+44.0817+63.1652+45.222+59.3421C47.9374+50.2375+37.094+53.6875+37.4962+55.9668C38.608+62.2666+54.3327+43.9642+55.7979+50.1913C61.5262+74.5366+45.058+76.3242+70.7993+89.1949C71.9049+89.7477+70.1849+94.6076+69.8242+96.1705C68.7003+101.041+30.2688+100.206+27.4453+92.9452C21.5959+77.9039+56.3971+62.4649+67.799+66.0928C74.5691+68.2469+70.5656+90.261+76.0498+85.7446C87.8258+76.0467+69.0916+58.5276+68.1741+65.8677" fill="none" stroke-linecap="round" opacity="1" stroke-linejoin="round"/>
<path stroke="#000000" stroke-width="7.27" d="M45.597+45.8409C81.3104+45.8409+52.7349+66.8802+70.4993+74.4935" fill="none" stroke-linecap="round" opacity="1" stroke-linejoin="round"/>
<path stroke="#000000" stroke-width="7.27" d="M75.5997+71.7933C75.5997+46.4529+86.3515+87.8004+83.1004+65.0427C82.6889+62.1618+78.0576+56.3641+75.5247+54.9167C65.4599+49.1654+50.0086+68.1792+58.0481+76.2187" fill="none" stroke-linecap="round" opacity="1" stroke-linejoin="round"/>
<path stroke="#000000" stroke-width="7.27" d="M26.1166+82.4415C22.7224+81.8758+25.2769+87.4306+24.9032+86.9235C23.9199+85.589+27.9884+93.8911+26.8604+92.4623C25.1512+90.2974+28.3893+98.0598+36.0199+98.0598" fill="none" stroke-linecap="round" opacity="1" stroke-linejoin="round"/>
<path stroke="#000000" stroke-width="7.27" d="M26.4204+85.5828C25.3819+90.9741+33.1978+101.615+28.2589+95.5785" fill="none" stroke-linecap="round" opacity="1" stroke-linejoin="round"/>
<path stroke="#000000" stroke-width="7.27" d="M26.0404+88.6076C25.7879+89.9184+25.0228+90.8574+24.7657+88.9122" fill="none" stroke-linecap="round" opacity="1" stroke-linejoin="round"/>
<path stroke="#000000" stroke-width="7.27" d="M29.5275+94.4041C29.4468+94.823+31.2922+97.691+31.7254+98.4757" fill="none" stroke-linecap="round" opacity="1" stroke-linejoin="round"/>
<path stroke="#000000" stroke-width="7.27" d="M41.9728+50.885C41.2078+49.3475+40.8985+50.8154+40.6163+51.6567" fill="none" stroke-linecap="round" opacity="1" stroke-linejoin="round"/>
<path stroke="#000000" stroke-width="7.27" d="M32.811+63.566C32.2542+65.2255+31.6985+65.9835+29.9993+65.9802" fill="none" stroke-linecap="round" opacity="1" stroke-linejoin="round"/>
<path stroke="#000000" stroke-width="7.27" d="M29.978+67.0061C29.6398+68.0139+29.2068+67.8372+28.6974+68.5136" fill="none" stroke-linecap="round" opacity="1" stroke-linejoin="round"/>
<path stroke="#000000" stroke-width="7.27" d="M38.9057+45.4007L38.9644+45.033L39.2153+45.44L39.6216+45.5763L39.6216+45.5763" fill="none" stroke-linecap="round" opacity="1" stroke-linejoin="round"/>
<path stroke="#000000" stroke-width="7.27" d="M123.859+70.9052C125.303+78.3547+126.144+86.1938+129.016+93.2082C129.067+93.2708+129.141+93.3325+129.217+93.3596C127.992+84.9419+126.767+76.5242+125.543+68.1064C124.01+66.8894+122.785+68.1167+123.859+70.9052" fill="none" stroke-linecap="round" opacity="1" stroke-linejoin="round"/>
<path stroke="#000000" stroke-width="7.27" d="M66.2207+94.2343C79.4149+89.7581+91.1967+92.0207+85.4939+75.2107C81.2696+62.7587+88.5606+75.2164+85.5679+77.2874" fill="none" stroke-linecap="round" opacity="1" stroke-linejoin="round"/>
<path stroke="#000000" stroke-width="7.27" d="M85.3229+73.5788C82.0881+66.1854+83.4831+47.6477+72.5049+46.4717" fill="none" stroke-linecap="round" opacity="1" stroke-linejoin="round"/>
<path stroke="#000000" stroke-width="7.27" d="M72.2267+48.3618C70.1768+43.6767+53.8543+45.053+50.0012+46.7389" fill="none" stroke-linecap="round" opacity="1" stroke-linejoin="round"/>
<path stroke="#000000" stroke-width="7.27" d="M77.5338+51.5661C77.0797+50.5281+77.5419+48.8263+77.4332+47.6312" fill="none" stroke-linecap="round" opacity="1" stroke-linejoin="round"/>
<path stroke="#000000" stroke-width="7.27" d="M54.7323+47.6162C54.1569+46.3011+52.2718+45.788+51.0795+45.1618" fill="none" stroke-linecap="round" opacity="1" stroke-linejoin="round"/>
<path stroke="#000000" stroke-width="7.27" d="M71.2691+94.1696C72.9631+98.0414+69.649+98.4473+66.2907+99.2951" fill="none" stroke-linecap="round" opacity="1" stroke-linejoin="round"/>
<path stroke="#000000" stroke-width="7.27" d="M69.2824+97.544C69.5371+98.1263+69.8081+98.6896+69.9782+99.3027" fill="none" stroke-linecap="round" opacity="1" stroke-linejoin="round"/>
<path stroke="#000000" stroke-width="7.27" d="M73.8549+93.8487C74.3148+94.8998+75.1532+95.2502+74.1836+96.2838" fill="none" stroke-linecap="round" opacity="1" stroke-linejoin="round"/>
<path stroke="#000000" stroke-width="7.27" d="M77.4961+93.5819C77.212+94.0248+77.1644+94.4294+76.9743+94.9154" fill="none" stroke-linecap="round" opacity="1" stroke-linejoin="round"/>
<path stroke="#000000" stroke-width="7.27" d="M79.7495+91.4907C79.8157+92.2184+79.4838+92.5466+79.4442+93.319" fill="none" stroke-linecap="round" opacity="1" stroke-linejoin="round"/>
<path stroke="#000000" stroke-width="7.27" d="M81.6512+90.9534C81.7775+91.242+81.9037+91.5306+82.03+91.8192" fill="none" stroke-linecap="round" opacity="1" stroke-linejoin="round"/>
<path stroke="#000000" stroke-width="7.27" d="M84.5076+88.8931C84.706+89.3467+84.9045+89.8002+85.1029+90.2537" fill="none" stroke-linecap="round" opacity="1" stroke-linejoin="round"/>
<path stroke="#000000" stroke-width="1" d="M79.5407+44.5741C80.8242+47.141+82.3528+51.1808+83.5505+54.2417C86.2507+61.1423+91.5687+77.5752+90.3939+85.0175C88.5625+96.6199+76.9249+96.9405+70.4136+102.86" fill="none" stroke-linecap="round" opacity="1" stroke-linejoin="round"/>
<path stroke="#000000" stroke-width="11.33" d="M91.5654+75.8642C91.0632+71.6471+89.7032+67.8121+88.8631+63.7032" fill="none" stroke-linecap="round" opacity="1" stroke-linejoin="round"/>
<path stroke="#000000" stroke-width="11.33" d="M68.4598+80.3851C68.3847+80.3073+68.3095+80.2296+68.2343+80.1518" fill="none" stroke-linecap="round" opacity="1" stroke-linejoin="round"/>
<path stroke="#000000" stroke-width="11.33" d="M88.8159+72.0446C89.9755+73.1669+87.8424+68.3675+86.2943+67.9116" fill="none" stroke-linecap="round" opacity="1" stroke-linejoin="round"/>
<path stroke="#000000" stroke-width="5.46" d="M83.023+64.2114C87.3233+61.7296+88.8496+57.4021+88.5012+54.4167C88.2462+52.2318+92.8488+61.1998+90.7242+60.6301C89.4433+60.2867+84.2383+37.3346+82.0281+38.1622C79.96+38.9366+84.8321+62.0392+81.3438+47.053C79.5107+39.1778+80.8509+51.1787+80.5566+51.2782C75.1904+53.0925+103.941+65.4614+93.1866+81.7434" fill="none" stroke-linecap="round" opacity="1" stroke-linejoin="round"/>
<path stroke="#000000" stroke-width="5.46" d="M74.5835+95.3304C75.0094+97.1938+73.2138+97.1735+73.0746+98.6032" fill="none" stroke-linecap="round" opacity="1" stroke-linejoin="round"/>
<path stroke="#000000" stroke-width="5.46" d="M76.1735+95.882C75.7544+96.707+75.4959+97.2144+75.4066+98.1312" fill="none" stroke-linecap="round" opacity="1" stroke-linejoin="round"/>
<path stroke="#000000" stroke-width="5.46" d="M78.2107+95.7214C78.3688+96.4129+78.2329+96.6903+78.0335+97.3478" fill="none" stroke-linecap="round" opacity="1" stroke-linejoin="round"/>
<path stroke="#000000" stroke-width="5.46" d="M81.6823+93.83C81.388+94.8442+81.4787+95.892+80.7448+96.6671" fill="none" stroke-linecap="round" opacity="1" stroke-linejoin="round"/>
<path stroke="#000000" stroke-width="5.46" d="M85.8362+89.5867C85.968+90.1631+83.9203+95.1225+83.3633+95.5807" fill="none" stroke-linecap="round" opacity="1" stroke-linejoin="round"/>
<path stroke="#000000" stroke-width="5.46" d="M88.9269+82.2926C90.7733+81.8706+87.3178+93.0284+84.9964+94.7194" fill="none" stroke-linecap="round" opacity="1" stroke-linejoin="round"/>
<path stroke="#000000" stroke-width="5.46" d="M91.6133+82.8376C92.2196+87.6613+88.6602+90.0948+87.1595+94.0421" fill="none" stroke-linecap="round" opacity="1" stroke-linejoin="round"/>
<path stroke="#000000" stroke-width="5.46" d="M95.3267+80.4029C94.3151+83.4999+95.0634+85.1187+92.8025+87.5066" fill="none" stroke-linecap="round" opacity="1" stroke-linejoin="round"/>
<path stroke="#000000" stroke-width="5.46" d="M96.5573+78.0477C96.6368+78.3956+96.7958+79.0912+96.7958+79.0912C96.7958+79.0912+96.6331+78.1122+96.5226+77.6287C96.4961+77.5128+96.4166+77.1649+96.4431+77.2809C96.7586+78.6613+97.0913+80.7736+96.5755+82.1304C96.2358+83.0239+95.5498+83.7285+95.1842+84.5833C94.8367+85.396+94.9132+86.3985+94.568+87.225C94.3279+87.8001+93.7623+88.195+93.3706+88.6577C92.3025+89.919+91.6779+91.2551+90.3677+92.3329" fill="none" stroke-linecap="round" opacity="1" stroke-linejoin="round"/>
<path stroke="#000000" stroke-width="5.46" d="M96.6733+78.0212C96.548+77.4729+96.4356+76.9433+96.3603+76.3849" fill="none" stroke-linecap="round" opacity="1" stroke-linejoin="round"/>
<path stroke="#000000" stroke-width="5.46" d="M97.1718+82.6041C97.6652+84.7632+96.1588+85.2368+95.2951+86.9368C95.0168+87.4848+95.0724+88.057+94.6989+88.5981C94.2264+89.2825+93.4012+89.5603+92.8637+90.1764C92.7716+90.2821+92.6401+90.5325+92.6401+90.5325C92.6401+90.5325+92.7688+90.2796+92.8637+90.1764C93.2884+89.7149+93.8303+89.4288+94.3146+89.0519C95.0658+88.4673+95.0157+87.4077+95.7009+86.8441" fill="none" stroke-linecap="round" opacity="1" stroke-linejoin="round"/>
<path stroke="#000000" stroke-width="1" d="M79.0313+34.7264C79.317+35.0121+81.8175+35.5689+82.3138+35.4469C85.7782+34.5955+98.3494+73.4032+99.047+76.3591C101.54+86.9246+97.9897+88.8756+95.385+91.8398C94.003+93.4125+92.189+94.5629+88.2581+96.325" fill="none" stroke-linecap="round" opacity="1" stroke-linejoin="round"/>
<path stroke="#000000" stroke-width="1" d="M70.6538+102.7C71.1465+102.489+70.2195+102.578+71.4841+102.15C73.9161+101.327+77.8851+100.093+81.3442+98.9699C84.6084+97.9103+87.4185+96.95+88.0548+96.5283" fill="none" stroke-linecap="round" opacity="1" stroke-linejoin="round"/>
<path stroke="#000000" stroke-width="1" d="M35.426+101.979C44.8012+101.979+61.0026+102.78+70.3335+102.78" fill="none" stroke-linecap="round" opacity="1" stroke-linejoin="round"/>
<path stroke="#000000" stroke-width="1" d="M36.6712+42.0906C33.4983+46.1699+30.9908+53.5026+29.5455+57.0919C27.5752+61.9853+20.2276+80.3164+20.532+84.8375C21.0405+92.3885+23.9962+97.0576+28.4382+101.099C29.2208+101.811+47.4855+102.338+48.9276+101.819C50.2961+101.327+45.0698+100.074+45.4826+101.734" fill="none" stroke-linecap="round" opacity="1" stroke-linejoin="round"/>
<path stroke="#ffffff" stroke-width="1" d="M77.5565+46.4264C77.5565+59.1724+84.2541+73.8377+83.0469+85.0781C82.3227+91.8211+76.8902+95.6142+70.6766+101.828" fill="none" stroke-linecap="round" opacity="1" stroke-linejoin="round"/>
<path stroke="#ffffff" stroke-width="1" d="M75.9271+99.6552C80.2215+98.2237+85.3646+97.2108+89.3248+94.9479" fill="none" stroke-linecap="round" opacity="1" stroke-linejoin="round"/>
<path stroke="#ffffff" stroke-width="1" d="M83.7122+38.5507C86.4857+55.1912+110.499+81.2239+89.5058+95.2194" fill="none" stroke-linecap="round" opacity="1" stroke-linejoin="round"/>
<path stroke="#ffffff" stroke-width="1" d="M29.3066+100.832C42.5199+100.832+58.6368+98.7273+71.4008+101.918" fill="none" stroke-linecap="round" opacity="1" stroke-linejoin="round"/>
<path stroke="#000000" stroke-width="1" d="M59.8712+30.3129C57.2935+30.3129+53.7916+36.8104+56.3407+37.1928" fill="none" stroke-linecap="round" opacity="1" stroke-linejoin="round"/>
<path stroke="#000000" stroke-width="11.64" d="M56.5217+32.6665C56.733+32.6665+56.9442+32.6665+57.1554+32.6665" fill="none" stroke-linecap="round" opacity="1" stroke-linejoin="round"/>
<path stroke="#000000" stroke-width="4.74" d="M45.8428+22.7175C43.1872+45.9207+42.1104+38.7393+61.2573+40.9307C66.7103+41.5548+79.2684+47.1699+77.694+41.9119C76.132+36.6955+80.9822+21.1481+77.8137+25.5765C73.9071+31.0365+72.5049+42.1534+74.8155+28.1832C75.4298+24.469+70.3032+42.5423+71.6256+39.0175C75.8384+27.7889+69.2594+32.4997+67.8488+34.8855" fill="none" stroke-linecap="round" opacity="1" stroke-linejoin="round"/>
<path stroke="#000000" stroke-width="4.74" d="M67.5595+36.1023C70.0305+32.6959+61.2993+35.5622+66.4012+31.37C66.9093+30.9525+62.5608+36.4235+61.4763+37.7059" fill="none" stroke-linecap="round" opacity="1" stroke-linejoin="round"/>
<path stroke="#000000" stroke-width="4.74" d="M52.1817+26.7427C51.5491+32.2698+44.9586+43.4169+51.7807+30.2466C52.6957+28.4802+52.7659+34.7571+51.399+36.2026C50.9354+36.6929+60.3647+25.6903+61.4412+28.4024C64.199+35.3504+44.2751+41.5889+63.5657+31.2454C72.0807+26.6797+64.5028+35.3464+61.9318+37.6581C52.9119+45.7683+72.731+27.8579+70.7001+33.5619C68.4123+39.9873+56.6311+40.9839+65.6221+36.4305C72.1659+33.1164+72.7858+36.7708+66.3252+39.4608C62.1545+41.1974+78.6752+33.3667+79.7702+37.7498C79.9934+38.643+78.0965+38.6841+77.7594+38.7196C73.6582+39.1506+71.9516+36.6873+72.2442+32.7387C72.3921+30.743+67.8975+28.2137+65.3488+26.1498C63.9365+25.0061+54.874+33.7661+53.9405+32.3437C53.2067+31.2255+58.2908+25.2583+57.5303+25.005C56.2523+24.5795+47.5006+31.8776+48.3163+29.5002C49.247+26.7876+46.9313+15.3147+69.732+21.0518C82.7603+24.33+65.3726+30.6172+68.0687+26.4111" fill="none" stroke-linecap="round" opacity="1" stroke-linejoin="round"/>
<path stroke="#000000" stroke-width="4.74" d="M69.1012+24.3794C65.5342+26.2096+50.9172+22.3987+51.4815+22.8128" fill="none" stroke-linecap="round" opacity="1" stroke-linejoin="round"/>
<path stroke="#000000" stroke-width="4.74" d="M50.2903+29.7261C48.518+30.0998+48.7274+34.6456+48.5691+36.0287" fill="none" stroke-linecap="round" opacity="1" stroke-linejoin="round"/>
<path stroke="#000000" stroke-width="4.74" d="M48.0143+31.2655C47.8083+33.0657+47.6958+34.6903+47.8654+36.4981" fill="none" stroke-linecap="round" opacity="1" stroke-linejoin="round"/>
<path stroke="#000000" stroke-width="4.74" d="M48.0552+22.1707C47.9608+21.454+48.678+21.4438+49.2652+21.2093" fill="none" stroke-linecap="round" opacity="1" stroke-linejoin="round"/>
<path stroke="#000000" stroke-width="4.74" d="M53.309+22.572C54.2715+22.6822+65.2249+21.5534+65.1365+22.3258" fill="none" stroke-linecap="round" opacity="1" stroke-linejoin="round"/>
<path stroke="#000000" stroke-width="4.74" d="M64.1902+23.1674C65.9997+23.3745+67.8093+23.5816+69.6188+23.7887" fill="none" stroke-linecap="round" opacity="1" stroke-linejoin="round"/>
<path stroke="#000000" stroke-width="4.74" d="M72.1086+25.6236C72.4757+25.7656+72.8427+25.9076+73.2098+26.0496" fill="none" stroke-linecap="round" opacity="1" stroke-linejoin="round"/>
<path stroke="#000000" stroke-width="4.74" d="M76.7196+24.6514C75.5475+19.092+70.525+41.0414+76.1698+41.6874" fill="none" stroke-linecap="round" opacity="1" stroke-linejoin="round"/>
<path stroke="#000000" stroke-width="4.74" d="M70.6892+40.2102C64.7817+39.5341+52.6172+32.6885+52.9215+38.6267" fill="none" stroke-linecap="round" opacity="1" stroke-linejoin="round"/>
<path stroke="#000000" stroke-width="4.74" d="M45.9773+36.832C44.5203+38.1698+38.6335+42.367+42.5379+38.4883" fill="none" stroke-linecap="round" opacity="1" stroke-linejoin="round"/>
<path stroke="#000000" stroke-width="4.74" d="M42.7734+38.6152C41.9662+39.2152+41.8602+40.4142+38.2156+41.7434" fill="none" stroke-linecap="round" opacity="1" stroke-linejoin="round"/>
<path stroke="#ffffff" stroke-width="1" d="M38.8856+42.9354C52.7262+42.9354+66.7856+45.8322+80.7082+45.8322" fill="none" stroke-linecap="round" opacity="1" stroke-linejoin="round"/>
<path stroke="#ffffff" stroke-width="1" d="M37.1823+43.3485C30.8893+55.9344+12.3811+89.5483+29.3066+100.832" fill="none" stroke-linecap="round" opacity="1" stroke-linejoin="round"/>
<path stroke="#ffffff" stroke-width="1" d="M83.1691+38.3696C80.3179+41.6281+82.1593+39.2305+79.0049+46.4264" fill="none" stroke-linecap="round" opacity="1" stroke-linejoin="round"/>
<path stroke="#ffffff" stroke-width="1" d="M41.618+36.0004C41.618+37.8631+39.2168+38.9287+38.6976+40.7459" fill="none" stroke-linecap="round" opacity="1" stroke-linejoin="round"/>
<path stroke="#ffffff" stroke-width="1" d="M44.6599+23.4066C44.6599+26.7789+44.5383+30.1369+44.5383+33.506" fill="none" stroke-linecap="round" opacity="1" stroke-linejoin="round"/>
<path stroke="#ffffff" stroke-width="1" d="M46.1201+34.6619C56.3064+38.0573+65.6581+38.8702+75.5057+34.236" fill="none" stroke-linecap="round" opacity="1" stroke-linejoin="round"/>
<path stroke="#ffffff" stroke-width="1" d="M79.4603+25.901C79.4603+29.268+77.5884+31.4094+76.7833+34.5402" fill="none" stroke-linecap="round" opacity="1" stroke-linejoin="round"/>
<path stroke="#ffffff" stroke-width="1" d="M77.8784+35.6962C79.381+35.6962+81.1559+37.3653+82.5631+38.0689" fill="none" stroke-linecap="round" opacity="1" stroke-linejoin="round"/>
<path stroke="#ffffff" stroke-width="1" d="M44.9641+22.859C51.1786+32.8021+71.1772+27.2917+78.9127+24.1975" fill="none" stroke-linecap="round" opacity="1" stroke-linejoin="round"/>
<path stroke="#ffffff" stroke-width="1" d="M45.0858+21.6422C53.3938+19.5652+73.8141+13.8785+79.2169+24.6842" fill="none" stroke-linecap="round" opacity="1" stroke-linejoin="round"/>
<path stroke="#ffffff" stroke-width="1" d="M205.567+96.6186C206.562+93.965+207.126+94.7772+206.348+91.4681" fill="none" stroke-linecap="round" opacity="1" stroke-linejoin="round"/>
</g>
</svg>
