<?xml version="1.0" encoding="UTF-8" standalone="no"?> <!-- Created with Vectornator for iOS (http://vectornator.io/) --><!DOCTYPE svg PUBLIC "-//W3C//DTD SVG 1.1//EN" "http://www.w3.org/Graphics/SVG/1.1/DTD/svg11.dtd">
<svg style="fill-rule:evenodd;clip-rule:evenodd;stroke-linecap:round;stroke-linejoin:round;" xmlns:vectornator="http://vectornator.io" xmlns:xlink="http://www.w3.org/1999/xlink" xmlns="http://www.w3.org/2000/svg" xml:space="preserve" version="1.1" viewBox="0 0 2384.24 1683.99">
<metadata>
<vectornator:setting key="DimensionsVisible" value="1"/>
<vectornator:setting key="SnapToGrid" value="0"/>
<vectornator:setting key="SnapToPoints" value="0"/>
<vectornator:setting key="GuidesVisible" value="1"/>
<vectornator:setting key="RulersVisible" value="1"/>
<vectornator:setting key="SnapToEdges" value="0"/>
<vectornator:setting key="DisplayWhiteBackground" value="0"/>
<vectornator:setting key="SnapToGuides" value="1"/>
<vectornator:setting key="GridSpacing" value="36"/>
<vectornator:setting key="Units" value="Millimeters"/>
<vectornator:setting key="DynamicGuides" value="0"/>
<vectornator:setting key="New" value="1"/>
</metadata>
<defs/>
<g id="レイヤー 1" vectornator:layerName="レイヤー 1">
<path stroke="#000000" stroke-width="1" d="M920.969+202C919.705+202+918.688+203.021+918.688+204.281L918.688+1231.44C918.687+1232.7+919.705+1233.72+920.969+1233.72L1605.22+1233.72C1606.48+1233.72+1607.5+1232.7+1607.5+1231.44L1607.5+204.281C1607.5+203.021+1606.48+202+1605.22+202L920.969+202ZM1588.44+1196.34C1588.7+1196.34+1588.87+1196.33+1588.97+1196.34C1589.03+1196.34+1589.02+1196.36+1589.25+1196.47C1589.36+1196.62+1589.26+1196.71+1589.28+1196.78C1589.3+1196.79+1589.36+1196.81+1589.38+1196.81C1589.34+1196.81+1589.31+1196.87+1589.28+1196.88C1589.28+1196.9+1589.29+1196.94+1589.28+1196.97C1589.42+1196.87+1589.55+1196.73+1589.72+1196.81C1589.97+1196.94+1590.06+1197.22+1589.94+1197.47C1589.81+1197.73+1589.59+1197.82+1589.34+1197.81C1589.26+1197.81+1589.33+1197.79+1589.03+1197.75C1588.78+1197.72+1588.64+1197.74+1588.5+1197.78C1588.31+1197.83+1588.13+1197.95+1588+1198.22C1587.88+1198.47+1587.59+1198.56+1587.34+1198.44C1587.1+1198.31+1587+1198+1587.12+1197.75C1587.29+1197.43+1587.57+1197.35+1587.81+1197.19C1587.68+1197.1+1587.5+1197.05+1587.5+1196.88C1587.5+1196.6+1587.72+1196.38+1588+1196.38C1588.03+1196.37+1588.37+1196.35+1588.44+1196.34Z" fill="#ffffff" stroke-linecap="butt" opacity="1" stroke-linejoin="round"/>
<path stroke="#000000" stroke-width="1" d="M1575.68+231.432C1575.68+226.816+1579.49+223.074+1584.19+223.074C1588.89+223.074+1592.69+226.816+1592.69+231.432C1592.69+236.048+1588.89+239.79+1584.19+239.79C1579.49+239.79+1575.68+236.048+1575.68+231.432Z" fill="#000000" stroke-linecap="butt" fill-opacity="0.97638" opacity="1" stroke-linejoin="round"/>
<path stroke="#000000" stroke-width="1" d="M1575.68+264.952C1575.68+260.336+1579.49+256.595+1584.19+256.595C1588.89+256.595+1592.69+260.336+1592.69+264.952C1592.69+269.568+1588.89+273.31+1584.19+273.31C1579.49+273.31+1575.68+269.568+1575.68+264.952Z" fill="#000000" stroke-linecap="butt" fill-opacity="0.97638" opacity="1" stroke-linejoin="round"/>
<path stroke="#000000" stroke-width="1" d="M1575.68+298.277C1575.68+293.661+1579.49+289.919+1584.19+289.919C1588.89+289.919+1592.69+293.661+1592.69+298.277C1592.69+302.893+1588.89+306.635+1584.19+306.635C1579.49+306.635+1575.68+302.893+1575.68+298.277Z" fill="#000000" stroke-linecap="butt" fill-opacity="0.97638" opacity="1" stroke-linejoin="round"/>
<path stroke="#000000" stroke-width="1" d="M1575.68+331.602C1575.68+326.986+1579.49+323.244+1584.19+323.244C1588.89+323.244+1592.69+326.986+1592.69+331.602C1592.69+336.218+1588.89+339.96+1584.19+339.96C1579.49+339.96+1575.68+336.218+1575.68+331.602Z" fill="#000000" stroke-linecap="butt" fill-opacity="0.97638" opacity="1" stroke-linejoin="round"/>
<path stroke="#000000" stroke-width="1" d="M1574.03+361.172C1574.03+356.556+1577.83+352.814+1582.53+352.814C1587.23+352.814+1591.04+356.556+1591.04+361.172C1591.04+365.788+1587.23+369.53+1582.53+369.53C1577.83+369.53+1574.03+365.788+1574.03+361.172Z" fill="#000000" stroke-linecap="butt" fill-opacity="0.97638" opacity="1" stroke-linejoin="round"/>
<path stroke="#000000" stroke-width="1" d="M1574.03+394.497C1574.03+389.881+1577.83+386.139+1582.53+386.139C1587.23+386.139+1591.04+389.881+1591.04+394.497C1591.04+399.113+1587.23+402.855+1582.53+402.855C1577.83+402.855+1574.03+399.113+1574.03+394.497Z" fill="#000000" stroke-linecap="butt" fill-opacity="0.97638" opacity="1" stroke-linejoin="round"/>
<path stroke="#000000" stroke-width="1" d="M1574.03+427.822C1574.03+423.206+1577.83+419.464+1582.53+419.464C1587.23+419.464+1591.04+423.206+1591.04+427.822C1591.04+432.438+1587.23+436.179+1582.53+436.179C1577.83+436.179+1574.03+432.438+1574.03+427.822Z" fill="#000000" stroke-linecap="butt" fill-opacity="0.97638" opacity="1" stroke-linejoin="round"/>
<path stroke="#000000" stroke-width="1" d="M1574.03+461.146C1574.03+456.53+1577.83+452.788+1582.53+452.788C1587.23+452.788+1591.04+456.53+1591.04+461.146C1591.04+465.762+1587.23+469.504+1582.53+469.504C1577.83+469.504+1574.03+465.762+1574.03+461.146Z" fill="#000000" stroke-linecap="butt" fill-opacity="0.97638" opacity="1" stroke-linejoin="round"/>
<path stroke="#000000" stroke-width="1" d="M1574.03+761.069C1574.03+756.453+1577.83+752.711+1582.53+752.711C1587.23+752.711+1591.04+756.453+1591.04+761.069C1591.04+765.685+1587.23+769.427+1582.53+769.427C1577.83+769.427+1574.03+765.685+1574.03+761.069Z" fill="#000000" stroke-linecap="butt" fill-opacity="0.97638" opacity="1" stroke-linejoin="round"/>
<path stroke="#000000" stroke-width="1" d="M1574.03+494.007C1574.03+489.392+1577.83+485.65+1582.53+485.65C1587.23+485.65+1591.04+489.392+1591.04+494.007C1591.04+498.623+1587.23+502.365+1582.53+502.365C1577.83+502.365+1574.03+498.623+1574.03+494.007Z" fill="#000000" stroke-linecap="butt" fill-opacity="0.97638" opacity="1" stroke-linejoin="round"/>
<path stroke="#000000" stroke-width="1" d="M1574.03+527.332C1574.03+522.716+1577.83+518.974+1582.53+518.974C1587.23+518.974+1591.04+522.716+1591.04+527.332C1591.04+531.948+1587.23+535.69+1582.53+535.69C1577.83+535.69+1574.03+531.948+1574.03+527.332Z" fill="#000000" stroke-linecap="butt" fill-opacity="0.97638" opacity="1" stroke-linejoin="round"/>
<path stroke="#000000" stroke-width="1" d="M1574.03+560.657C1574.03+556.041+1577.83+552.299+1582.53+552.299C1587.23+552.299+1591.04+556.041+1591.04+560.657C1591.04+565.273+1587.23+569.015+1582.53+569.015C1577.83+569.015+1574.03+565.273+1574.03+560.657Z" fill="#000000" stroke-linecap="butt" fill-opacity="0.97638" opacity="1" stroke-linejoin="round"/>
<path stroke="#000000" stroke-width="1" d="M1574.03+593.982C1574.03+589.366+1577.83+585.624+1582.53+585.624C1587.23+585.624+1591.04+589.366+1591.04+593.982C1591.04+598.598+1587.23+602.34+1582.53+602.34C1577.83+602.34+1574.03+598.598+1574.03+593.982Z" fill="#000000" stroke-linecap="butt" fill-opacity="0.97638" opacity="1" stroke-linejoin="round"/>
<path stroke="#000000" stroke-width="1" d="M1574.03+627.306C1574.03+622.69+1577.83+618.949+1582.53+618.949C1587.23+618.949+1591.04+622.69+1591.04+627.306C1591.04+631.922+1587.23+635.664+1582.53+635.664C1577.83+635.664+1574.03+631.922+1574.03+627.306Z" fill="#000000" stroke-linecap="butt" fill-opacity="0.97638" opacity="1" stroke-linejoin="round"/>
<path stroke="#000000" stroke-width="1" d="M1574.03+660.631C1574.03+656.015+1577.83+652.273+1582.53+652.273C1587.23+652.273+1591.04+656.015+1591.04+660.631C1591.04+665.247+1587.23+668.989+1582.53+668.989C1577.83+668.989+1574.03+665.247+1574.03+660.631Z" fill="#000000" stroke-linecap="butt" fill-opacity="0.97638" opacity="1" stroke-linejoin="round"/>
<path stroke="#000000" stroke-width="1" d="M1574.03+693.956C1574.03+689.34+1577.83+685.598+1582.53+685.598C1587.23+685.598+1591.04+689.34+1591.04+693.956C1591.04+698.572+1587.23+702.314+1582.53+702.314C1577.83+702.314+1574.03+698.572+1574.03+693.956Z" fill="#000000" stroke-linecap="butt" fill-opacity="0.97638" opacity="1" stroke-linejoin="round"/>
<path stroke="#000000" stroke-width="1" d="M1574.03+727.281C1574.03+722.665+1577.83+718.923+1582.53+718.923C1587.23+718.923+1591.04+722.665+1591.04+727.281C1591.04+731.897+1587.23+735.638+1582.53+735.638C1577.83+735.638+1574.03+731.897+1574.03+727.281Z" fill="#000000" stroke-linecap="butt" fill-opacity="0.97638" opacity="1" stroke-linejoin="round"/>
<path stroke="#000000" stroke-width="1" d="M1574.03+793.93C1574.03+789.314+1577.83+785.572+1582.53+785.572C1587.23+785.572+1591.04+789.314+1591.04+793.93C1591.04+798.546+1587.23+802.288+1582.53+802.288C1577.83+802.288+1574.03+798.546+1574.03+793.93Z" fill="#000000" stroke-linecap="butt" fill-opacity="0.97638" opacity="1" stroke-linejoin="round"/>
<path stroke="#000000" stroke-width="1" d="M1576.3+831.719C1576.3+827.103+1580.11+823.361+1584.8+823.361C1589.5+823.361+1593.31+827.103+1593.31+831.719C1593.31+836.335+1589.5+840.077+1584.8+840.077C1580.11+840.077+1576.3+836.335+1576.3+831.719Z" fill="#000000" stroke-linecap="butt" fill-opacity="0.97638" opacity="1" stroke-linejoin="round"/>
<path stroke="#000000" stroke-width="1" d="M1576.3+865.044C1576.3+860.428+1580.11+856.686+1584.8+856.686C1589.5+856.686+1593.31+860.428+1593.31+865.044C1593.31+869.66+1589.5+873.402+1584.8+873.402C1580.11+873.402+1576.3+869.66+1576.3+865.044Z" fill="#000000" stroke-linecap="butt" fill-opacity="0.97638" opacity="1" stroke-linejoin="round"/>
<path stroke="#000000" stroke-width="1" d="M1576.3+898.369C1576.3+893.753+1580.11+890.011+1584.8+890.011C1589.5+890.011+1593.31+893.753+1593.31+898.369C1593.31+902.984+1589.5+906.726+1584.8+906.726C1580.11+906.726+1576.3+902.984+1576.3+898.369Z" fill="#000000" stroke-linecap="butt" fill-opacity="0.97638" opacity="1" stroke-linejoin="round"/>
<path stroke="#000000" stroke-width="1" d="M1576.3+931.693C1576.3+927.077+1580.11+923.335+1584.8+923.335C1589.5+923.335+1593.31+927.077+1593.31+931.693C1593.31+936.309+1589.5+940.051+1584.8+940.051C1580.11+940.051+1576.3+936.309+1576.3+931.693Z" fill="#000000" stroke-linecap="butt" fill-opacity="0.97638" opacity="1" stroke-linejoin="round"/>
<path stroke="#000000" stroke-width="1" d="M1575.68+964.308C1575.68+959.692+1579.49+955.95+1584.19+955.95C1588.89+955.95+1592.69+959.692+1592.69+964.308C1592.69+968.924+1588.89+972.666+1584.19+972.666C1579.49+972.666+1575.68+968.924+1575.68+964.308Z" fill="#ffffff" stroke-linecap="butt" opacity="1" stroke-linejoin="round"/>
<path stroke="#000000" stroke-width="1" d="M1575.68+997.633C1575.68+993.017+1579.49+989.275+1584.19+989.275C1588.89+989.275+1592.69+993.017+1592.69+997.633C1592.69+1002.25+1588.89+1005.99+1584.19+1005.99C1579.49+1005.99+1575.68+1002.25+1575.68+997.633Z" fill="#ffffff" stroke-linecap="butt" opacity="1" stroke-linejoin="round"/>
<path stroke="#000000" stroke-width="1" d="M1575.68+1030.96C1575.68+1026.34+1579.49+1022.6+1584.19+1022.6C1588.89+1022.6+1592.69+1026.34+1592.69+1030.96C1592.69+1035.57+1588.89+1039.32+1584.19+1039.32C1579.49+1039.32+1575.68+1035.57+1575.68+1030.96Z" fill="#ffffff" stroke-linecap="butt" opacity="1" stroke-linejoin="round"/>
<path stroke="#000000" stroke-width="1" d="M1576.3+964.394C1576.3+959.778+1580.11+956.036+1584.8+956.036C1589.5+956.036+1593.31+959.778+1593.31+964.394C1593.31+969.01+1589.5+972.752+1584.8+972.752C1580.11+972.752+1576.3+969.01+1576.3+964.394Z" fill="#000000" stroke-linecap="butt" fill-opacity="0.97638" opacity="1" stroke-linejoin="round"/>
<path stroke="#000000" stroke-width="1" d="M1576.3+997.719C1576.3+993.103+1580.11+989.361+1584.8+989.361C1589.5+989.361+1593.31+993.103+1593.31+997.719C1593.31+1002.33+1589.5+1006.08+1584.8+1006.08C1580.11+1006.08+1576.3+1002.33+1576.3+997.719Z" fill="#000000" stroke-linecap="butt" fill-opacity="0.97638" opacity="1" stroke-linejoin="round"/>
<path stroke="#000000" stroke-width="1" d="M1576.3+1031.04C1576.3+1026.43+1580.11+1022.69+1584.8+1022.69C1589.5+1022.69+1593.31+1026.43+1593.31+1031.04C1593.31+1035.66+1589.5+1039.4+1584.8+1039.4C1580.11+1039.4+1576.3+1035.66+1576.3+1031.04Z" fill="#000000" stroke-linecap="butt" fill-opacity="0.97638" opacity="1" stroke-linejoin="round"/>
<path stroke="#000000" stroke-width="1" d="M1576.3+1064.37C1576.3+1059.75+1580.11+1056.01+1584.8+1056.01C1589.5+1056.01+1593.31+1059.75+1593.31+1064.37C1593.31+1068.98+1589.5+1072.73+1584.8+1072.73C1580.11+1072.73+1576.3+1068.98+1576.3+1064.37Z" fill="#000000" stroke-linecap="butt" fill-opacity="0.97638" opacity="1" stroke-linejoin="round"/>
<path stroke="#000000" stroke-width="1" d="M1575.68+1096.98C1575.68+1092.37+1579.49+1088.63+1584.19+1088.63C1588.89+1088.63+1592.69+1092.37+1592.69+1096.98C1592.69+1101.6+1588.89+1105.34+1584.19+1105.34C1579.49+1105.34+1575.68+1101.6+1575.68+1096.98Z" fill="#000000" stroke-linecap="butt" fill-opacity="0.97638" opacity="1" stroke-linejoin="round"/>
<path stroke="#000000" stroke-width="1" d="M1575.68+1130.31C1575.68+1125.69+1579.49+1121.95+1584.19+1121.95C1588.89+1121.95+1592.69+1125.69+1592.69+1130.31C1592.69+1134.92+1588.89+1138.67+1584.19+1138.67C1579.49+1138.67+1575.68+1134.92+1575.68+1130.31Z" fill="#000000" stroke-linecap="butt" fill-opacity="0.97638" opacity="1" stroke-linejoin="round"/>
<path stroke="#000000" stroke-width="1" d="M1575.68+1163.63C1575.68+1159.02+1579.49+1155.28+1584.19+1155.28C1588.89+1155.28+1592.69+1159.02+1592.69+1163.63C1592.69+1168.25+1588.89+1171.99+1584.19+1171.99C1579.49+1171.99+1575.68+1168.25+1575.68+1163.63Z" fill="#000000" stroke-linecap="butt" fill-opacity="0.97638" opacity="1" stroke-linejoin="round"/>
<path stroke="#000000" stroke-width="1" d="M1584.19+1188.59C1579.49+1188.59+1575.69+1192.35+1575.69+1196.97C1575.69+1201.58+1579.49+1205.31+1584.19+1205.31C1588.88+1205.31+1592.69+1201.58+1592.69+1196.97C1592.69+1192.35+1588.88+1188.59+1584.19+1188.59ZM1588.44+1196.34C1588.7+1196.34+1588.87+1196.33+1588.97+1196.34C1589.03+1196.34+1589.02+1196.36+1589.25+1196.47C1589.36+1196.62+1589.26+1196.71+1589.28+1196.78C1589.3+1196.79+1589.36+1196.81+1589.38+1196.81C1589.34+1196.81+1589.31+1196.87+1589.28+1196.88C1589.28+1196.9+1589.29+1196.94+1589.28+1196.97C1589.42+1196.87+1589.55+1196.73+1589.72+1196.81C1589.97+1196.94+1590.06+1197.22+1589.94+1197.47C1589.81+1197.73+1589.59+1197.82+1589.34+1197.81C1589.26+1197.81+1589.33+1197.79+1589.03+1197.75C1588.78+1197.72+1588.64+1197.74+1588.5+1197.78C1588.31+1197.83+1588.13+1197.95+1588+1198.22C1587.88+1198.47+1587.59+1198.56+1587.34+1198.44C1587.1+1198.31+1587+1198+1587.12+1197.75C1587.29+1197.43+1587.57+1197.35+1587.81+1197.19C1587.68+1197.1+1587.5+1197.05+1587.5+1196.88C1587.5+1196.6+1587.72+1196.38+1588+1196.38C1588.03+1196.37+1588.37+1196.35+1588.44+1196.34Z" fill="#000000" stroke-linecap="butt" fill-opacity="0.97638" opacity="1" stroke-linejoin="round"/>
<path stroke="#000000" stroke-width="1" d="M1583.55+230.412C1584.08+232.238+1583.29+234.806+1584.75+236.124C1607.66+220.785+1633.68+264.534+1606.66+266.856C1607.09+270.684+1607.51+274.511+1607.94+278.338C1657.6+274.35+1609.92+197.19+1583.55+230.412" fill="#cbc3c3" stroke-linecap="butt" opacity="1" stroke-linejoin="round"/>
<path stroke="#000000" stroke-width="1" d="M1583.55+264.412C1584.08+266.238+1583.29+268.806+1584.75+270.124C1607.66+254.785+1633.68+298.534+1606.66+300.856C1607.09+304.684+1607.51+308.511+1607.94+312.338C1657.6+308.35+1609.92+231.19+1583.55+264.412" fill="#cbc3c3" stroke-linecap="butt" opacity="1" stroke-linejoin="round"/>
<path stroke="#000000" stroke-width="1" d="M1583.55+298.412C1584.08+300.238+1583.29+302.806+1584.75+304.124C1607.66+288.785+1633.68+332.534+1606.66+334.856C1607.09+338.684+1607.51+342.511+1607.94+346.338C1657.6+342.35+1609.92+265.19+1583.55+298.412" fill="#cbc3c3" stroke-linecap="butt" opacity="1" stroke-linejoin="round"/>
<path stroke="#000000" stroke-width="1" d="M1583.55+331.412C1584.08+333.238+1583.29+335.806+1584.75+337.124C1607.66+321.785+1633.68+365.534+1606.66+367.856C1607.09+371.684+1607.51+375.511+1607.94+379.338C1657.6+375.35+1609.92+298.19+1583.55+331.412" fill="#cbc3c3" stroke-linecap="butt" opacity="1" stroke-linejoin="round"/>
<path stroke="#000000" stroke-width="1" d="M1583.55+360.412C1584.08+362.238+1583.29+364.806+1584.75+366.124C1607.66+350.785+1633.68+394.534+1606.66+396.856C1607.09+400.684+1607.51+404.511+1607.94+408.338C1657.6+404.35+1609.92+327.19+1583.55+360.412" fill="#cbc3c3" stroke-linecap="butt" opacity="1" stroke-linejoin="round"/>
<path stroke="#000000" stroke-width="1" d="M1583.55+391.412C1584.08+393.238+1583.29+395.806+1584.75+397.124C1607.66+381.785+1633.68+425.534+1606.66+427.856C1607.09+431.684+1607.51+435.511+1607.94+439.338C1657.6+435.35+1609.92+358.19+1583.55+391.412" fill="#cbc3c3" stroke-linecap="butt" opacity="1" stroke-linejoin="round"/>
<path stroke="#000000" stroke-width="1" d="M1583.55+426.412C1584.08+428.238+1583.29+430.806+1584.75+432.124C1607.66+416.785+1633.68+460.534+1606.66+462.856C1607.09+466.684+1607.51+470.511+1607.94+474.338C1657.6+470.35+1609.92+393.19+1583.55+426.412" fill="#cbc3c3" stroke-linecap="butt" opacity="1" stroke-linejoin="round"/>
<path stroke="#000000" stroke-width="1" d="M1583.55+459.412C1584.08+461.238+1583.29+463.806+1584.75+465.124C1607.66+449.785+1633.68+493.534+1606.66+495.856C1607.09+499.684+1607.51+503.511+1607.94+507.338C1657.6+503.35+1609.92+426.19+1583.55+459.412" fill="#cbc3c3" stroke-linecap="butt" opacity="1" stroke-linejoin="round"/>
<path stroke="#000000" stroke-width="1" d="M1583.55+489.412C1584.08+491.238+1583.29+493.806+1584.75+495.124C1607.66+479.785+1633.68+523.534+1606.66+525.856C1607.09+529.684+1607.51+533.511+1607.94+537.338C1657.6+533.35+1609.92+456.19+1583.55+489.412" fill="#cbc3c3" stroke-linecap="butt" opacity="1" stroke-linejoin="round"/>
<path stroke="#000000" stroke-width="1" d="M1583.55+522.412C1584.08+524.238+1583.29+526.806+1584.75+528.124C1607.66+512.785+1633.68+556.534+1606.66+558.856C1607.09+562.684+1607.51+566.511+1607.94+570.338C1657.6+566.35+1609.92+489.19+1583.55+522.412" fill="#cbc3c3" stroke-linecap="butt" opacity="1" stroke-linejoin="round"/>
<path stroke="#000000" stroke-width="1" d="M1583.55+558.412C1584.08+560.238+1583.29+562.806+1584.75+564.124C1607.66+548.785+1633.68+592.534+1606.66+594.856C1607.09+598.684+1607.51+602.511+1607.94+606.338C1657.6+602.35+1609.92+525.19+1583.55+558.412" fill="#cbc3c3" stroke-linecap="butt" opacity="1" stroke-linejoin="round"/>
<path stroke="#000000" stroke-width="1" d="M1583.55+590.412C1584.08+592.238+1583.29+594.806+1584.75+596.124C1607.66+580.785+1633.68+624.534+1606.66+626.856C1607.09+630.684+1607.51+634.511+1607.94+638.338C1657.6+634.35+1609.92+557.19+1583.55+590.412" fill="#cbc3c3" stroke-linecap="butt" opacity="1" stroke-linejoin="round"/>
<path stroke="#000000" stroke-width="1" d="M1583.55+625.412C1584.08+627.238+1583.29+629.806+1584.75+631.124C1607.66+615.785+1633.68+659.534+1606.66+661.856C1607.09+665.684+1607.51+669.511+1607.94+673.338C1657.6+669.35+1609.92+592.19+1583.55+625.412" fill="#cbc3c3" stroke-linecap="butt" opacity="1" stroke-linejoin="round"/>
<path stroke="#000000" stroke-width="1" d="M1583.55+657.412C1584.08+659.238+1583.29+661.806+1584.75+663.124C1607.66+647.785+1633.68+691.534+1606.66+693.856C1607.09+697.684+1607.51+701.511+1607.94+705.338C1657.6+701.35+1609.92+624.19+1583.55+657.412" fill="#cbc3c3" stroke-linecap="butt" opacity="1" stroke-linejoin="round"/>
<path stroke="#000000" stroke-width="1" d="M1583.55+692.412C1584.08+694.238+1583.29+696.806+1584.75+698.124C1607.66+682.785+1633.68+726.534+1606.66+728.856C1607.09+732.684+1607.51+736.511+1607.94+740.338C1657.6+736.35+1609.92+659.19+1583.55+692.412" fill="#cbc3c3" stroke-linecap="butt" opacity="1" stroke-linejoin="round"/>
<path stroke="#000000" stroke-width="1" d="M1583.55+726.412C1584.08+728.238+1583.29+730.806+1584.75+732.124C1607.66+716.785+1633.68+760.534+1606.66+762.856C1607.09+766.684+1607.51+770.511+1607.94+774.338C1657.6+770.35+1609.92+693.19+1583.55+726.412" fill="#cbc3c3" stroke-linecap="butt" opacity="1" stroke-linejoin="round"/>
<path stroke="#000000" stroke-width="1" d="M1583.55+757.412C1584.08+759.238+1583.29+761.806+1584.75+763.124C1607.66+747.785+1633.68+791.534+1606.66+793.856C1607.09+797.684+1607.51+801.511+1607.94+805.338C1657.6+801.35+1609.92+724.19+1583.55+757.412" fill="#cbc3c3" stroke-linecap="butt" opacity="1" stroke-linejoin="round"/>
<path stroke="#000000" stroke-width="1" d="M1583.55+792.412C1584.08+794.238+1583.29+796.806+1584.75+798.124C1607.66+782.785+1633.68+826.534+1606.66+828.856C1607.09+832.684+1607.51+836.511+1607.94+840.338C1657.6+836.35+1609.92+759.19+1583.55+792.412" fill="#cbc3c3" stroke-linecap="butt" opacity="1" stroke-linejoin="round"/>
<path stroke="#000000" stroke-width="1" d="M1583.55+827.412C1584.08+829.238+1583.29+831.806+1584.75+833.124C1607.66+817.785+1633.68+861.534+1606.66+863.856C1607.09+867.684+1607.51+871.511+1607.94+875.338C1657.6+871.35+1609.92+794.19+1583.55+827.412" fill="#cbc3c3" stroke-linecap="butt" opacity="1" stroke-linejoin="round"/>
<path stroke="#000000" stroke-width="1" d="M1583.55+862.412C1584.08+864.238+1583.29+866.806+1584.75+868.124C1607.66+852.785+1633.68+896.534+1606.66+898.856C1607.09+902.684+1607.51+906.511+1607.94+910.338C1657.6+906.35+1609.92+829.19+1583.55+862.412" fill="#cbc3c3" stroke-linecap="butt" opacity="1" stroke-linejoin="round"/>
<path stroke="#000000" stroke-width="1" d="M1583.55+896.412C1584.08+898.238+1583.29+900.806+1584.75+902.124C1607.66+886.785+1633.68+930.534+1606.66+932.856C1607.09+936.684+1607.51+940.511+1607.94+944.338C1657.6+940.35+1609.92+863.19+1583.55+896.412" fill="#cbc3c3" stroke-linecap="butt" opacity="1" stroke-linejoin="round"/>
<path stroke="#000000" stroke-width="1" d="M1583.55+927.412C1584.08+929.238+1583.29+931.806+1584.75+933.124C1607.66+917.785+1633.68+961.534+1606.66+963.856C1607.09+967.684+1607.51+971.511+1607.94+975.338C1657.6+971.35+1609.92+894.19+1583.55+927.412" fill="#cbc3c3" stroke-linecap="butt" opacity="1" stroke-linejoin="round"/>
<path stroke="#000000" stroke-width="1" d="M1583.55+960.412C1584.08+962.238+1583.29+964.806+1584.75+966.124C1607.66+950.785+1633.68+994.534+1606.66+996.856C1607.09+1000.68+1607.51+1004.51+1607.94+1008.34C1657.6+1004.35+1609.92+927.19+1583.55+960.412" fill="#cbc3c3" stroke-linecap="butt" opacity="1" stroke-linejoin="round"/>
<path stroke="#000000" stroke-width="1" d="M1583.55+993.412C1584.08+995.238+1583.29+997.806+1584.75+999.124C1607.66+983.785+1633.68+1027.53+1606.66+1029.86C1607.09+1033.68+1607.51+1037.51+1607.94+1041.34C1657.6+1037.35+1609.92+960.19+1583.55+993.412" fill="#cbc3c3" stroke-linecap="butt" opacity="1" stroke-linejoin="round"/>
<path stroke="#000000" stroke-width="1" d="M1583.55+1030.41C1584.08+1032.24+1583.29+1034.81+1584.75+1036.12C1607.66+1020.78+1633.68+1064.53+1606.66+1066.86C1607.09+1070.68+1607.51+1074.51+1607.94+1078.34C1657.6+1074.35+1609.92+997.19+1583.55+1030.41" fill="#cbc3c3" stroke-linecap="butt" opacity="1" stroke-linejoin="round"/>
<path stroke="#000000" stroke-width="1" d="M1583.55+1062.41C1584.08+1064.24+1583.29+1066.81+1584.75+1068.12C1607.66+1052.78+1633.68+1096.53+1606.66+1098.86C1607.09+1102.68+1607.51+1106.51+1607.94+1110.34C1657.6+1106.35+1609.92+1029.19+1583.55+1062.41" fill="#cbc3c3" stroke-linecap="butt" opacity="1" stroke-linejoin="round"/>
<path stroke="#000000" stroke-width="1" d="M1583.55+1095.41C1584.08+1097.24+1583.29+1099.81+1584.75+1101.12C1607.66+1085.78+1633.68+1129.53+1606.66+1131.86C1607.09+1135.68+1607.51+1139.51+1607.94+1143.34C1657.6+1139.35+1609.92+1062.19+1583.55+1095.41" fill="#cbc3c3" stroke-linecap="butt" opacity="1" stroke-linejoin="round"/>
<path stroke="#000000" stroke-width="1" d="M1583.55+1129.41C1584.08+1131.24+1583.29+1133.81+1584.75+1135.12C1607.66+1119.78+1633.68+1163.53+1606.66+1165.86C1607.09+1169.68+1607.51+1173.51+1607.94+1177.34C1657.6+1173.35+1609.92+1096.19+1583.55+1129.41" fill="#cbc3c3" stroke-linecap="butt" opacity="1" stroke-linejoin="round"/>
<path stroke="#000000" stroke-width="1" d="M1583.55+1160.41C1584.08+1162.24+1583.29+1164.81+1584.75+1166.12C1607.66+1150.78+1633.68+1194.53+1606.66+1196.86C1607.09+1200.68+1607.51+1204.51+1607.94+1208.34C1657.6+1204.35+1609.92+1127.19+1583.55+1160.41" fill="#cbc3c3" stroke-linecap="butt" opacity="1" stroke-linejoin="round"/>
<path stroke="#000000" stroke-width="1" d="M1603.56+1197.45C1604.06+1197.45+1607.88+1197.23+1606.1+1197.23" fill="#cbc3c3" stroke-linecap="butt" opacity="1" stroke-linejoin="round"/>
<path stroke="#000000" stroke-width="1" d="M1584.67+1200.14C1590.06+1191.99+1616.67+1211.64+1615.77+1188.42C1603.37+1185.42+1567.43+1187.31+1584.67+1200.14" fill="#d0caca" stroke-linecap="butt" opacity="1" stroke-linejoin="round"/>
</g>
</svg>
