<?xml version="1.0" encoding="UTF-8" standalone="no"?> <!-- Created with Vectornator for iOS (http://vectornator.io/) --><!DOCTYPE svg PUBLIC "-//W3C//DTD SVG 1.1//EN" "http://www.w3.org/Graphics/SVG/1.1/DTD/svg11.dtd">
<svg style="fill-rule:evenodd;clip-rule:evenodd;stroke-linecap:round;stroke-linejoin:round;" xmlns:vectornator="http://vectornator.io" xmlns:xlink="http://www.w3.org/1999/xlink" xmlns="http://www.w3.org/2000/svg" xml:space="preserve" version="1.1" viewBox="0 0 2384.24 1683.99">
<metadata>
<vectornator:setting key="DimensionsVisible" value="1"/>
<vectornator:setting key="SnapToGrid" value="0"/>
<vectornator:setting key="SnapToPoints" value="0"/>
<vectornator:setting key="GuidesVisible" value="1"/>
<vectornator:setting key="RulersVisible" value="1"/>
<vectornator:setting key="SnapToEdges" value="0"/>
<vectornator:setting key="DisplayWhiteBackground" value="0"/>
<vectornator:setting key="SnapToGuides" value="1"/>
<vectornator:setting key="GridSpacing" value="36"/>
<vectornator:setting key="Units" value="Millimeters"/>
<vectornator:setting key="DynamicGuides" value="0"/>
<vectornator:setting key="New" value="1"/>
</metadata>
<defs/>
<g id="レイヤー 1" vectornator:layerName="レイヤー 1">
<path stroke="#000000" stroke-width="1" d="M257.299+21.694C257.299+19.2027+259.312+17.1973+261.796+17.1973L2286.49+17.1972C2288.97+17.1969+2290.99+19.2025+2290.99+21.6939L2290.99+1370.46C2290.99+1372.96+2288.98+1374.96+2286.49+1374.96L261.796+1374.96C259.312+1374.96+257.299+1372.96+257.299+1370.46L257.299+21.694ZM2217.32+1337.39C2217.3+1337.89+2217.3+1338.23+2217.32+1338.43C2217.31+1338.55+2217.36+1338.54+2217.56+1338.99C2217.85+1339.21+2218.03+1339.01+2218.18+1339.05C2218.19+1339.09+2218.24+1339.21+2218.24+1339.23C2218.24+1339.17+2218.35+1339.11+2218.36+1339.05C2218.41+1339.04+2218.49+1339.07+2218.55+1339.05C2218.36+1339.32+2218.08+1339.58+2218.24+1339.91C2218.48+1340.4+2219.05+1340.59+2219.53+1340.34C2220.05+1340.08+2220.22+1339.67+2220.21+1339.17C2220.21+1339.01+2220.17+1339.14+2220.09+1338.56C2220.02+1338.06+2220.07+1337.79+2220.15+1337.51C2220.25+1337.13+2220.49+1336.78+2221.01+1336.52C2221.5+1336.28+2221.69+1335.72+2221.44+1335.23C2221.2+1334.74+2220.57+1334.55+2220.09+1334.8C2219.45+1335.11+2219.3+1335.68+2218.98+1336.15C2218.8+1335.89+2218.7+1335.54+2218.36+1335.54C2217.82+1335.54+2217.38+1335.98+2217.38+1336.52C2217.38+1336.58+2217.32+1337.26+2217.32+1337.39Z" fill="#ffffff" stroke-linecap="butt" opacity="1" stroke-linejoin="round"/>
<path stroke="#000000" stroke-width="1" d="M315.315+1312.25C306.216+1312.25+298.84+1319.75+298.84+1329.01C298.84+1338.27+306.216+1345.78+315.315+1345.78C324.414+1345.78+331.79+1338.27+331.79+1329.01C331.79+1319.75+324.414+1312.25+315.315+1312.25Z" fill="#000000" stroke-linecap="butt" fill-opacity="0.97638" opacity="1" stroke-linejoin="round"/>
<path stroke="#000000" stroke-width="1" d="M381.389+1312.25C372.29+1312.25+364.914+1319.75+364.914+1329.01C364.914+1338.27+372.29+1345.78+381.389+1345.78C390.488+1345.78+397.864+1338.27+397.864+1329.01C397.864+1319.75+390.488+1312.25+381.389+1312.25Z" fill="#000000" stroke-linecap="butt" fill-opacity="0.97638" opacity="1" stroke-linejoin="round"/>
<path stroke="#000000" stroke-width="1" d="M447.077+1312.25C437.979+1312.25+430.603+1319.75+430.603+1329.01C430.603+1338.27+437.979+1345.78+447.077+1345.78C456.176+1345.78+463.552+1338.27+463.552+1329.01C463.552+1319.75+456.176+1312.25+447.077+1312.25Z" fill="#000000" stroke-linecap="butt" fill-opacity="0.97638" opacity="1" stroke-linejoin="round"/>
<path stroke="#000000" stroke-width="1" d="M512.766+1312.25C503.667+1312.25+496.291+1319.75+496.291+1329.01C496.291+1338.27+503.667+1345.78+512.766+1345.78C521.865+1345.78+529.241+1338.27+529.241+1329.01C529.241+1319.75+521.865+1312.25+512.766+1312.25Z" fill="#000000" stroke-linecap="butt" fill-opacity="0.97638" opacity="1" stroke-linejoin="round"/>
<path stroke="#000000" stroke-width="1" d="M571.054+1308.98C561.955+1308.98+554.579+1316.48+554.579+1325.74C554.579+1335+561.955+1342.51+571.054+1342.51C580.153+1342.51+587.529+1335+587.529+1325.74C587.529+1316.48+580.153+1308.98+571.054+1308.98Z" fill="#000000" stroke-linecap="butt" fill-opacity="0.97638" opacity="1" stroke-linejoin="round"/>
<path stroke="#000000" stroke-width="1" d="M636.742+1308.98C627.644+1308.98+620.268+1316.48+620.268+1325.74C620.268+1335+627.644+1342.51+636.742+1342.51C645.841+1342.51+653.217+1335+653.217+1325.74C653.217+1316.48+645.841+1308.98+636.742+1308.98Z" fill="#000000" stroke-linecap="butt" fill-opacity="0.97638" opacity="1" stroke-linejoin="round"/>
<path stroke="#000000" stroke-width="1" d="M702.431+1308.98C693.332+1308.98+685.956+1316.48+685.956+1325.74C685.956+1335+693.332+1342.51+702.431+1342.51C711.53+1342.51+718.906+1335+718.906+1325.74C718.906+1316.48+711.53+1308.98+702.431+1308.98Z" fill="#000000" stroke-linecap="butt" fill-opacity="0.97638" opacity="1" stroke-linejoin="round"/>
<path stroke="#000000" stroke-width="1" d="M768.12+1308.98C759.021+1308.98+751.645+1316.48+751.645+1325.74C751.645+1335+759.021+1342.51+768.12+1342.51C777.218+1342.51+784.594+1335+784.594+1325.74C784.594+1316.48+777.218+1308.98+768.12+1308.98Z" fill="#000000" stroke-linecap="butt" fill-opacity="0.97638" opacity="1" stroke-linejoin="round"/>
<path stroke="#000000" stroke-width="1" d="M1359.32+1308.98C1350.22+1308.98+1342.84+1316.48+1342.84+1325.74C1342.84+1335+1350.22+1342.51+1359.32+1342.51C1368.42+1342.51+1375.79+1335+1375.79+1325.74C1375.79+1316.48+1368.42+1308.98+1359.32+1308.98Z" fill="#000000" stroke-linecap="butt" fill-opacity="0.97638" opacity="1" stroke-linejoin="round"/>
<path stroke="#000000" stroke-width="1" d="M832.894+1308.98C823.795+1308.98+816.419+1316.48+816.419+1325.74C816.419+1335+823.795+1342.51+832.894+1342.51C841.993+1342.51+849.369+1335+849.369+1325.74C849.369+1316.48+841.993+1308.98+832.894+1308.98Z" fill="#000000" stroke-linecap="butt" fill-opacity="0.97638" opacity="1" stroke-linejoin="round"/>
<path stroke="#000000" stroke-width="1" d="M898.583+1308.98C889.484+1308.98+882.108+1316.48+882.108+1325.74C882.108+1335+889.484+1342.51+898.583+1342.51C907.681+1342.51+915.057+1335+915.057+1325.74C915.057+1316.48+907.681+1308.98+898.583+1308.98Z" fill="#000000" stroke-linecap="butt" fill-opacity="0.97638" opacity="1" stroke-linejoin="round"/>
<path stroke="#000000" stroke-width="1" d="M964.271+1308.98C955.173+1308.98+947.797+1316.48+947.797+1325.74C947.797+1335+955.173+1342.51+964.271+1342.51C973.37+1342.51+980.746+1335+980.746+1325.74C980.746+1316.48+973.37+1308.98+964.271+1308.98Z" fill="#000000" stroke-linecap="butt" fill-opacity="0.97638" opacity="1" stroke-linejoin="round"/>
<path stroke="#000000" stroke-width="1" d="M1029.96+1308.98C1020.86+1308.98+1013.49+1316.48+1013.49+1325.74C1013.49+1335+1020.86+1342.51+1029.96+1342.51C1039.06+1342.51+1046.43+1335+1046.43+1325.74C1046.43+1316.48+1039.06+1308.98+1029.96+1308.98Z" fill="#000000" stroke-linecap="butt" fill-opacity="0.97638" opacity="1" stroke-linejoin="round"/>
<path stroke="#000000" stroke-width="1" d="M1095.65+1308.98C1086.55+1308.98+1079.17+1316.48+1079.17+1325.74C1079.17+1335+1086.55+1342.51+1095.65+1342.51C1104.75+1342.51+1112.12+1335+1112.12+1325.74C1112.12+1316.48+1104.75+1308.98+1095.65+1308.98Z" fill="#000000" stroke-linecap="butt" fill-opacity="0.97638" opacity="1" stroke-linejoin="round"/>
<path stroke="#000000" stroke-width="1" d="M1161.34+1308.98C1152.24+1308.98+1144.86+1316.48+1144.86+1325.74C1144.86+1335+1152.24+1342.51+1161.34+1342.51C1170.44+1342.51+1177.81+1335+1177.81+1325.74C1177.81+1316.48+1170.44+1308.98+1161.34+1308.98Z" fill="#000000" stroke-linecap="butt" fill-opacity="0.97638" opacity="1" stroke-linejoin="round"/>
<path stroke="#000000" stroke-width="1" d="M1227.03+1308.98C1217.93+1308.98+1210.55+1316.48+1210.55+1325.74C1210.55+1335+1217.93+1342.51+1227.03+1342.51C1236.12+1342.51+1243.5+1335+1243.5+1325.74C1243.5+1316.48+1236.12+1308.98+1227.03+1308.98Z" fill="#000000" stroke-linecap="butt" fill-opacity="0.97638" opacity="1" stroke-linejoin="round"/>
<path stroke="#000000" stroke-width="1" d="M1292.71+1308.98C1283.62+1308.98+1276.24+1316.48+1276.24+1325.74C1276.24+1335+1283.62+1342.51+1292.71+1342.51C1301.81+1342.51+1309.19+1335+1309.19+1325.74C1309.19+1316.48+1301.81+1308.98+1292.71+1308.98Z" fill="#000000" stroke-linecap="butt" fill-opacity="0.97638" opacity="1" stroke-linejoin="round"/>
<path stroke="#000000" stroke-width="1" d="M1424.09+1308.98C1414.99+1308.98+1407.62+1316.48+1407.62+1325.74C1407.62+1335+1414.99+1342.51+1424.09+1342.51C1433.19+1342.51+1440.57+1335+1440.57+1325.74C1440.57+1316.48+1433.19+1308.98+1424.09+1308.98Z" fill="#000000" stroke-linecap="butt" fill-opacity="0.97638" opacity="1" stroke-linejoin="round"/>
<path stroke="#000000" stroke-width="1" d="M1498.58+1313.46C1489.48+1313.46+1482.1+1320.96+1482.1+1330.22C1482.1+1339.48+1489.48+1346.99+1498.58+1346.99C1507.68+1346.99+1515.05+1339.48+1515.05+1330.22C1515.05+1320.96+1507.68+1313.46+1498.58+1313.46Z" fill="#000000" stroke-linecap="butt" fill-opacity="0.97638" opacity="1" stroke-linejoin="round"/>
<path stroke="#000000" stroke-width="1" d="M1564.27+1313.46C1555.17+1313.46+1547.79+1320.96+1547.79+1330.22C1547.79+1339.48+1555.17+1346.99+1564.27+1346.99C1573.37+1346.99+1580.74+1339.48+1580.74+1330.22C1580.74+1320.96+1573.37+1313.46+1564.27+1313.46Z" fill="#000000" stroke-linecap="butt" fill-opacity="0.97638" opacity="1" stroke-linejoin="round"/>
<path stroke="#000000" stroke-width="1" d="M1629.96+1313.46C1620.86+1313.46+1613.48+1320.96+1613.48+1330.22C1613.48+1339.48+1620.86+1346.99+1629.96+1346.99C1639.06+1346.99+1646.43+1339.48+1646.43+1330.22C1646.43+1320.96+1639.06+1313.46+1629.96+1313.46Z" fill="#000000" stroke-linecap="butt" fill-opacity="0.97638" opacity="1" stroke-linejoin="round"/>
<path stroke="#000000" stroke-width="1" d="M1695.65+1313.46C1686.55+1313.46+1679.17+1320.96+1679.17+1330.22C1679.17+1339.48+1686.55+1346.99+1695.65+1346.99C1704.74+1346.99+1712.12+1339.48+1712.12+1330.22C1712.12+1320.96+1704.74+1313.46+1695.65+1313.46Z" fill="#000000" stroke-linecap="butt" fill-opacity="0.97638" opacity="1" stroke-linejoin="round"/>
<path stroke="#000000" stroke-width="1" d="M1759.93+1312.25C1750.84+1312.25+1743.46+1319.75+1743.46+1329.01C1743.46+1338.27+1750.84+1345.78+1759.93+1345.78C1769.03+1345.78+1776.41+1338.27+1776.41+1329.01C1776.41+1319.75+1769.03+1312.25+1759.93+1312.25Z" fill="#ffffff" stroke-linecap="butt" opacity="1" stroke-linejoin="round"/>
<path stroke="#000000" stroke-width="1" d="M1825.62+1312.25C1816.52+1312.25+1809.15+1319.75+1809.15+1329.01C1809.15+1338.27+1816.52+1345.78+1825.62+1345.78C1834.72+1345.78+1842.1+1338.27+1842.1+1329.01C1842.1+1319.75+1834.72+1312.25+1825.62+1312.25Z" fill="#ffffff" stroke-linecap="butt" opacity="1" stroke-linejoin="round"/>
<path stroke="#000000" stroke-width="1" d="M1891.31+1312.25C1882.21+1312.25+1874.84+1319.75+1874.84+1329.01C1874.84+1338.27+1882.21+1345.78+1891.31+1345.78C1900.41+1345.78+1907.79+1338.27+1907.79+1329.01C1907.79+1319.75+1900.41+1312.25+1891.31+1312.25Z" fill="#ffffff" stroke-linecap="butt" opacity="1" stroke-linejoin="round"/>
<path stroke="#000000" stroke-width="1" d="M1760.1+1313.46C1751.01+1313.46+1743.63+1320.96+1743.63+1330.22C1743.63+1339.48+1751.01+1346.99+1760.1+1346.99C1769.2+1346.99+1776.58+1339.48+1776.58+1330.22C1776.58+1320.96+1769.2+1313.46+1760.1+1313.46Z" fill="#000000" stroke-linecap="butt" fill-opacity="0.97638" opacity="1" stroke-linejoin="round"/>
<path stroke="#000000" stroke-width="1" d="M1825.79+1313.46C1816.69+1313.46+1809.32+1320.96+1809.32+1330.22C1809.32+1339.48+1816.69+1346.99+1825.79+1346.99C1834.89+1346.99+1842.27+1339.48+1842.27+1330.22C1842.27+1320.96+1834.89+1313.46+1825.79+1313.46Z" fill="#000000" stroke-linecap="butt" fill-opacity="0.97638" opacity="1" stroke-linejoin="round"/>
<path stroke="#000000" stroke-width="1" d="M1891.48+1313.46C1882.38+1313.46+1875.01+1320.96+1875.01+1330.22C1875.01+1339.48+1882.38+1346.99+1891.48+1346.99C1900.58+1346.99+1907.96+1339.48+1907.96+1330.22C1907.96+1320.96+1900.58+1313.46+1891.48+1313.46Z" fill="#000000" stroke-linecap="butt" fill-opacity="0.97638" opacity="1" stroke-linejoin="round"/>
<path stroke="#000000" stroke-width="1" d="M1957.17+1313.46C1948.07+1313.46+1940.7+1320.96+1940.7+1330.22C1940.7+1339.48+1948.07+1346.99+1957.17+1346.99C1966.27+1346.99+1973.64+1339.48+1973.64+1330.22C1973.64+1320.96+1966.27+1313.46+1957.17+1313.46Z" fill="#000000" stroke-linecap="butt" fill-opacity="0.97638" opacity="1" stroke-linejoin="round"/>
<path stroke="#000000" stroke-width="1" d="M2021.46+1312.25C2012.36+1312.25+2004.99+1319.75+2004.99+1329.01C2004.99+1338.27+2012.36+1345.78+2021.46+1345.78C2030.56+1345.78+2037.93+1338.27+2037.93+1329.01C2037.93+1319.75+2030.56+1312.25+2021.46+1312.25Z" fill="#000000" stroke-linecap="butt" fill-opacity="0.97638" opacity="1" stroke-linejoin="round"/>
<path stroke="#000000" stroke-width="1" d="M2087.15+1312.25C2078.05+1312.25+2070.67+1319.75+2070.67+1329.01C2070.67+1338.27+2078.05+1345.78+2087.15+1345.78C2096.25+1345.78+2103.62+1338.27+2103.62+1329.01C2103.62+1319.75+2096.25+1312.25+2087.15+1312.25Z" fill="#000000" stroke-linecap="butt" fill-opacity="0.97638" opacity="1" stroke-linejoin="round"/>
<path stroke="#000000" stroke-width="1" d="M2152.84+1312.25C2143.74+1312.25+2136.36+1319.75+2136.36+1329.01C2136.36+1338.27+2143.74+1345.78+2152.84+1345.78C2161.94+1345.78+2169.31+1338.27+2169.31+1329.01C2169.31+1319.75+2161.94+1312.25+2152.84+1312.25Z" fill="#000000" stroke-linecap="butt" fill-opacity="0.97638" opacity="1" stroke-linejoin="round"/>
<path stroke="#000000" stroke-width="1" d="M2202.04+1329.01C2202.04+1319.75+2209.45+1312.25+2218.55+1312.25C2227.65+1312.25+2234.99+1319.75+2234.99+1329.01C2234.99+1338.27+2227.65+1345.76+2218.55+1345.76C2209.45+1345.76+2202.04+1338.27+2202.04+1329.01ZM2217.32+1337.39C2217.3+1337.89+2217.3+1338.23+2217.32+1338.43C2217.31+1338.55+2217.36+1338.54+2217.56+1338.99C2217.85+1339.21+2218.03+1339.01+2218.18+1339.05C2218.19+1339.09+2218.24+1339.21+2218.24+1339.23C2218.24+1339.17+2218.35+1339.11+2218.36+1339.05C2218.41+1339.04+2218.49+1339.07+2218.55+1339.05C2218.36+1339.32+2218.08+1339.58+2218.24+1339.91C2218.48+1340.4+2219.05+1340.59+2219.53+1340.34C2220.05+1340.08+2220.22+1339.67+2220.21+1339.17C2220.21+1339.01+2220.17+1339.14+2220.09+1338.56C2220.02+1338.06+2220.07+1337.79+2220.15+1337.51C2220.25+1337.13+2220.49+1336.78+2221.01+1336.52C2221.5+1336.28+2221.69+1335.72+2221.44+1335.23C2221.2+1334.74+2220.57+1334.55+2220.09+1334.8C2219.45+1335.11+2219.3+1335.68+2218.98+1336.15C2218.8+1335.89+2218.7+1335.54+2218.36+1335.54C2217.82+1335.54+2217.38+1335.98+2217.38+1336.52C2217.38+1336.58+2217.32+1337.26+2217.32+1337.39Z" fill="#000000" stroke-linecap="butt" fill-opacity="0.97638" opacity="1" stroke-linejoin="round"/>
<path stroke="#000000" stroke-width="1" d="M313.303+1327.74C316.902+1328.79+321.965+1327.24+324.564+1330.12C294.327+1375.28+380.564+1426.56+385.141+1373.31C392.686+1374.15+400.23+1374.99+407.775+1375.83C399.913+1473.71+247.818+1379.73+313.303+1327.74" fill="#cbc3c3" stroke-linecap="butt" opacity="1" stroke-linejoin="round"/>
<path stroke="#000000" stroke-width="1" d="M380.323+1327.74C383.922+1328.79+388.985+1327.24+391.584+1330.12C361.347+1375.28+447.584+1426.56+452.161+1373.31C459.705+1374.15+467.25+1374.99+474.794+1375.83C466.932+1473.71+314.838+1379.73+380.323+1327.74" fill="#cbc3c3" stroke-linecap="butt" opacity="1" stroke-linejoin="round"/>
<path stroke="#000000" stroke-width="1" d="M447.342+1327.74C450.942+1328.79+456.005+1327.24+458.603+1330.12C428.366+1375.28+514.603+1426.56+519.181+1373.31C526.725+1374.15+534.27+1374.99+541.814+1375.83C533.952+1473.71+381.857+1379.73+447.342+1327.74" fill="#cbc3c3" stroke-linecap="butt" opacity="1" stroke-linejoin="round"/>
<path stroke="#000000" stroke-width="1" d="M512.391+1327.74C515.99+1328.79+521.053+1327.24+523.652+1330.12C493.415+1375.28+579.652+1426.56+584.229+1373.31C591.774+1374.15+599.318+1374.99+606.862+1375.83C599.001+1473.71+446.906+1379.73+512.391+1327.74" fill="#cbc3c3" stroke-linecap="butt" opacity="1" stroke-linejoin="round"/>
<path stroke="#000000" stroke-width="1" d="M569.555+1327.74C573.154+1328.79+578.217+1327.24+580.816+1330.12C550.579+1375.28+636.816+1426.56+641.393+1373.31C648.937+1374.15+656.482+1374.99+664.026+1375.83C656.164+1473.71+504.07+1379.73+569.555+1327.74" fill="#cbc3c3" stroke-linecap="butt" opacity="1" stroke-linejoin="round"/>
<path stroke="#000000" stroke-width="1" d="M630.661+1327.74C634.26+1328.79+639.323+1327.24+641.922+1330.12C611.685+1375.28+697.922+1426.56+702.499+1373.31C710.043+1374.15+717.588+1374.99+725.132+1375.83C717.27+1473.71+565.176+1379.73+630.661+1327.74" fill="#cbc3c3" stroke-linecap="butt" opacity="1" stroke-linejoin="round"/>
<path stroke="#000000" stroke-width="1" d="M699.652+1327.74C703.251+1328.79+708.314+1327.24+710.913+1330.12C680.676+1375.28+766.913+1426.56+771.49+1373.31C779.034+1374.15+786.579+1374.99+794.123+1375.83C786.261+1473.71+634.166+1379.73+699.652+1327.74" fill="#cbc3c3" stroke-linecap="butt" opacity="1" stroke-linejoin="round"/>
<path stroke="#000000" stroke-width="1" d="M764.7+1327.74C768.299+1328.79+773.362+1327.24+775.961+1330.12C745.724+1375.28+831.961+1426.56+836.538+1373.31C844.083+1374.15+851.627+1374.99+859.172+1375.83C851.31+1473.71+699.215+1379.73+764.7+1327.74" fill="#cbc3c3" stroke-linecap="butt" opacity="1" stroke-linejoin="round"/>
<path stroke="#000000" stroke-width="1" d="M823.835+1327.74C827.434+1328.79+832.497+1327.24+835.096+1330.12C804.859+1375.28+891.096+1426.56+895.673+1373.31C903.218+1374.15+910.762+1374.99+918.307+1375.83C910.445+1473.71+758.35+1379.73+823.835+1327.74" fill="#cbc3c3" stroke-linecap="butt" opacity="1" stroke-linejoin="round"/>
<path stroke="#000000" stroke-width="1" d="M888.883+1327.74C892.483+1328.79+897.546+1327.24+900.144+1330.12C869.907+1375.28+956.144+1426.56+960.722+1373.31C968.266+1374.15+975.811+1374.99+983.355+1375.83C975.493+1473.71+823.398+1379.73+888.883+1327.74" fill="#cbc3c3" stroke-linecap="butt" opacity="1" stroke-linejoin="round"/>
<path stroke="#000000" stroke-width="1" d="M959.845+1327.74C963.445+1328.79+968.508+1327.24+971.106+1330.12C940.869+1375.28+1027.11+1426.56+1031.68+1373.31C1039.23+1374.15+1046.77+1374.99+1054.32+1375.83C1046.46+1473.71+894.36+1379.73+959.845+1327.74" fill="#cbc3c3" stroke-linecap="butt" opacity="1" stroke-linejoin="round"/>
<path stroke="#000000" stroke-width="1" d="M1022.92+1327.74C1026.52+1328.79+1031.58+1327.24+1034.18+1330.12C1003.95+1375.28+1090.18+1426.56+1094.76+1373.31C1102.31+1374.15+1109.85+1374.99+1117.39+1375.83C1109.53+1473.71+957.438+1379.73+1022.92+1327.74" fill="#cbc3c3" stroke-linecap="butt" opacity="1" stroke-linejoin="round"/>
<path stroke="#000000" stroke-width="1" d="M1091.91+1327.74C1095.51+1328.79+1100.58+1327.24+1103.17+1330.12C1072.94+1375.28+1159.17+1426.56+1163.75+1373.31C1171.3+1374.15+1178.84+1374.99+1186.39+1375.83C1178.52+1473.71+1026.43+1379.73+1091.91+1327.74" fill="#cbc3c3" stroke-linecap="butt" opacity="1" stroke-linejoin="round"/>
<path stroke="#000000" stroke-width="1" d="M1154.99+1327.74C1158.59+1328.79+1163.65+1327.24+1166.25+1330.12C1136.01+1375.28+1222.25+1426.56+1226.83+1373.31C1234.37+1374.15+1241.92+1374.99+1249.46+1375.83C1241.6+1473.71+1089.51+1379.73+1154.99+1327.74" fill="#cbc3c3" stroke-linecap="butt" opacity="1" stroke-linejoin="round"/>
<path stroke="#000000" stroke-width="1" d="M1223.98+1327.74C1227.58+1328.79+1232.64+1327.24+1235.24+1330.12C1205.01+1375.28+1291.24+1426.56+1295.82+1373.31C1303.36+1374.15+1310.91+1374.99+1318.45+1375.83C1310.59+1473.71+1158.5+1379.73+1223.98+1327.74" fill="#cbc3c3" stroke-linecap="butt" opacity="1" stroke-linejoin="round"/>
<path stroke="#000000" stroke-width="1" d="M1291+1327.74C1294.6+1328.79+1299.66+1327.24+1302.26+1330.12C1272.03+1375.28+1358.26+1426.56+1362.84+1373.31C1370.38+1374.15+1377.93+1374.99+1385.47+1375.83C1377.61+1473.71+1225.52+1379.73+1291+1327.74" fill="#cbc3c3" stroke-linecap="butt" opacity="1" stroke-linejoin="round"/>
<path stroke="#000000" stroke-width="1" d="M1352.11+1327.74C1355.71+1328.79+1360.77+1327.24+1363.37+1330.12C1333.13+1375.28+1419.37+1426.56+1423.95+1373.31C1431.49+1374.15+1439.03+1374.99+1446.58+1375.83C1438.72+1473.71+1286.62+1379.73+1352.11+1327.74" fill="#cbc3c3" stroke-linecap="butt" opacity="1" stroke-linejoin="round"/>
<path stroke="#000000" stroke-width="1" d="M1421.1+1327.74C1424.7+1328.79+1429.76+1327.24+1432.36+1330.12C1402.12+1375.28+1488.36+1426.56+1492.94+1373.31C1500.48+1374.15+1508.03+1374.99+1515.57+1375.83C1507.71+1473.71+1355.61+1379.73+1421.1+1327.74" fill="#cbc3c3" stroke-linecap="butt" opacity="1" stroke-linejoin="round"/>
<path stroke="#000000" stroke-width="1" d="M1490.09+1327.74C1493.69+1328.79+1498.75+1327.24+1501.35+1330.12C1471.11+1375.28+1557.35+1426.56+1561.93+1373.31C1569.47+1374.15+1577.02+1374.99+1584.56+1375.83C1576.7+1473.71+1424.6+1379.73+1490.09+1327.74" fill="#cbc3c3" stroke-linecap="butt" opacity="1" stroke-linejoin="round"/>
<path stroke="#000000" stroke-width="1" d="M1559.08+1327.74C1562.68+1328.79+1567.74+1327.24+1570.34+1330.12C1540.1+1375.28+1626.34+1426.56+1630.92+1373.31C1638.46+1374.15+1646.01+1374.99+1653.55+1375.83C1645.69+1473.71+1493.59+1379.73+1559.08+1327.74" fill="#cbc3c3" stroke-linecap="butt" opacity="1" stroke-linejoin="round"/>
<path stroke="#000000" stroke-width="1" d="M1626.1+1327.74C1629.7+1328.79+1634.76+1327.24+1637.36+1330.12C1607.12+1375.28+1693.36+1426.56+1697.94+1373.31C1705.48+1374.15+1713.03+1374.99+1720.57+1375.83C1712.71+1473.71+1560.61+1379.73+1626.1+1327.74" fill="#cbc3c3" stroke-linecap="butt" opacity="1" stroke-linejoin="round"/>
<path stroke="#000000" stroke-width="1" d="M1687.21+1327.74C1690.8+1328.79+1695.87+1327.24+1698.47+1330.12C1668.23+1375.28+1754.47+1426.56+1759.04+1373.31C1766.59+1374.15+1774.13+1374.99+1781.68+1375.83C1773.82+1473.71+1621.72+1379.73+1687.21+1327.74" fill="#cbc3c3" stroke-linecap="butt" opacity="1" stroke-linejoin="round"/>
<path stroke="#000000" stroke-width="1" d="M1752.25+1327.74C1755.85+1328.79+1760.92+1327.24+1763.51+1330.12C1733.28+1375.28+1819.51+1426.56+1824.09+1373.31C1831.64+1374.15+1839.18+1374.99+1846.73+1375.83C1838.86+1473.71+1686.77+1379.73+1752.25+1327.74" fill="#cbc3c3" stroke-linecap="butt" opacity="1" stroke-linejoin="round"/>
<path stroke="#000000" stroke-width="1" d="M1817.3+1327.74C1820.9+1328.79+1825.96+1327.24+1828.56+1330.12C1798.33+1375.28+1884.56+1426.56+1889.14+1373.31C1896.68+1374.15+1904.23+1374.99+1911.77+1375.83C1903.91+1473.71+1751.82+1379.73+1817.3+1327.74" fill="#cbc3c3" stroke-linecap="butt" opacity="1" stroke-linejoin="round"/>
<path stroke="#000000" stroke-width="1" d="M1890.24+1327.74C1893.83+1328.79+1898.9+1327.24+1901.5+1330.12C1871.26+1375.28+1957.5+1426.56+1962.07+1373.31C1969.62+1374.15+1977.16+1374.99+1984.71+1375.83C1976.85+1473.71+1824.75+1379.73+1890.24+1327.74" fill="#cbc3c3" stroke-linecap="butt" opacity="1" stroke-linejoin="round"/>
<path stroke="#000000" stroke-width="1" d="M1953.31+1327.74C1956.91+1328.79+1961.97+1327.24+1964.57+1330.12C1934.34+1375.28+2020.57+1426.56+2025.15+1373.31C2032.7+1374.15+2040.24+1374.99+2047.78+1375.83C2039.92+1473.71+1887.83+1379.73+1953.31+1327.74" fill="#cbc3c3" stroke-linecap="butt" opacity="1" stroke-linejoin="round"/>
<path stroke="#000000" stroke-width="1" d="M2018.36+1327.74C2021.96+1328.79+2027.02+1327.24+2029.62+1330.12C1999.39+1375.28+2085.62+1426.56+2090.2+1373.31C2097.74+1374.15+2105.29+1374.99+2112.83+1375.83C2104.97+1473.71+1952.88+1379.73+2018.36+1327.74" fill="#cbc3c3" stroke-linecap="butt" opacity="1" stroke-linejoin="round"/>
<path stroke="#000000" stroke-width="1" d="M2085.38+1327.74C2088.98+1328.79+2094.04+1327.24+2096.64+1330.12C2066.4+1375.28+2152.64+1426.56+2157.22+1373.31C2164.76+1374.15+2172.31+1374.99+2179.85+1375.83C2171.99+1473.71+2019.9+1379.73+2085.38+1327.74" fill="#cbc3c3" stroke-linecap="butt" opacity="1" stroke-linejoin="round"/>
<path stroke="#000000" stroke-width="1" d="M2146.49+1327.74C2150.09+1328.79+2155.15+1327.24+2157.75+1330.12C2127.51+1375.28+2213.75+1426.56+2218.33+1373.31C2225.87+1374.15+2233.41+1374.99+2240.96+1375.83C2233.1+1473.71+2081+1379.73+2146.49+1327.74" fill="#cbc3c3" stroke-linecap="butt" opacity="1" stroke-linejoin="round"/>
<path stroke="#000000" stroke-width="1" d="M2219.49+1367.19C2219.49+1368.18+2219.05+1375.71+2219.05+1372.21" fill="#cbc3c3" stroke-linecap="butt" opacity="1" stroke-linejoin="round"/>
<path stroke="#000000" stroke-width="1" d="M2224.81+1329.96C2208.73+1340.59+2247.48+1393.04+2201.7+1391.26C2195.78+1366.83+2199.5+1295.97+2224.81+1329.96" fill="#d0caca" stroke-linecap="butt" opacity="1" stroke-linejoin="round"/>
</g>
</svg>
