<?xml version="1.0" encoding="UTF-8" standalone="no"?> <!-- Created with Vectornator for iOS (http://vectornator.io/) --><!DOCTYPE svg PUBLIC "-//W3C//DTD SVG 1.1//EN" "http://www.w3.org/Graphics/SVG/1.1/DTD/svg11.dtd">
<svg style="fill-rule:evenodd;clip-rule:evenodd;stroke-linecap:round;stroke-linejoin:round;" xmlns:vectornator="http://vectornator.io" xmlns:xlink="http://www.w3.org/1999/xlink" xmlns="http://www.w3.org/2000/svg" xml:space="preserve" version="1.1" viewBox="0 0 12000 16000">
<metadata>
<vectornator:setting key="DimensionsVisible" value="1"/>
<vectornator:setting key="SnapToGrid" value="0"/>
<vectornator:setting key="SnapToPoints" value="0"/>
<vectornator:setting key="GuidesVisible" value="1"/>
<vectornator:setting key="RulersVisible" value="1"/>
<vectornator:setting key="CMYKEnabledKey" value="0"/>
<vectornator:setting key="SnapToEdges" value="0"/>
<vectornator:setting key="DisplayWhiteBackground" value="0"/>
<vectornator:setting key="SnapToGuides" value="1"/>
<vectornator:setting key="GridSpacing" value="36"/>
<vectornator:setting key="Units" value="Pixels"/>
<vectornator:setting key="DynamicGuides" value="0"/>
<vectornator:setting key="New" value="1"/>
</metadata>
<defs/>
<g id="レイヤー 1" vectornator:layerName="レイヤー 1">
<path stroke="#000000" stroke-width="1" d="M5504.51+6312.84C5502.02+6312.84+5500.02+6314.85+5500.02+6317.33L5500.02+8342.03C5500.02+8344.51+5502.02+8346.52+5504.51+8346.52L6853.28+8346.52C6855.78+8346.52+6857.78+8344.51+6857.78+8342.03L6857.78+6317.33C6857.78+6314.85+6855.78+6312.84+6853.28+6312.84L5504.51+6312.84ZM6820.2+8272.85C6820.71+8272.83+6821.05+8272.83+6821.25+8272.85C6821.37+8272.85+6821.36+8272.89+6821.81+8273.1C6822.03+8273.39+6821.83+8273.57+6821.87+8273.71C6821.91+8273.72+6822.03+8273.77+6822.05+8273.78C6821.99+8273.77+6821.93+8273.88+6821.87+8273.9C6821.86+8273.94+6821.89+8274.03+6821.87+8274.08C6822.14+8273.9+6822.4+8273.61+6822.73+8273.78C6823.22+8274.02+6823.4+8274.58+6823.16+8275.07C6822.9+8275.59+6822.49+8275.76+6821.99+8275.75C6821.83+8275.74+6821.96+8275.7+6821.37+8275.62C6820.88+8275.56+6820.61+8275.61+6820.33+8275.68C6819.95+8275.78+6819.6+8276.02+6819.34+8276.55C6819.1+8277.03+6818.53+8277.22+6818.05+8276.98C6817.56+8276.73+6817.37+8276.11+6817.62+8275.62C6817.93+8274.99+6818.5+8274.83+6818.97+8274.51C6818.71+8274.34+6818.36+8274.24+6818.36+8273.9C6818.36+8273.35+6818.8+8272.91+6819.34+8272.91C6819.4+8272.91+6820.08+8272.86+6820.2+8272.85Z" fill="#ffffff" stroke-linecap="butt" opacity="1" stroke-linejoin="round"/>
<path stroke="#000000" stroke-width="1" d="M6795.07+6370.85C6795.07+6361.75+6802.57+6354.38+6811.83+6354.38C6821.09+6354.38+6828.6+6361.75+6828.6+6370.85C6828.6+6379.95+6821.09+6387.33+6811.83+6387.33C6802.57+6387.33+6795.07+6379.95+6795.07+6370.85Z" fill="#000000" stroke-linecap="butt" fill-opacity="0.97638" opacity="1" stroke-linejoin="round"/>
<path stroke="#000000" stroke-width="1" d="M6795.07+6436.93C6795.07+6427.83+6802.57+6420.45+6811.83+6420.45C6821.09+6420.45+6828.6+6427.83+6828.6+6436.92C6828.6+6446.02+6821.09+6453.4+6811.83+6453.4C6802.57+6453.4+6795.07+6446.02+6795.07+6436.93Z" fill="#000000" stroke-linecap="butt" fill-opacity="0.97638" opacity="1" stroke-linejoin="round"/>
<path stroke="#000000" stroke-width="1" d="M6795.07+6502.61C6795.07+6493.51+6802.57+6486.14+6811.83+6486.14C6821.09+6486.14+6828.6+6493.51+6828.6+6502.61C6828.6+6511.71+6821.09+6519.09+6811.83+6519.09C6802.57+6519.09+6795.07+6511.71+6795.07+6502.61Z" fill="#000000" stroke-linecap="butt" fill-opacity="0.97638" opacity="1" stroke-linejoin="round"/>
<path stroke="#000000" stroke-width="1" d="M6795.07+6568.3C6795.07+6559.2+6802.57+6551.83+6811.83+6551.83C6821.09+6551.83+6828.6+6559.2+6828.6+6568.3C6828.6+6577.4+6821.09+6584.78+6811.83+6584.78C6802.57+6584.78+6795.07+6577.4+6795.07+6568.3Z" fill="#000000" stroke-linecap="butt" fill-opacity="0.97638" opacity="1" stroke-linejoin="round"/>
<path stroke="#000000" stroke-width="1" d="M6791.8+6626.59C6791.8+6617.49+6799.3+6610.12+6808.56+6610.12C6817.82+6610.12+6825.32+6617.49+6825.32+6626.59C6825.32+6635.69+6817.82+6643.06+6808.56+6643.06C6799.3+6643.06+6791.8+6635.69+6791.8+6626.59Z" fill="#000000" stroke-linecap="butt" fill-opacity="0.97638" opacity="1" stroke-linejoin="round"/>
<path stroke="#000000" stroke-width="1" d="M6791.8+6692.28C6791.8+6683.18+6799.3+6675.8+6808.56+6675.8C6817.82+6675.8+6825.32+6683.18+6825.32+6692.28C6825.32+6701.38+6817.82+6708.75+6808.56+6708.75C6799.3+6708.75+6791.8+6701.38+6791.8+6692.28Z" fill="#000000" stroke-linecap="butt" fill-opacity="0.97638" opacity="1" stroke-linejoin="round"/>
<path stroke="#000000" stroke-width="1" d="M6791.8+6757.97C6791.8+6748.87+6799.3+6741.49+6808.56+6741.49C6817.82+6741.49+6825.32+6748.87+6825.32+6757.97C6825.32+6767.07+6817.82+6774.44+6808.56+6774.44C6799.3+6774.44+6791.8+6767.07+6791.8+6757.97Z" fill="#000000" stroke-linecap="butt" fill-opacity="0.97638" opacity="1" stroke-linejoin="round"/>
<path stroke="#000000" stroke-width="1" d="M6791.8+6823.66C6791.8+6814.56+6799.3+6807.18+6808.56+6807.18C6817.82+6807.18+6825.32+6814.56+6825.32+6823.66C6825.32+6832.75+6817.82+6840.13+6808.56+6840.13C6799.3+6840.13+6791.8+6832.75+6791.8+6823.66Z" fill="#000000" stroke-linecap="butt" fill-opacity="0.97638" opacity="1" stroke-linejoin="round"/>
<path stroke="#000000" stroke-width="1" d="M6791.8+7414.85C6791.8+7405.75+6799.3+7398.38+6808.56+7398.38C6817.82+7398.38+6825.32+7405.75+6825.32+7414.85C6825.32+7423.95+6817.82+7431.33+6808.56+7431.33C6799.3+7431.33+6791.8+7423.95+6791.8+7414.85Z" fill="#000000" stroke-linecap="butt" fill-opacity="0.97638" opacity="1" stroke-linejoin="round"/>
<path stroke="#000000" stroke-width="1" d="M6791.8+6888.43C6791.8+6879.33+6799.3+6871.96+6808.56+6871.96C6817.82+6871.96+6825.32+6879.33+6825.32+6888.43C6825.32+6897.53+6817.82+6904.91+6808.56+6904.91C6799.3+6904.91+6791.8+6897.53+6791.8+6888.43Z" fill="#000000" stroke-linecap="butt" fill-opacity="0.97638" opacity="1" stroke-linejoin="round"/>
<path stroke="#000000" stroke-width="1" d="M6791.8+6954.12C6791.8+6945.02+6799.3+6937.64+6808.56+6937.64C6817.82+6937.64+6825.32+6945.02+6825.32+6954.12C6825.32+6963.22+6817.82+6970.59+6808.56+6970.59C6799.3+6970.59+6791.8+6963.22+6791.8+6954.12Z" fill="#000000" stroke-linecap="butt" fill-opacity="0.97638" opacity="1" stroke-linejoin="round"/>
<path stroke="#000000" stroke-width="1" d="M6791.8+7019.81C6791.8+7010.71+6799.3+7003.33+6808.56+7003.33C6817.82+7003.33+6825.32+7010.71+6825.32+7019.81C6825.32+7028.91+6817.82+7036.28+6808.56+7036.28C6799.3+7036.28+6791.8+7028.91+6791.8+7019.81Z" fill="#000000" stroke-linecap="butt" fill-opacity="0.97638" opacity="1" stroke-linejoin="round"/>
<path stroke="#000000" stroke-width="1" d="M6791.8+7085.5C6791.8+7076.4+6799.3+7069.02+6808.56+7069.02C6817.82+7069.02+6825.32+7076.4+6825.32+7085.5C6825.32+7094.59+6817.82+7101.97+6808.56+7101.97C6799.3+7101.97+6791.8+7094.59+6791.8+7085.5Z" fill="#000000" stroke-linecap="butt" fill-opacity="0.97638" opacity="1" stroke-linejoin="round"/>
<path stroke="#000000" stroke-width="1" d="M6791.8+7151.18C6791.8+7142.09+6799.3+7134.71+6808.56+7134.71C6817.82+7134.71+6825.32+7142.09+6825.32+7151.18C6825.32+7160.28+6817.82+7167.66+6808.56+7167.66C6799.3+7167.66+6791.8+7160.28+6791.8+7151.18Z" fill="#000000" stroke-linecap="butt" fill-opacity="0.97638" opacity="1" stroke-linejoin="round"/>
<path stroke="#000000" stroke-width="1" d="M6791.8+7216.87C6791.8+7207.77+6799.3+7200.4+6808.56+7200.4C6817.82+7200.4+6825.32+7207.77+6825.32+7216.87C6825.32+7225.97+6817.82+7233.35+6808.56+7233.35C6799.3+7233.35+6791.8+7225.97+6791.8+7216.87Z" fill="#000000" stroke-linecap="butt" fill-opacity="0.97638" opacity="1" stroke-linejoin="round"/>
<path stroke="#000000" stroke-width="1" d="M6791.8+7282.56C6791.8+7273.46+6799.3+7266.09+6808.56+7266.09C6817.82+7266.09+6825.32+7273.46+6825.32+7282.56C6825.32+7291.66+6817.82+7299.04+6808.56+7299.04C6799.3+7299.04+6791.8+7291.66+6791.8+7282.56Z" fill="#000000" stroke-linecap="butt" fill-opacity="0.97638" opacity="1" stroke-linejoin="round"/>
<path stroke="#000000" stroke-width="1" d="M6791.8+7348.25C6791.8+7339.15+6799.3+7331.78+6808.56+7331.78C6817.82+7331.78+6825.32+7339.15+6825.32+7348.25C6825.32+7357.35+6817.82+7364.73+6808.56+7364.73C6799.3+7364.73+6791.8+7357.35+6791.8+7348.25Z" fill="#000000" stroke-linecap="butt" fill-opacity="0.97638" opacity="1" stroke-linejoin="round"/>
<path stroke="#000000" stroke-width="1" d="M6791.8+7479.63C6791.8+7470.53+6799.3+7463.15+6808.56+7463.15C6817.82+7463.15+6825.32+7470.53+6825.32+7479.63C6825.32+7488.73+6817.82+7496.1+6808.56+7496.1C6799.3+7496.1+6791.8+7488.73+6791.8+7479.63Z" fill="#000000" stroke-linecap="butt" fill-opacity="0.97638" opacity="1" stroke-linejoin="round"/>
<path stroke="#000000" stroke-width="1" d="M6796.28+7554.12C6796.28+7545.02+6803.78+7537.64+6813.04+7537.64C6822.3+7537.64+6829.81+7545.02+6829.81+7554.12C6829.81+7563.21+6822.3+7570.59+6813.04+7570.59C6803.78+7570.59+6796.28+7563.21+6796.28+7554.12Z" fill="#000000" stroke-linecap="butt" fill-opacity="0.97638" opacity="1" stroke-linejoin="round"/>
<path stroke="#000000" stroke-width="1" d="M6796.28+7619.8C6796.28+7610.71+6803.78+7603.33+6813.04+7603.33C6822.3+7603.33+6829.81+7610.71+6829.81+7619.8C6829.81+7628.9+6822.3+7636.28+6813.04+7636.28C6803.78+7636.28+6796.28+7628.9+6796.28+7619.8Z" fill="#000000" stroke-linecap="butt" fill-opacity="0.97638" opacity="1" stroke-linejoin="round"/>
<path stroke="#000000" stroke-width="1" d="M6796.28+7685.49C6796.28+7676.39+6803.78+7669.02+6813.04+7669.02C6822.3+7669.02+6829.81+7676.39+6829.81+7685.49C6829.81+7694.59+6822.3+7701.97+6813.04+7701.97C6803.78+7701.97+6796.28+7694.59+6796.28+7685.49Z" fill="#000000" stroke-linecap="butt" fill-opacity="0.97638" opacity="1" stroke-linejoin="round"/>
<path stroke="#000000" stroke-width="1" d="M6796.28+7751.18C6796.28+7742.08+6803.78+7734.71+6813.04+7734.71C6822.3+7734.71+6829.81+7742.08+6829.81+7751.18C6829.81+7760.28+6822.3+7767.66+6813.04+7767.66C6803.78+7767.66+6796.28+7760.28+6796.28+7751.18Z" fill="#000000" stroke-linecap="butt" fill-opacity="0.97638" opacity="1" stroke-linejoin="round"/>
<path stroke="#000000" stroke-width="1" d="M6795.07+7815.47C6795.07+7806.37+6802.57+7799+6811.83+7799C6821.09+7799+6828.6+7806.37+6828.6+7815.47C6828.6+7824.57+6821.09+7831.95+6811.83+7831.95C6802.57+7831.95+6795.07+7824.57+6795.07+7815.47Z" fill="#ffffff" stroke-linecap="butt" opacity="1" stroke-linejoin="round"/>
<path stroke="#000000" stroke-width="1" d="M6795.07+7881.16C6795.07+7872.06+6802.57+7864.68+6811.83+7864.68C6821.09+7864.68+6828.6+7872.06+6828.6+7881.16C6828.6+7890.26+6821.09+7897.63+6811.83+7897.63C6802.57+7897.63+6795.07+7890.26+6795.07+7881.16Z" fill="#ffffff" stroke-linecap="butt" opacity="1" stroke-linejoin="round"/>
<path stroke="#000000" stroke-width="1" d="M6795.07+7946.85C6795.07+7937.75+6802.57+7930.37+6811.83+7930.37C6821.09+7930.37+6828.6+7937.75+6828.6+7946.85C6828.6+7955.95+6821.09+7963.32+6811.83+7963.32C6802.57+7963.32+6795.07+7955.95+6795.07+7946.85Z" fill="#ffffff" stroke-linecap="butt" opacity="1" stroke-linejoin="round"/>
<path stroke="#000000" stroke-width="1" d="M6796.28+7815.64C6796.28+7806.54+6803.78+7799.17+6813.04+7799.17C6822.3+7799.17+6829.81+7806.54+6829.81+7815.64C6829.81+7824.74+6822.3+7832.12+6813.04+7832.12C6803.78+7832.12+6796.28+7824.74+6796.28+7815.64Z" fill="#000000" stroke-linecap="butt" fill-opacity="0.97638" opacity="1" stroke-linejoin="round"/>
<path stroke="#000000" stroke-width="1" d="M6796.28+7881.33C6796.28+7872.23+6803.78+7864.85+6813.04+7864.85C6822.3+7864.85+6829.81+7872.23+6829.81+7881.33C6829.81+7890.43+6822.3+7897.8+6813.04+7897.8C6803.78+7897.8+6796.28+7890.43+6796.28+7881.33Z" fill="#000000" stroke-linecap="butt" fill-opacity="0.97638" opacity="1" stroke-linejoin="round"/>
<path stroke="#000000" stroke-width="1" d="M6796.28+7947.02C6796.28+7937.92+6803.78+7930.54+6813.04+7930.54C6822.3+7930.54+6829.81+7937.92+6829.81+7947.02C6829.81+7956.12+6822.3+7963.49+6813.04+7963.49C6803.78+7963.49+6796.28+7956.12+6796.28+7947.02Z" fill="#000000" stroke-linecap="butt" fill-opacity="0.97638" opacity="1" stroke-linejoin="round"/>
<path stroke="#000000" stroke-width="1" d="M6796.28+8012.71C6796.28+8003.61+6803.78+7996.23+6813.04+7996.23C6822.3+7996.23+6829.81+8003.61+6829.81+8012.71C6829.81+8021.8+6822.3+8029.18+6813.04+8029.18C6803.78+8029.18+6796.28+8021.81+6796.28+8012.71Z" fill="#000000" stroke-linecap="butt" fill-opacity="0.97638" opacity="1" stroke-linejoin="round"/>
<path stroke="#000000" stroke-width="1" d="M6795.07+8077C6795.07+8067.9+6802.57+8060.52+6811.83+8060.52C6821.09+8060.52+6828.6+8067.9+6828.6+8077C6828.6+8086.09+6821.09+8093.47+6811.83+8093.47C6802.57+8093.47+6795.07+8086.09+6795.07+8077Z" fill="#000000" stroke-linecap="butt" fill-opacity="0.97638" opacity="1" stroke-linejoin="round"/>
<path stroke="#000000" stroke-width="1" d="M6795.07+8142.68C6795.07+8133.59+6802.57+8126.21+6811.83+8126.21C6821.09+8126.21+6828.6+8133.59+6828.6+8142.68C6828.6+8151.78+6821.09+8159.16+6811.83+8159.16C6802.57+8159.16+6795.07+8151.78+6795.07+8142.68Z" fill="#000000" stroke-linecap="butt" fill-opacity="0.97638" opacity="1" stroke-linejoin="round"/>
<path stroke="#000000" stroke-width="1" d="M6795.07+8208.37C6795.07+8199.27+6802.57+8191.9+6811.83+8191.9C6821.09+8191.9+6828.6+8199.27+6828.6+8208.37C6828.6+8217.47+6821.09+8224.85+6811.83+8224.85C6802.57+8224.85+6795.07+8217.47+6795.07+8208.37Z" fill="#000000" stroke-linecap="butt" fill-opacity="0.97638" opacity="1" stroke-linejoin="round"/>
<path stroke="#000000" stroke-width="1" d="M6811.83+8257.57C6802.57+8257.57+6795.07+8264.98+6795.07+8274.08C6795.07+8283.18+6802.57+8290.53+6811.83+8290.53C6821.09+8290.53+6828.58+8283.18+6828.58+8274.08C6828.58+8264.98+6821.09+8257.57+6811.83+8257.57ZM6820.2+8272.85C6820.71+8272.83+6821.05+8272.83+6821.25+8272.85C6821.37+8272.85+6821.36+8272.89+6821.81+8273.1C6822.03+8273.39+6821.83+8273.57+6821.87+8273.71C6821.91+8273.72+6822.03+8273.77+6822.05+8273.78C6821.99+8273.77+6821.93+8273.88+6821.87+8273.9C6821.86+8273.94+6821.89+8274.03+6821.87+8274.08C6822.14+8273.9+6822.4+8273.61+6822.73+8273.78C6823.22+8274.02+6823.4+8274.58+6823.16+8275.07C6822.9+8275.59+6822.49+8275.76+6821.99+8275.75C6821.83+8275.74+6821.96+8275.7+6821.37+8275.62C6820.88+8275.56+6820.61+8275.61+6820.33+8275.68C6819.95+8275.78+6819.6+8276.02+6819.34+8276.55C6819.1+8277.03+6818.53+8277.22+6818.05+8276.98C6817.56+8276.73+6817.37+8276.11+6817.62+8275.62C6817.93+8274.99+6818.5+8274.83+6818.97+8274.51C6818.71+8274.34+6818.36+8274.24+6818.36+8273.9C6818.36+8273.35+6818.8+8272.91+6819.34+8272.91C6819.4+8272.91+6820.08+8272.86+6820.2+8272.85Z" fill="#000000" stroke-linecap="butt" fill-opacity="0.97638" opacity="1" stroke-linejoin="round"/>
<path stroke="#000000" stroke-width="1" d="M6810.56+6368.84C6811.61+6372.44+6810.05+6377.5+6812.93+6380.1C6858.1+6349.86+6909.38+6436.1+6856.13+6440.68C6856.97+6448.22+6857.81+6455.77+6858.64+6463.31C6956.53+6455.45+6862.54+6303.35+6810.56+6368.84" fill="#cbc3c3" stroke-linecap="butt" opacity="1" stroke-linejoin="round"/>
<path stroke="#000000" stroke-width="1" d="M6810.56+6435.86C6811.61+6439.46+6810.05+6444.52+6812.93+6447.12C6858.1+6416.88+6909.38+6503.12+6856.13+6507.7C6856.97+6515.24+6857.81+6522.79+6858.64+6530.33C6956.53+6522.47+6862.54+6370.37+6810.56+6435.86" fill="#cbc3c3" stroke-linecap="butt" opacity="1" stroke-linejoin="round"/>
<path stroke="#000000" stroke-width="1" d="M6810.56+6502.88C6811.61+6506.48+6810.05+6511.54+6812.93+6514.14C6858.1+6483.9+6909.38+6570.14+6856.13+6574.72C6856.97+6582.26+6857.81+6589.81+6858.64+6597.35C6956.53+6589.49+6862.54+6437.39+6810.56+6502.88" fill="#cbc3c3" stroke-linecap="butt" opacity="1" stroke-linejoin="round"/>
<path stroke="#000000" stroke-width="1" d="M6810.56+6567.93C6811.61+6571.53+6810.05+6576.59+6812.93+6579.19C6858.1+6548.95+6909.38+6635.19+6856.13+6639.77C6856.97+6647.31+6857.81+6654.85+6858.64+6662.4C6956.53+6654.54+6862.54+6502.44+6810.56+6567.93" fill="#cbc3c3" stroke-linecap="butt" opacity="1" stroke-linejoin="round"/>
<path stroke="#000000" stroke-width="1" d="M6810.56+6625.09C6811.61+6628.69+6810.05+6633.75+6812.93+6636.35C6858.1+6606.11+6909.38+6692.35+6856.13+6696.93C6856.97+6704.47+6857.81+6712.02+6858.64+6719.56C6956.53+6711.7+6862.54+6559.61+6810.56+6625.09" fill="#cbc3c3" stroke-linecap="butt" opacity="1" stroke-linejoin="round"/>
<path stroke="#000000" stroke-width="1" d="M6810.56+6686.2C6811.61+6689.8+6810.05+6694.86+6812.93+6697.46C6858.1+6667.22+6909.38+6753.46+6856.13+6758.04C6856.97+6765.58+6857.81+6773.12+6858.64+6780.67C6956.53+6772.81+6862.54+6620.71+6810.56+6686.2" fill="#cbc3c3" stroke-linecap="butt" opacity="1" stroke-linejoin="round"/>
<path stroke="#000000" stroke-width="1" d="M6810.56+6755.19C6811.61+6758.79+6810.05+6763.85+6812.93+6766.45C6858.1+6736.21+6909.38+6822.45+6856.13+6827.03C6856.97+6834.57+6857.81+6842.11+6858.64+6849.66C6956.53+6841.8+6862.54+6689.7+6810.56+6755.19" fill="#cbc3c3" stroke-linecap="butt" opacity="1" stroke-linejoin="round"/>
<path stroke="#000000" stroke-width="1" d="M6810.56+6820.24C6811.61+6823.84+6810.05+6828.9+6812.93+6831.5C6858.1+6801.26+6909.38+6887.5+6856.13+6892.07C6856.97+6899.62+6857.81+6907.16+6858.64+6914.71C6956.53+6906.85+6862.54+6754.75+6810.56+6820.24" fill="#cbc3c3" stroke-linecap="butt" opacity="1" stroke-linejoin="round"/>
<path stroke="#000000" stroke-width="1" d="M6810.56+6879.37C6811.61+6882.97+6810.05+6888.03+6812.93+6890.63C6858.1+6860.4+6909.38+6946.63+6856.13+6951.21C6856.97+6958.75+6857.81+6966.3+6858.64+6973.84C6956.53+6965.98+6862.54+6813.89+6810.56+6879.37" fill="#cbc3c3" stroke-linecap="butt" opacity="1" stroke-linejoin="round"/>
<path stroke="#000000" stroke-width="1" d="M6810.56+6944.42C6811.61+6948.02+6810.05+6953.08+6812.93+6955.68C6858.1+6925.44+6909.38+7011.68+6856.13+7016.26C6856.97+7023.8+6857.81+7031.35+6858.64+7038.89C6956.53+7031.03+6862.54+6878.93+6810.56+6944.42" fill="#cbc3c3" stroke-linecap="butt" opacity="1" stroke-linejoin="round"/>
<path stroke="#000000" stroke-width="1" d="M6810.56+7015.38C6811.61+7018.98+6810.05+7024.04+6812.93+7026.64C6858.1+6996.41+6909.38+7082.64+6856.13+7087.22C6856.97+7094.76+6857.81+7102.31+6858.64+7109.85C6956.53+7101.99+6862.54+6949.9+6810.56+7015.38" fill="#cbc3c3" stroke-linecap="butt" opacity="1" stroke-linejoin="round"/>
<path stroke="#000000" stroke-width="1" d="M6810.56+7078.46C6811.61+7082.06+6810.05+7087.12+6812.93+7089.72C6858.1+7059.48+6909.38+7145.72+6856.13+7150.3C6856.97+7157.84+6857.81+7165.39+6858.64+7172.93C6956.53+7165.07+6862.54+7012.97+6810.56+7078.46" fill="#cbc3c3" stroke-linecap="butt" opacity="1" stroke-linejoin="round"/>
<path stroke="#000000" stroke-width="1" d="M6810.56+7147.45C6811.61+7151.05+6810.05+7156.11+6812.93+7158.71C6858.1+7128.47+6909.38+7214.71+6856.13+7219.29C6856.97+7226.83+6857.81+7234.38+6858.64+7241.92C6956.53+7234.06+6862.54+7081.96+6810.56+7147.45" fill="#cbc3c3" stroke-linecap="butt" opacity="1" stroke-linejoin="round"/>
<path stroke="#000000" stroke-width="1" d="M6810.56+7210.53C6811.61+7214.13+6810.05+7219.19+6812.93+7221.79C6858.1+7191.55+6909.38+7277.79+6856.13+7282.37C6856.97+7289.91+6857.81+7297.45+6858.64+7305C6956.53+7297.14+6862.54+7145.04+6810.56+7210.53" fill="#cbc3c3" stroke-linecap="butt" opacity="1" stroke-linejoin="round"/>
<path stroke="#000000" stroke-width="1" d="M6810.56+7279.52C6811.61+7283.12+6810.05+7288.18+6812.93+7290.78C6858.1+7260.54+6909.38+7346.78+6856.13+7351.36C6856.97+7358.9+6857.81+7366.44+6858.64+7373.99C6956.53+7366.13+6862.54+7214.03+6810.56+7279.52" fill="#cbc3c3" stroke-linecap="butt" opacity="1" stroke-linejoin="round"/>
<path stroke="#000000" stroke-width="1" d="M6810.56+7346.54C6811.61+7350.14+6810.05+7355.2+6812.93+7357.8C6858.1+7327.56+6909.38+7413.8+6856.13+7418.38C6856.97+7425.92+6857.81+7433.46+6858.64+7441.01C6956.53+7433.15+6862.54+7281.05+6810.56+7346.54" fill="#cbc3c3" stroke-linecap="butt" opacity="1" stroke-linejoin="round"/>
<path stroke="#000000" stroke-width="1" d="M6810.56+7407.64C6811.61+7411.24+6810.06+7416.31+6812.93+7418.9C6858.1+7388.67+6909.38+7474.9+6856.13+7479.48C6856.97+7487.03+6857.81+7494.57+6858.64+7502.11C6956.53+7494.25+6862.54+7342.16+6810.56+7407.64" fill="#cbc3c3" stroke-linecap="butt" opacity="1" stroke-linejoin="round"/>
<path stroke="#000000" stroke-width="1" d="M6810.56+7476.63C6811.61+7480.23+6810.06+7485.3+6812.93+7487.9C6858.1+7457.66+6909.38+7543.9+6856.13+7548.47C6856.97+7556.02+6857.81+7563.56+6858.64+7571.11C6956.53+7563.24+6862.54+7411.15+6810.56+7476.63" fill="#cbc3c3" stroke-linecap="butt" opacity="1" stroke-linejoin="round"/>
<path stroke="#000000" stroke-width="1" d="M6810.56+7545.62C6811.61+7549.22+6810.06+7554.29+6812.93+7556.89C6858.1+7526.65+6909.38+7612.89+6856.13+7617.46C6856.97+7625.01+6857.81+7632.55+6858.64+7640.1C6956.53+7632.23+6862.54+7480.14+6810.56+7545.62" fill="#cbc3c3" stroke-linecap="butt" opacity="1" stroke-linejoin="round"/>
<path stroke="#000000" stroke-width="1" d="M6810.56+7614.62C6811.61+7618.22+6810.06+7623.28+6812.93+7625.88C6858.1+7595.64+6909.38+7681.88+6856.13+7686.45C6856.97+7694+6857.81+7701.54+6858.64+7709.09C6956.53+7701.23+6862.54+7549.13+6810.56+7614.62" fill="#cbc3c3" stroke-linecap="butt" opacity="1" stroke-linejoin="round"/>
<path stroke="#000000" stroke-width="1" d="M6810.56+7681.64C6811.61+7685.23+6810.06+7690.3+6812.93+7692.9C6858.1+7662.66+6909.38+7748.9+6856.13+7753.47C6856.97+7761.02+6857.81+7768.56+6858.64+7776.11C6956.53+7768.25+6862.54+7616.15+6810.56+7681.64" fill="#cbc3c3" stroke-linecap="butt" opacity="1" stroke-linejoin="round"/>
<path stroke="#000000" stroke-width="1" d="M6810.56+7742.74C6811.61+7746.34+6810.06+7751.4+6812.93+7754C6858.1+7723.77+6909.38+7810+6856.13+7814.58C6856.97+7822.12+6857.81+7829.67+6858.64+7837.21C6956.53+7829.35+6862.54+7677.26+6810.56+7742.74" fill="#cbc3c3" stroke-linecap="butt" opacity="1" stroke-linejoin="round"/>
<path stroke="#000000" stroke-width="1" d="M6810.56+7807.79C6811.61+7811.39+6810.06+7816.45+6812.93+7819.05C6858.1+7788.81+6909.38+7875.05+6856.13+7879.63C6856.97+7887.17+6857.81+7894.72+6858.64+7902.26C6956.53+7894.4+6862.54+7742.3+6810.56+7807.79" fill="#cbc3c3" stroke-linecap="butt" opacity="1" stroke-linejoin="round"/>
<path stroke="#000000" stroke-width="1" d="M6810.56+7872.84C6811.61+7876.44+6810.06+7881.5+6812.93+7884.1C6858.1+7853.86+6909.38+7940.1+6856.13+7944.68C6856.97+7952.22+6857.81+7959.77+6858.64+7967.31C6956.53+7959.45+6862.54+7807.35+6810.56+7872.84" fill="#cbc3c3" stroke-linecap="butt" opacity="1" stroke-linejoin="round"/>
<path stroke="#000000" stroke-width="1" d="M6810.56+7945.77C6811.61+7949.37+6810.06+7954.43+6812.93+7957.03C6858.1+7926.8+6909.38+8013.03+6856.13+8017.61C6856.97+8025.15+6857.81+8032.7+6858.64+8040.24C6956.53+8032.38+6862.54+7880.29+6810.56+7945.77" fill="#cbc3c3" stroke-linecap="butt" opacity="1" stroke-linejoin="round"/>
<path stroke="#000000" stroke-width="1" d="M6810.56+8008.85C6811.61+8012.45+6810.06+8017.51+6812.93+8020.11C6858.1+7989.87+6909.38+8076.11+6856.13+8080.69C6856.97+8088.23+6857.81+8095.78+6858.64+8103.32C6956.53+8095.46+6862.54+7943.36+6810.56+8008.85" fill="#cbc3c3" stroke-linecap="butt" opacity="1" stroke-linejoin="round"/>
<path stroke="#000000" stroke-width="1" d="M6810.56+8073.9C6811.61+8077.5+6810.06+8082.56+6812.93+8085.16C6858.1+8054.92+6909.38+8141.16+6856.13+8145.74C6856.97+8153.28+6857.81+8160.82+6858.64+8168.37C6956.53+8160.51+6862.54+8008.41+6810.56+8073.9" fill="#cbc3c3" stroke-linecap="butt" opacity="1" stroke-linejoin="round"/>
<path stroke="#000000" stroke-width="1" d="M6810.56+8140.92C6811.61+8144.52+6810.06+8149.58+6812.93+8152.18C6858.1+8121.94+6909.38+8208.18+6856.13+8212.76C6856.97+8220.3+6857.81+8227.84+6858.64+8235.39C6956.53+8227.53+6862.54+8075.43+6810.56+8140.92" fill="#cbc3c3" stroke-linecap="butt" opacity="1" stroke-linejoin="round"/>
<path stroke="#000000" stroke-width="1" d="M6810.56+8202.02C6811.61+8205.62+6810.06+8210.69+6812.93+8213.28C6858.1+8183.05+6909.38+8269.28+6856.13+8273.86C6856.97+8281.41+6857.81+8288.95+6858.64+8296.49C6956.53+8288.63+6862.54+8136.54+6810.56+8202.02" fill="#cbc3c3" stroke-linecap="butt" opacity="1" stroke-linejoin="round"/>
<path stroke="#000000" stroke-width="1" d="M6850.01+8275.03C6851+8275.03+6858.53+8274.59+6855.02+8274.59" fill="#cbc3c3" stroke-linecap="butt" opacity="1" stroke-linejoin="round"/>
<path stroke="#000000" stroke-width="1" d="M6812.78+8280.34C6823.41+8264.27+6875.86+8303.01+6874.08+8257.24C6849.65+8251.32+6778.79+8255.04+6812.78+8280.34" fill="#d0caca" stroke-linecap="butt" opacity="1" stroke-linejoin="round"/>
<path stroke="#000000" stroke-width="1" d="M1285.23+863.059C1267.98+863.059+1254.09+877.001+1254.09+894.202L1254.09+14916.7C1254.09+14933.9+1267.98+14947.8+1285.24+14947.8L10626.4+14947.8C10643.7+14947.8+10657.6+14933.9+10657.6+14916.7L10657.6+894.201C10657.6+876.999+10643.7+863.058+10626.4+863.058L1285.23+863.059ZM10397.3+14437.6C10400.9+14437.5+10403.2+14437.4+10404.6+14437.6C10405.4+14437.5+10405.3+14437.9+10408.4+14439.3C10410+14441.3+10408.6+14442.5+10408.9+14443.5C10409.1+14443.6+10410+14444+10410.1+14444C10409.7+14444+10409.3+14444.7+10408.9+14444.8C10408.8+14445.1+10409+14445.7+10408.9+14446.1C10410.8+14444.8+10412.6+14442.8+10414.8+14444C10418.2+14445.7+10419.5+14449.6+10417.8+14452.9C10416+14456.5+10413.1+14457.7+10409.7+14457.6C10408.6+14457.6+10409.5+14457.3+10405.4+14456.8C10402+14456.3+10400.2+14456.7+10398.2+14457.2C10395.6+14457.9+10393.2+14459.5+10391.4+14463.2C10389.7+14466.5+10385.8+14467.8+10382.4+14466.2C10379+14464.5+10377.7+14460.1+10379.4+14456.8C10381.6+14452.4+10385.5+14451.3+10388.8+14449.1C10387+14447.9+10384.5+14447.2+10384.5+14444.8C10384.5+14441.1+10387.6+14438+10391.4+14438C10391.8+14438+10396.5+14437.6+10397.3+14437.6Z" fill="#ffffff" stroke-linecap="butt" opacity="1" stroke-linejoin="round"/>
<path stroke="#000000" stroke-width="1" d="M10223.2+1264.86C10223.2+1201.84+10275.2+1150.76+10339.3+1150.76C10403.5+1150.76+10455.5+1201.84+10455.5+1264.86C10455.5+1327.87+10403.5+1378.96+10339.3+1378.96C10275.2+1378.96+10223.2+1327.87+10223.2+1264.86Z" fill="#000000" stroke-linecap="butt" fill-opacity="0.97638" opacity="1" stroke-linejoin="round"/>
<path stroke="#000000" stroke-width="1" d="M10223.2+1722.47C10223.2+1659.45+10275.2+1608.37+10339.3+1608.37C10403.5+1608.37+10455.5+1659.45+10455.5+1722.47C10455.5+1785.48+10403.5+1836.57+10339.3+1836.57C10275.2+1836.57+10223.2+1785.48+10223.2+1722.47Z" fill="#000000" stroke-linecap="butt" fill-opacity="0.97638" opacity="1" stroke-linejoin="round"/>
<path stroke="#000000" stroke-width="1" d="M10223.2+2177.41C10223.2+2114.39+10275.2+2063.31+10339.3+2063.31C10403.5+2063.31+10455.5+2114.39+10455.5+2177.41C10455.5+2240.42+10403.5+2291.51+10339.3+2291.51C10275.2+2291.51+10223.2+2240.42+10223.2+2177.41Z" fill="#000000" stroke-linecap="butt" fill-opacity="0.97638" opacity="1" stroke-linejoin="round"/>
<path stroke="#000000" stroke-width="1" d="M10223.2+2632.35C10223.2+2569.33+10275.2+2518.25+10339.3+2518.25C10403.5+2518.25+10455.5+2569.33+10455.5+2632.35C10455.5+2695.36+10403.5+2746.45+10339.3+2746.45C10275.2+2746.45+10223.2+2695.36+10223.2+2632.35Z" fill="#000000" stroke-linecap="butt" fill-opacity="0.97638" opacity="1" stroke-linejoin="round"/>
<path stroke="#000000" stroke-width="1" d="M10200.6+3036.03C10200.6+2973.02+10252.6+2921.93+10316.7+2921.93C10380.8+2921.93+10432.8+2973.02+10432.8+3036.03C10432.8+3099.05+10380.8+3150.13+10316.7+3150.13C10252.6+3150.13+10200.6+3099.05+10200.6+3036.03Z" fill="#000000" stroke-linecap="butt" fill-opacity="0.97638" opacity="1" stroke-linejoin="round"/>
<path stroke="#000000" stroke-width="1" d="M10200.6+3490.97C10200.6+3427.96+10252.6+3376.87+10316.7+3376.87C10380.8+3376.87+10432.8+3427.96+10432.8+3490.97C10432.8+3553.99+10380.8+3605.07+10316.7+3605.07C10252.6+3605.07+10200.6+3553.99+10200.6+3490.97Z" fill="#000000" stroke-linecap="butt" fill-opacity="0.97638" opacity="1" stroke-linejoin="round"/>
<path stroke="#000000" stroke-width="1" d="M10200.6+3945.91C10200.6+3882.9+10252.6+3831.81+10316.7+3831.81C10380.8+3831.81+10432.8+3882.9+10432.8+3945.91C10432.8+4008.93+10380.8+4060.01+10316.7+4060.01C10252.6+4060.01+10200.6+4008.93+10200.6+3945.91Z" fill="#000000" stroke-linecap="butt" fill-opacity="0.97638" opacity="1" stroke-linejoin="round"/>
<path stroke="#000000" stroke-width="1" d="M10200.6+4400.85C10200.6+4337.84+10252.6+4286.75+10316.7+4286.75C10380.8+4286.75+10432.8+4337.84+10432.8+4400.85C10432.8+4463.87+10380.8+4514.95+10316.7+4514.95C10252.6+4514.95+10200.6+4463.87+10200.6+4400.85Z" fill="#000000" stroke-linecap="butt" fill-opacity="0.97638" opacity="1" stroke-linejoin="round"/>
<path stroke="#000000" stroke-width="1" d="M10200.6+8495.32C10200.6+8432.3+10252.6+8381.22+10316.7+8381.22C10380.8+8381.22+10432.8+8432.3+10432.8+8495.32C10432.8+8558.33+10380.8+8609.42+10316.7+8609.42C10252.6+8609.42+10200.6+8558.33+10200.6+8495.32Z" fill="#000000" stroke-linecap="butt" fill-opacity="0.97638" opacity="1" stroke-linejoin="round"/>
<path stroke="#000000" stroke-width="1" d="M10200.6+4849.46C10200.6+4786.45+10252.6+4735.37+10316.7+4735.37C10380.8+4735.37+10432.8+4786.45+10432.8+4849.46C10432.8+4912.48+10380.8+4963.56+10316.7+4963.56C10252.6+4963.56+10200.6+4912.48+10200.6+4849.46Z" fill="#000000" stroke-linecap="butt" fill-opacity="0.97638" opacity="1" stroke-linejoin="round"/>
<path stroke="#000000" stroke-width="1" d="M10200.6+5304.4C10200.6+5241.39+10252.6+5190.31+10316.7+5190.31C10380.8+5190.31+10432.8+5241.39+10432.8+5304.4C10432.8+5367.42+10380.8+5418.5+10316.7+5418.5C10252.6+5418.5+10200.6+5367.42+10200.6+5304.4Z" fill="#000000" stroke-linecap="butt" fill-opacity="0.97638" opacity="1" stroke-linejoin="round"/>
<path stroke="#000000" stroke-width="1" d="M10200.6+5759.34C10200.6+5696.33+10252.6+5645.25+10316.7+5645.25C10380.8+5645.25+10432.8+5696.33+10432.8+5759.34C10432.8+5822.36+10380.8+5873.44+10316.7+5873.44C10252.6+5873.44+10200.6+5822.36+10200.6+5759.34Z" fill="#000000" stroke-linecap="butt" fill-opacity="0.97638" opacity="1" stroke-linejoin="round"/>
<path stroke="#000000" stroke-width="1" d="M10200.6+6214.29C10200.6+6151.27+10252.6+6100.19+10316.7+6100.19C10380.8+6100.19+10432.8+6151.27+10432.8+6214.29C10432.8+6277.3+10380.8+6328.38+10316.7+6328.38C10252.6+6328.38+10200.6+6277.3+10200.6+6214.29Z" fill="#000000" stroke-linecap="butt" fill-opacity="0.97638" opacity="1" stroke-linejoin="round"/>
<path stroke="#000000" stroke-width="1" d="M10200.6+6669.23C10200.6+6606.21+10252.6+6555.13+10316.7+6555.13C10380.8+6555.13+10432.8+6606.21+10432.8+6669.23C10432.8+6732.24+10380.8+6783.32+10316.7+6783.32C10252.6+6783.32+10200.6+6732.24+10200.6+6669.23Z" fill="#000000" stroke-linecap="butt" fill-opacity="0.97638" opacity="1" stroke-linejoin="round"/>
<path stroke="#000000" stroke-width="1" d="M10200.6+7124.17C10200.6+7061.15+10252.6+7010.07+10316.7+7010.07C10380.8+7010.07+10432.8+7061.15+10432.8+7124.17C10432.8+7187.18+10380.8+7238.27+10316.7+7238.27C10252.6+7238.27+10200.6+7187.18+10200.6+7124.17Z" fill="#000000" stroke-linecap="butt" fill-opacity="0.97638" opacity="1" stroke-linejoin="round"/>
<path stroke="#000000" stroke-width="1" d="M10200.6+7579.11C10200.6+7516.09+10252.6+7465.01+10316.7+7465.01C10380.8+7465.01+10432.8+7516.09+10432.8+7579.11C10432.8+7642.12+10380.8+7693.21+10316.7+7693.21C10252.6+7693.21+10200.6+7642.12+10200.6+7579.11Z" fill="#000000" stroke-linecap="butt" fill-opacity="0.97638" opacity="1" stroke-linejoin="round"/>
<path stroke="#000000" stroke-width="1" d="M10200.6+8034.05C10200.6+7971.03+10252.6+7919.95+10316.7+7919.95C10380.8+7919.95+10432.8+7971.03+10432.8+8034.05C10432.8+8097.06+10380.8+8148.15+10316.7+8148.15C10252.6+8148.15+10200.6+8097.06+10200.6+8034.05Z" fill="#000000" stroke-linecap="butt" fill-opacity="0.97638" opacity="1" stroke-linejoin="round"/>
<path stroke="#000000" stroke-width="1" d="M10200.6+8943.93C10200.6+8880.91+10252.6+8829.83+10316.7+8829.83C10380.8+8829.83+10432.8+8880.91+10432.8+8943.93C10432.8+9006.94+10380.8+9058.03+10316.7+9058.03C10252.6+9058.03+10200.6+9006.94+10200.6+8943.93Z" fill="#000000" stroke-linecap="butt" fill-opacity="0.97638" opacity="1" stroke-linejoin="round"/>
<path stroke="#000000" stroke-width="1" d="M10231.6+9459.81C10231.6+9396.8+10283.6+9345.71+10347.7+9345.71C10411.9+9345.71+10463.8+9396.8+10463.8+9459.81C10463.8+9522.83+10411.9+9573.91+10347.7+9573.91C10283.6+9573.91+10231.6+9522.83+10231.6+9459.81Z" fill="#000000" stroke-linecap="butt" fill-opacity="0.97638" opacity="1" stroke-linejoin="round"/>
<path stroke="#000000" stroke-width="1" d="M10231.6+9914.75C10231.6+9851.74+10283.6+9800.65+10347.7+9800.65C10411.9+9800.65+10463.8+9851.74+10463.8+9914.75C10463.8+9977.77+10411.9+10028.9+10347.7+10028.9C10283.6+10028.9+10231.6+9977.77+10231.6+9914.75Z" fill="#000000" stroke-linecap="butt" fill-opacity="0.97638" opacity="1" stroke-linejoin="round"/>
<path stroke="#000000" stroke-width="1" d="M10231.6+10369.7C10231.6+10306.7+10283.6+10255.6+10347.7+10255.6C10411.9+10255.6+10463.8+10306.7+10463.8+10369.7C10463.8+10432.7+10411.9+10483.8+10347.7+10483.8C10283.6+10483.8+10231.6+10432.7+10231.6+10369.7Z" fill="#000000" stroke-linecap="butt" fill-opacity="0.97638" opacity="1" stroke-linejoin="round"/>
<path stroke="#000000" stroke-width="1" d="M10231.6+10824.6C10231.6+10761.6+10283.6+10710.5+10347.7+10710.5C10411.9+10710.5+10463.8+10761.6+10463.8+10824.6C10463.8+10887.6+10411.9+10938.7+10347.7+10938.7C10283.6+10938.7+10231.6+10887.6+10231.6+10824.6Z" fill="#000000" stroke-linecap="butt" fill-opacity="0.97638" opacity="1" stroke-linejoin="round"/>
<path stroke="#000000" stroke-width="1" d="M10223.2+11269.9C10223.2+11206.9+10275.2+11155.8+10339.3+11155.8C10403.5+11155.8+10455.5+11206.9+10455.5+11269.9C10455.5+11332.9+10403.5+11384+10339.3+11384C10275.2+11384+10223.2+11332.9+10223.2+11269.9Z" fill="#ffffff" stroke-linecap="butt" opacity="1" stroke-linejoin="round"/>
<path stroke="#000000" stroke-width="1" d="M10223.2+11724.8C10223.2+11661.8+10275.2+11610.7+10339.3+11610.7C10403.5+11610.7+10455.5+11661.8+10455.5+11724.8C10455.5+11787.8+10403.5+11838.9+10339.3+11838.9C10275.2+11838.9+10223.2+11787.8+10223.2+11724.8Z" fill="#ffffff" stroke-linecap="butt" opacity="1" stroke-linejoin="round"/>
<path stroke="#000000" stroke-width="1" d="M10223.2+12179.8C10223.2+12116.7+10275.2+12065.7+10339.3+12065.7C10403.5+12065.7+10455.5+12116.7+10455.5+12179.8C10455.5+12242.8+10403.5+12293.9+10339.3+12293.9C10275.2+12293.9+10223.2+12242.8+10223.2+12179.8Z" fill="#ffffff" stroke-linecap="butt" opacity="1" stroke-linejoin="round"/>
<path stroke="#000000" stroke-width="1" d="M10231.6+11271.1C10231.6+11208+10283.6+11157+10347.7+11157C10411.9+11157+10463.8+11208+10463.8+11271.1C10463.8+11334.1+10411.9+11385.2+10347.7+11385.2C10283.6+11385.2+10231.6+11334.1+10231.6+11271.1Z" fill="#000000" stroke-linecap="butt" fill-opacity="0.97638" opacity="1" stroke-linejoin="round"/>
<path stroke="#000000" stroke-width="1" d="M10231.6+11726C10231.6+11663+10283.6+11611.9+10347.7+11611.9C10411.9+11611.9+10463.8+11663+10463.8+11726C10463.8+11789+10411.9+11840.1+10347.7+11840.1C10283.6+11840.1+10231.6+11789+10231.6+11726Z" fill="#000000" stroke-linecap="butt" fill-opacity="0.97638" opacity="1" stroke-linejoin="round"/>
<path stroke="#000000" stroke-width="1" d="M10231.6+12180.9C10231.6+12117.9+10283.6+12066.8+10347.7+12066.8C10411.9+12066.8+10463.8+12117.9+10463.8+12180.9C10463.8+12244+10411.9+12295+10347.7+12295C10283.6+12295+10231.6+12244+10231.6+12180.9Z" fill="#000000" stroke-linecap="butt" fill-opacity="0.97638" opacity="1" stroke-linejoin="round"/>
<path stroke="#000000" stroke-width="1" d="M10231.6+12635.9C10231.6+12572.9+10283.6+12521.8+10347.7+12521.8C10411.9+12521.8+10463.8+12572.9+10463.8+12635.9C10463.8+12698.9+10411.9+12750+10347.7+12750C10283.6+12750+10231.6+12698.9+10231.6+12635.9Z" fill="#000000" stroke-linecap="butt" fill-opacity="0.97638" opacity="1" stroke-linejoin="round"/>
<path stroke="#000000" stroke-width="1" d="M10223.2+13081.1C10223.2+13018.1+10275.2+12967+10339.3+12967C10403.5+12967+10455.5+13018.1+10455.5+13081.1C10455.5+13144.1+10403.5+13195.2+10339.3+13195.2C10275.2+13195.2+10223.2+13144.1+10223.2+13081.1Z" fill="#000000" stroke-linecap="butt" fill-opacity="0.97638" opacity="1" stroke-linejoin="round"/>
<path stroke="#000000" stroke-width="1" d="M10223.2+13536.1C10223.2+13473.1+10275.2+13422+10339.3+13422C10403.5+13422+10455.5+13473.1+10455.5+13536.1C10455.5+13599.1+10403.5+13650.2+10339.3+13650.2C10275.2+13650.2+10223.2+13599.1+10223.2+13536.1Z" fill="#000000" stroke-linecap="butt" fill-opacity="0.97638" opacity="1" stroke-linejoin="round"/>
<path stroke="#000000" stroke-width="1" d="M10223.2+13991C10223.2+13928+10275.2+13876.9+10339.3+13876.9C10403.5+13876.9+10455.5+13928+10455.5+13991C10455.5+14054+10403.5+14105.1+10339.3+14105.1C10275.2+14105.1+10223.2+14054+10223.2+13991Z" fill="#000000" stroke-linecap="butt" fill-opacity="0.97638" opacity="1" stroke-linejoin="round"/>
<path stroke="#000000" stroke-width="1" d="M10339.3+14331.8C10275.2+14331.8+10223.3+14383.1+10223.3+14446.1C10223.3+14509.1+10275.2+14560+10339.3+14560C10403.4+14560+10455.4+14509.1+10455.4+14446.1C10455.4+14383.1+10403.4+14331.8+10339.3+14331.8ZM10397.3+14437.6C10400.9+14437.5+10403.2+14437.4+10404.6+14437.6C10405.4+14437.5+10405.3+14437.9+10408.4+14439.3C10410+14441.3+10408.6+14442.5+10408.9+14443.5C10409.1+14443.6+10410+14444+10410.1+14444C10409.7+14444+10409.3+14444.7+10408.9+14444.8C10408.8+14445.1+10409+14445.7+10408.9+14446.1C10410.8+14444.8+10412.6+14442.8+10414.8+14444C10418.2+14445.7+10419.5+14449.6+10417.8+14452.9C10416+14456.5+10413.1+14457.7+10409.7+14457.6C10408.6+14457.6+10409.5+14457.3+10405.4+14456.8C10402+14456.3+10400.2+14456.7+10398.2+14457.2C10395.6+14457.9+10393.2+14459.5+10391.4+14463.2C10389.7+14466.5+10385.8+14467.8+10382.4+14466.2C10379+14464.5+10377.7+14460.1+10379.4+14456.8C10381.6+14452.4+10385.5+14451.3+10388.8+14449.1C10387+14447.9+10384.5+14447.2+10384.5+14444.8C10384.5+14441.1+10387.6+14438+10391.4+14438C10391.8+14438+10396.5+14437.6+10397.3+14437.6Z" fill="#000000" stroke-linecap="butt" fill-opacity="0.97638" opacity="1" stroke-linejoin="round"/>
<path stroke="#000000" stroke-width="1" d="M10330.5+1250.93C10337.8+1275.85+10327+1310.92+10347+1328.92C10659.8+1119.5+11014.9+1716.75+10646.2+1748.46C10652+1800.71+10657.8+1852.96+10663.6+1905.21C11341.5+1850.76+10690.6+797.394+10330.5+1250.93" fill="#cbc3c3" stroke-linecap="butt" opacity="1" stroke-linejoin="round"/>
<path stroke="#000000" stroke-width="1" d="M10330.5+1715.08C10337.8+1740.01+10327+1775.08+10347+1793.07C10659.8+1583.66+11014.9+2180.91+10646.2+2212.61C10652+2264.87+10657.8+2317.12+10663.6+2369.37C11341.5+2314.92+10690.6+1261.55+10330.5+1715.08" fill="#cbc3c3" stroke-linecap="butt" opacity="1" stroke-linejoin="round"/>
<path stroke="#000000" stroke-width="1" d="M10330.5+2179.24C10337.8+2204.17+10327+2239.23+10347+2257.23C10659.8+2047.82+11014.9+2645.07+10646.2+2676.77C10652+2729.02+10657.8+2781.27+10663.6+2833.53C11341.5+2779.08+10690.6+1725.71+10330.5+2179.24" fill="#cbc3c3" stroke-linecap="butt" opacity="1" stroke-linejoin="round"/>
<path stroke="#000000" stroke-width="1" d="M10330.5+2629.75C10337.8+2654.68+10327+2689.74+10347+2707.74C10659.8+2498.33+11014.9+3095.58+10646.2+3127.28C10652+3179.53+10657.8+3231.78+10663.6+3284.03C11341.5+3229.58+10690.6+2176.22+10330.5+2629.75" fill="#cbc3c3" stroke-linecap="butt" opacity="1" stroke-linejoin="round"/>
<path stroke="#000000" stroke-width="1" d="M10330.5+3025.65C10337.8+3050.58+10327+3085.64+10347+3103.64C10659.8+2894.23+11014.9+3491.48+10646.2+3523.18C10652+3575.43+10657.8+3627.68+10663.6+3679.93C11341.5+3625.48+10690.6+2572.12+10330.5+3025.65" fill="#cbc3c3" stroke-linecap="butt" opacity="1" stroke-linejoin="round"/>
<path stroke="#000000" stroke-width="1" d="M10330.5+3448.85C10337.8+3473.78+10327+3508.85+10347+3526.84C10659.8+3317.43+11014.9+3914.68+10646.2+3946.38C10652+3998.63+10657.8+4050.89+10663.6+4103.14C11341.5+4048.69+10690.6+2995.32+10330.5+3448.85" fill="#cbc3c3" stroke-linecap="butt" opacity="1" stroke-linejoin="round"/>
<path stroke="#000000" stroke-width="1" d="M10330.5+3926.66C10337.8+3951.59+10327+3986.66+10347+4004.65C10659.8+3795.24+11014.9+4392.49+10646.2+4424.19C10652+4476.45+10657.8+4528.7+10663.6+4580.95C11341.5+4526.5+10690.6+3473.13+10330.5+3926.66" fill="#cbc3c3" stroke-linecap="butt" opacity="1" stroke-linejoin="round"/>
<path stroke="#000000" stroke-width="1" d="M10330.5+4377.17C10337.8+4402.1+10327+4437.16+10347+4455.16C10659.8+4245.75+11014.9+4843+10646.2+4874.7C10652+4926.95+10657.8+4979.2+10663.6+5031.45C11341.5+4977+10690.6+3923.64+10330.5+4377.17" fill="#cbc3c3" stroke-linecap="butt" opacity="1" stroke-linejoin="round"/>
<path stroke="#000000" stroke-width="1" d="M10330.5+4786.72C10337.8+4811.65+10327+4846.71+10347+4864.71C10659.8+4655.3+11014.9+5252.55+10646.2+5284.25C10652+5336.5+10657.8+5388.76+10663.6+5441.01C11341.5+5386.56+10690.6+4333.19+10330.5+4786.72" fill="#cbc3c3" stroke-linecap="butt" opacity="1" stroke-linejoin="round"/>
<path stroke="#000000" stroke-width="1" d="M10330.5+5237.23C10337.8+5262.16+10327+5297.22+10347+5315.22C10659.8+5105.81+11014.9+5703.06+10646.2+5734.76C10652+5787.01+10657.8+5839.26+10663.6+5891.51C11341.5+5837.06+10690.6+4783.7+10330.5+5237.23" fill="#cbc3c3" stroke-linecap="butt" opacity="1" stroke-linejoin="round"/>
<path stroke="#000000" stroke-width="1" d="M10330.5+5728.69C10337.8+5753.62+10327+5788.68+10347+5806.68C10659.8+5597.27+11014.9+6194.52+10646.2+6226.22C10652+6278.47+10657.8+6330.72+10663.6+6382.98C11341.5+6328.53+10690.6+5275.16+10330.5+5728.69" fill="#cbc3c3" stroke-linecap="butt" opacity="1" stroke-linejoin="round"/>
<path stroke="#000000" stroke-width="1" d="M10330.5+6165.55C10337.8+6190.48+10327+6225.54+10347+6243.54C10659.8+6034.12+11014.9+6631.38+10646.2+6663.08C10652+6715.33+10657.8+6767.58+10663.6+6819.83C11341.5+6765.38+10690.6+5712.02+10330.5+6165.55" fill="#cbc3c3" stroke-linecap="butt" opacity="1" stroke-linejoin="round"/>
<path stroke="#000000" stroke-width="1" d="M10330.5+6643.36C10337.8+6668.29+10327+6703.35+10347+6721.35C10659.8+6511.94+11014.9+7109.19+10646.2+7140.89C10652+7193.14+10657.8+7245.39+10663.6+7297.64C11341.5+7243.19+10690.6+6189.83+10330.5+6643.36" fill="#cbc3c3" stroke-linecap="butt" opacity="1" stroke-linejoin="round"/>
<path stroke="#000000" stroke-width="1" d="M10330.5+7080.21C10337.8+7105.14+10327+7140.21+10347+7158.2C10659.8+6948.79+11014.9+7546.04+10646.2+7577.74C10652+7629.99+10657.8+7682.25+10663.6+7734.5C11341.5+7680.05+10690.6+6626.68+10330.5+7080.21" fill="#cbc3c3" stroke-linecap="butt" opacity="1" stroke-linejoin="round"/>
<path stroke="#000000" stroke-width="1" d="M10330.5+7558.02C10337.8+7582.95+10327+7618.02+10347+7636.01C10659.8+7426.6+11014.9+8023.85+10646.2+8055.55C10652+8107.81+10657.8+8160.06+10663.6+8212.31C11341.5+8157.86+10690.6+7104.49+10330.5+7558.02" fill="#cbc3c3" stroke-linecap="butt" opacity="1" stroke-linejoin="round"/>
<path stroke="#000000" stroke-width="1" d="M10330.5+8022.18C10337.8+8047.11+10327+8082.17+10347+8100.17C10659.8+7890.76+11014.9+8488.01+10646.2+8519.71C10652+8571.96+10657.8+8624.21+10663.6+8676.47C11341.5+8622.02+10690.6+7568.65+10330.5+8022.18" fill="#cbc3c3" stroke-linecap="butt" opacity="1" stroke-linejoin="round"/>
<path stroke="#000000" stroke-width="1" d="M10330.5+8445.39C10337.8+8470.31+10327+8505.38+10347+8523.38C10659.8+8313.96+11014.9+8911.22+10646.2+8942.92C10652+8995.17+10657.8+9047.42+10663.6+9099.67C11341.5+9045.22+10690.6+7991.85+10330.5+8445.39" fill="#cbc3c3" stroke-linecap="butt" opacity="1" stroke-linejoin="round"/>
<path stroke="#000000" stroke-width="1" d="M10330.5+8923.2C10337.8+8948.12+10327+8983.19+10347+9001.19C10659.8+8791.77+11014.9+9389.03+10646.2+9420.73C10652+9472.98+10657.8+9525.23+10663.6+9577.48C11341.5+9523.03+10690.6+8469.67+10330.5+8923.2" fill="#cbc3c3" stroke-linecap="butt" opacity="1" stroke-linejoin="round"/>
<path stroke="#000000" stroke-width="1" d="M10330.5+9401.01C10337.8+9425.94+10327+9461+10347+9479C10659.8+9269.58+11014.9+9866.84+10646.2+9898.54C10652+9950.79+10657.8+10003+10663.6+10055.3C11341.5+10000.8+10690.6+8947.48+10330.5+9401.01" fill="#cbc3c3" stroke-linecap="butt" opacity="1" stroke-linejoin="round"/>
<path stroke="#000000" stroke-width="1" d="M10330.5+9878.82C10337.8+9903.75+10327+9938.81+10347+9956.81C10659.8+9747.4+11014.9+10344.6+10646.2+10376.3C10652+10428.6+10657.8+10480.9+10663.6+10533.1C11341.5+10478.7+10690.6+9425.29+10330.5+9878.82" fill="#cbc3c3" stroke-linecap="butt" opacity="1" stroke-linejoin="round"/>
<path stroke="#000000" stroke-width="1" d="M10330.5+10343C10337.8+10367.9+10327+10403+10347+10421C10659.8+10211.6+11014.9+10808.8+10646.2+10840.5C10652+10892.8+10657.8+10945+10663.6+10997.3C11341.5+10942.8+10690.6+9889.45+10330.5+10343" fill="#cbc3c3" stroke-linecap="butt" opacity="1" stroke-linejoin="round"/>
<path stroke="#000000" stroke-width="1" d="M10330.5+10766.2C10337.8+10791.1+10327+10826.2+10347+10844.2C10659.8+10634.8+11014.9+11232+10646.2+11263.7C10652+11316+10657.8+11368.2+10663.6+11420.5C11341.5+11366+10690.6+10312.6+10330.5+10766.2" fill="#cbc3c3" stroke-linecap="butt" opacity="1" stroke-linejoin="round"/>
<path stroke="#000000" stroke-width="1" d="M10330.5+11216.7C10337.8+11241.6+10327+11276.7+10347+11294.7C10659.8+11085.3+11014.9+11682.5+10646.2+11714.2C10652+11766.5+10657.8+11818.7+10663.6+11871C11341.5+11816.5+10690.6+10763.2+10330.5+11216.7" fill="#cbc3c3" stroke-linecap="butt" opacity="1" stroke-linejoin="round"/>
<path stroke="#000000" stroke-width="1" d="M10330.5+11667.2C10337.8+11692.1+10327+11727.2+10347+11745.2C10659.8+11535.8+11014.9+12133+10646.2+12164.7C10652+12217+10657.8+12269.2+10663.6+12321.5C11341.5+12267+10690.6+11213.7+10330.5+11667.2" fill="#cbc3c3" stroke-linecap="butt" opacity="1" stroke-linejoin="round"/>
<path stroke="#000000" stroke-width="1" d="M10330.5+12172.3C10337.8+12197.2+10327+12232.3+10347+12250.3C10659.8+12040.9+11014.9+12638.1+10646.2+12669.8C10652+12722.1+10657.8+12774.3+10663.6+12826.6C11341.5+12772.1+10690.6+11718.8+10330.5+12172.3" fill="#cbc3c3" stroke-linecap="butt" opacity="1" stroke-linejoin="round"/>
<path stroke="#000000" stroke-width="1" d="M10330.5+12609.2C10337.8+12634.1+10327+12669.2+10347+12687.2C10659.8+12477.7+11014.9+13075+10646.2+13106.7C10652+13158.9+10657.8+13211.2+10663.6+13263.4C11341.5+13209+10690.6+12155.6+10330.5+12609.2" fill="#cbc3c3" stroke-linecap="butt" opacity="1" stroke-linejoin="round"/>
<path stroke="#000000" stroke-width="1" d="M10330.5+13059.7C10337.8+13084.6+10327+13119.7+10347+13137.7C10659.8+12928.2+11014.9+13525.5+10646.2+13557.2C10652+13609.5+10657.8+13661.7+10663.6+13714C11341.5+13659.5+10690.6+12606.1+10330.5+13059.7" fill="#cbc3c3" stroke-linecap="butt" opacity="1" stroke-linejoin="round"/>
<path stroke="#000000" stroke-width="1" d="M10330.5+13523.8C10337.8+13548.8+10327+13583.8+10347+13601.8C10659.8+13392.4+11014.9+13989.7+10646.2+14021.4C10652+14073.6+10657.8+14125.9+10663.6+14178.1C11341.5+14123.7+10690.6+13070.3+10330.5+13523.8" fill="#cbc3c3" stroke-linecap="butt" opacity="1" stroke-linejoin="round"/>
<path stroke="#000000" stroke-width="1" d="M10330.5+13947C10337.8+13972+10327+14007+10347+14025C10659.8+13815.6+11014.9+14412.9+10646.2+14444.6C10652+14496.8+10657.8+14549.1+10663.6+14601.3C11341.5+14546.9+10690.6+13493.5+10330.5+13947" fill="#cbc3c3" stroke-linecap="butt" opacity="1" stroke-linejoin="round"/>
<path stroke="#000000" stroke-width="1" d="M10603.7+14452.6C10610.6+14452.6+10662.8+14449.6+10638.5+14449.6" fill="#cbc3c3" stroke-linecap="butt" opacity="1" stroke-linejoin="round"/>
<path stroke="#000000" stroke-width="1" d="M10345.9+14489.4C10419.5+14378.1+10782.8+14646.5+10770.5+14329.4C10601.3+14288.4+10110.5+14314.2+10345.9+14489.4" fill="#d0caca" stroke-linecap="butt" opacity="1" stroke-linejoin="round"/>
<path stroke="#000000" stroke-width="1" d="M5386.12+6129.46C5383.38+6129.46+5381.17+6131.68+5381.17+6134.41L5381.17+8361.57C5381.17+8364.3+5383.38+8366.52+5386.12+8366.52L6869.77+8366.52C6872.51+8366.52+6874.71+8364.3+6874.71+8361.57L6874.71+6134.41C6874.71+6131.67+6872.51+6129.46+6869.77+6129.46L5386.12+6129.46ZM6833.38+8285.48C6833.94+8285.46+6834.31+8285.46+6834.53+8285.48C6834.66+8285.47+6834.65+8285.52+6835.14+8285.75C6835.39+8286.07+6835.17+8286.26+6835.21+8286.43C6835.25+8286.44+6835.38+8286.49+6835.41+8286.49C6835.35+8286.49+6835.28+8286.61+6835.21+8286.63C6835.21+8286.68+6835.23+8286.77+6835.21+8286.83C6835.51+8286.63+6835.8+8286.31+6836.16+8286.49C6836.69+8286.76+6836.9+8287.38+6836.63+8287.92C6836.35+8288.49+6835.89+8288.68+6835.35+8288.66C6835.17+8288.66+6835.31+8288.62+6834.67+8288.53C6834.12+8288.45+6833.83+8288.51+6833.52+8288.59C6833.1+8288.7+6832.72+8288.97+6832.43+8289.54C6832.16+8290.08+6831.54+8290.29+6831.01+8290.02C6830.47+8289.75+6830.27+8289.06+6830.53+8288.53C6830.88+8287.83+6831.51+8287.66+6832.02+8287.31C6831.74+8287.11+6831.35+8287+6831.35+8286.63C6831.35+8286.03+6831.83+8285.55+6832.43+8285.55C6832.5+8285.55+6833.24+8285.48+6833.38+8285.48Z" fill="#ffffff" stroke-linecap="butt" opacity="1" stroke-linejoin="round"/>
<path stroke="#000000" stroke-width="1" d="M6805.73+6193.28C6805.73+6183.27+6813.98+6175.16+6824.17+6175.16C6834.35+6175.16+6842.61+6183.27+6842.61+6193.28C6842.61+6203.29+6834.35+6211.4+6824.17+6211.4C6813.98+6211.4+6805.73+6203.29+6805.73+6193.28Z" fill="#000000" stroke-linecap="butt" fill-opacity="0.97638" opacity="1" stroke-linejoin="round"/>
<path stroke="#000000" stroke-width="1" d="M6805.73+6265.96C6805.73+6255.95+6813.98+6247.84+6824.17+6247.84C6834.35+6247.84+6842.61+6255.95+6842.61+6265.96C6842.61+6275.97+6834.35+6284.08+6824.17+6284.08C6813.98+6284.08+6805.73+6275.97+6805.73+6265.96Z" fill="#000000" stroke-linecap="butt" fill-opacity="0.97638" opacity="1" stroke-linejoin="round"/>
<path stroke="#000000" stroke-width="1" d="M6805.73+6338.22C6805.73+6328.21+6813.98+6320.09+6824.17+6320.09C6834.35+6320.09+6842.61+6328.21+6842.61+6338.22C6842.61+6348.23+6834.35+6356.34+6824.17+6356.34C6813.98+6356.34+6805.73+6348.23+6805.73+6338.22Z" fill="#000000" stroke-linecap="butt" fill-opacity="0.97638" opacity="1" stroke-linejoin="round"/>
<path stroke="#000000" stroke-width="1" d="M6805.73+6410.47C6805.73+6400.47+6813.98+6392.35+6824.17+6392.35C6834.35+6392.35+6842.61+6400.47+6842.61+6410.47C6842.61+6420.48+6834.35+6428.6+6824.17+6428.6C6813.98+6428.6+6805.73+6420.48+6805.73+6410.47Z" fill="#000000" stroke-linecap="butt" fill-opacity="0.97638" opacity="1" stroke-linejoin="round"/>
<path stroke="#000000" stroke-width="1" d="M6802.13+6474.59C6802.13+6464.58+6810.39+6456.47+6820.57+6456.47C6830.76+6456.47+6839.01+6464.58+6839.01+6474.59C6839.01+6484.6+6830.76+6492.71+6820.57+6492.71C6810.39+6492.71+6802.13+6484.6+6802.13+6474.59Z" fill="#000000" stroke-linecap="butt" fill-opacity="0.97638" opacity="1" stroke-linejoin="round"/>
<path stroke="#000000" stroke-width="1" d="M6802.13+6546.85C6802.13+6536.84+6810.39+6528.73+6820.57+6528.73C6830.76+6528.73+6839.01+6536.84+6839.01+6546.85C6839.01+6556.86+6830.76+6564.97+6820.57+6564.97C6810.39+6564.97+6802.13+6556.86+6802.13+6546.85Z" fill="#000000" stroke-linecap="butt" fill-opacity="0.97638" opacity="1" stroke-linejoin="round"/>
<path stroke="#000000" stroke-width="1" d="M6802.13+6619.11C6802.13+6609.1+6810.39+6600.98+6820.57+6600.98C6830.76+6600.98+6839.01+6609.1+6839.01+6619.11C6839.01+6629.11+6830.76+6637.23+6820.57+6637.23C6810.39+6637.23+6802.13+6629.11+6802.13+6619.11Z" fill="#000000" stroke-linecap="butt" fill-opacity="0.97638" opacity="1" stroke-linejoin="round"/>
<path stroke="#000000" stroke-width="1" d="M6802.13+6691.36C6802.13+6681.35+6810.39+6673.24+6820.57+6673.24C6830.76+6673.24+6839.01+6681.35+6839.01+6691.36C6839.01+6701.37+6830.76+6709.49+6820.57+6709.49C6810.39+6709.49+6802.13+6701.37+6802.13+6691.36Z" fill="#000000" stroke-linecap="butt" fill-opacity="0.97638" opacity="1" stroke-linejoin="round"/>
<path stroke="#000000" stroke-width="1" d="M6802.13+7341.68C6802.13+7331.67+6810.39+7323.56+6820.57+7323.56C6830.76+7323.56+6839.01+7331.67+6839.01+7341.68C6839.01+7351.69+6830.76+7359.8+6820.57+7359.8C6810.39+7359.8+6802.13+7351.69+6802.13+7341.68Z" fill="#000000" stroke-linecap="butt" fill-opacity="0.97638" opacity="1" stroke-linejoin="round"/>
<path stroke="#000000" stroke-width="1" d="M6802.13+6762.61C6802.13+6752.61+6810.39+6744.49+6820.57+6744.49C6830.76+6744.49+6839.01+6752.61+6839.01+6762.61C6839.01+6772.62+6830.76+6780.74+6820.57+6780.74C6810.39+6780.74+6802.13+6772.62+6802.13+6762.61Z" fill="#000000" stroke-linecap="butt" fill-opacity="0.97638" opacity="1" stroke-linejoin="round"/>
<path stroke="#000000" stroke-width="1" d="M6802.13+6834.87C6802.13+6824.86+6810.39+6816.75+6820.57+6816.75C6830.76+6816.75+6839.01+6824.86+6839.01+6834.87C6839.01+6844.88+6830.76+6852.99+6820.57+6852.99C6810.39+6852.99+6802.13+6844.88+6802.13+6834.87Z" fill="#000000" stroke-linecap="butt" fill-opacity="0.97638" opacity="1" stroke-linejoin="round"/>
<path stroke="#000000" stroke-width="1" d="M6802.13+6907.13C6802.13+6897.12+6810.39+6889.01+6820.57+6889.01C6830.76+6889.01+6839.01+6897.12+6839.01+6907.13C6839.01+6917.14+6830.76+6925.25+6820.57+6925.25C6810.39+6925.25+6802.13+6917.14+6802.13+6907.13Z" fill="#000000" stroke-linecap="butt" fill-opacity="0.97638" opacity="1" stroke-linejoin="round"/>
<path stroke="#000000" stroke-width="1" d="M6802.13+6979.39C6802.13+6969.38+6810.39+6961.27+6820.57+6961.27C6830.76+6961.27+6839.01+6969.38+6839.01+6979.39C6839.01+6989.4+6830.76+6997.51+6820.57+6997.51C6810.39+6997.51+6802.13+6989.4+6802.13+6979.39Z" fill="#000000" stroke-linecap="butt" fill-opacity="0.97638" opacity="1" stroke-linejoin="round"/>
<path stroke="#000000" stroke-width="1" d="M6802.13+7051.64C6802.13+7041.64+6810.39+7033.52+6820.57+7033.52C6830.76+7033.52+6839.01+7041.64+6839.01+7051.64C6839.01+7061.65+6830.76+7069.77+6820.57+7069.77C6810.39+7069.77+6802.13+7061.65+6802.13+7051.64Z" fill="#000000" stroke-linecap="butt" fill-opacity="0.97638" opacity="1" stroke-linejoin="round"/>
<path stroke="#000000" stroke-width="1" d="M6802.13+7123.9C6802.13+7113.89+6810.39+7105.78+6820.57+7105.78C6830.76+7105.78+6839.01+7113.89+6839.01+7123.9C6839.01+7133.91+6830.76+7142.02+6820.57+7142.02C6810.39+7142.02+6802.13+7133.91+6802.13+7123.9Z" fill="#000000" stroke-linecap="butt" fill-opacity="0.97638" opacity="1" stroke-linejoin="round"/>
<path stroke="#000000" stroke-width="1" d="M6802.13+7196.16C6802.13+7186.15+6810.39+7178.04+6820.57+7178.04C6830.76+7178.04+6839.01+7186.15+6839.01+7196.16C6839.01+7206.17+6830.76+7214.28+6820.57+7214.28C6810.39+7214.28+6802.13+7206.17+6802.13+7196.16Z" fill="#000000" stroke-linecap="butt" fill-opacity="0.97638" opacity="1" stroke-linejoin="round"/>
<path stroke="#000000" stroke-width="1" d="M6802.13+7268.42C6802.13+7258.41+6810.39+7250.29+6820.57+7250.29C6830.76+7250.29+6839.01+7258.41+6839.01+7268.42C6839.01+7278.43+6830.76+7286.54+6820.57+7286.54C6810.39+7286.54+6802.13+7278.43+6802.13+7268.42Z" fill="#000000" stroke-linecap="butt" fill-opacity="0.97638" opacity="1" stroke-linejoin="round"/>
<path stroke="#000000" stroke-width="1" d="M6802.13+7412.93C6802.13+7402.92+6810.39+7394.81+6820.57+7394.81C6830.76+7394.81+6839.01+7402.92+6839.01+7412.93C6839.01+7422.94+6830.76+7431.05+6820.57+7431.05C6810.39+7431.05+6802.13+7422.94+6802.13+7412.93Z" fill="#000000" stroke-linecap="butt" fill-opacity="0.97638" opacity="1" stroke-linejoin="round"/>
<path stroke="#000000" stroke-width="1" d="M6807.06+7494.87C6807.06+7484.86+6815.32+7476.75+6825.5+7476.75C6835.69+7476.75+6843.94+7484.86+6843.94+7494.87C6843.94+7504.88+6835.69+7512.99+6825.5+7512.99C6815.32+7512.99+6807.06+7504.88+6807.06+7494.87Z" fill="#000000" stroke-linecap="butt" fill-opacity="0.97638" opacity="1" stroke-linejoin="round"/>
<path stroke="#000000" stroke-width="1" d="M6807.06+7567.13C6807.06+7557.12+6815.32+7549+6825.5+7549C6835.69+7549+6843.94+7557.12+6843.94+7567.13C6843.94+7577.13+6835.69+7585.25+6825.5+7585.25C6815.32+7585.25+6807.06+7577.13+6807.06+7567.13Z" fill="#000000" stroke-linecap="butt" fill-opacity="0.97638" opacity="1" stroke-linejoin="round"/>
<path stroke="#000000" stroke-width="1" d="M6807.06+7639.38C6807.06+7629.38+6815.32+7621.26+6825.5+7621.26C6835.69+7621.26+6843.94+7629.38+6843.94+7639.38C6843.94+7649.39+6835.69+7657.51+6825.5+7657.51C6815.32+7657.51+6807.06+7649.39+6807.06+7639.38Z" fill="#000000" stroke-linecap="butt" fill-opacity="0.97638" opacity="1" stroke-linejoin="round"/>
<path stroke="#000000" stroke-width="1" d="M6807.06+7711.64C6807.06+7701.63+6815.32+7693.52+6825.5+7693.52C6835.69+7693.52+6843.94+7701.63+6843.94+7711.64C6843.94+7721.65+6835.69+7729.76+6825.5+7729.76C6815.32+7729.76+6807.06+7721.65+6807.06+7711.64Z" fill="#000000" stroke-linecap="butt" fill-opacity="0.97638" opacity="1" stroke-linejoin="round"/>
<path stroke="#000000" stroke-width="1" d="M6805.73+7782.36C6805.73+7772.35+6813.98+7764.24+6824.17+7764.24C6834.35+7764.24+6842.61+7772.35+6842.61+7782.36C6842.61+7792.37+6834.35+7800.48+6824.17+7800.48C6813.98+7800.48+6805.73+7792.37+6805.73+7782.36Z" fill="#ffffff" stroke-linecap="butt" opacity="1" stroke-linejoin="round"/>
<path stroke="#000000" stroke-width="1" d="M6805.73+7854.62C6805.73+7844.61+6813.98+7836.5+6824.17+7836.5C6834.35+7836.5+6842.61+7844.61+6842.61+7854.62C6842.61+7864.63+6834.35+7872.74+6824.17+7872.74C6813.98+7872.74+6805.73+7864.63+6805.73+7854.62Z" fill="#ffffff" stroke-linecap="butt" opacity="1" stroke-linejoin="round"/>
<path stroke="#000000" stroke-width="1" d="M6805.73+7926.87C6805.73+7916.87+6813.98+7908.75+6824.17+7908.75C6834.35+7908.75+6842.61+7916.87+6842.61+7926.87C6842.61+7936.88+6834.35+7945+6824.17+7945C6813.98+7945+6805.73+7936.88+6805.73+7926.87Z" fill="#ffffff" stroke-linecap="butt" opacity="1" stroke-linejoin="round"/>
<path stroke="#000000" stroke-width="1" d="M6807.06+7782.55C6807.06+7772.54+6815.32+7764.42+6825.5+7764.42C6835.69+7764.42+6843.94+7772.54+6843.94+7782.55C6843.94+7792.55+6835.69+7800.67+6825.5+7800.67C6815.32+7800.67+6807.06+7792.55+6807.06+7782.55Z" fill="#000000" stroke-linecap="butt" fill-opacity="0.97638" opacity="1" stroke-linejoin="round"/>
<path stroke="#000000" stroke-width="1" d="M6807.06+7854.8C6807.06+7844.8+6815.32+7836.68+6825.5+7836.68C6835.69+7836.68+6843.94+7844.79+6843.94+7854.8C6843.94+7864.81+6835.69+7872.93+6825.5+7872.93C6815.32+7872.93+6807.06+7864.81+6807.06+7854.8Z" fill="#000000" stroke-linecap="butt" fill-opacity="0.97638" opacity="1" stroke-linejoin="round"/>
<path stroke="#000000" stroke-width="1" d="M6807.06+7927.06C6807.06+7917.05+6815.32+7908.94+6825.5+7908.94C6835.69+7908.94+6843.94+7917.05+6843.94+7927.06C6843.94+7937.07+6835.69+7945.18+6825.5+7945.18C6815.32+7945.18+6807.06+7937.07+6807.06+7927.06Z" fill="#000000" stroke-linecap="butt" fill-opacity="0.97638" opacity="1" stroke-linejoin="round"/>
<path stroke="#000000" stroke-width="1" d="M6807.06+7999.32C6807.06+7989.31+6815.32+7981.2+6825.5+7981.2C6835.69+7981.2+6843.94+7989.31+6843.94+7999.32C6843.94+8009.33+6835.69+8017.44+6825.5+8017.44C6815.32+8017.44+6807.06+8009.33+6807.06+7999.32Z" fill="#000000" stroke-linecap="butt" fill-opacity="0.97638" opacity="1" stroke-linejoin="round"/>
<path stroke="#000000" stroke-width="1" d="M6805.73+8070.04C6805.73+8060.03+6813.98+8051.92+6824.17+8051.92C6834.35+8051.92+6842.61+8060.03+6842.61+8070.04C6842.61+8080.05+6834.35+8088.16+6824.17+8088.16C6813.98+8088.16+6805.73+8080.05+6805.73+8070.04Z" fill="#000000" stroke-linecap="butt" fill-opacity="0.97638" opacity="1" stroke-linejoin="round"/>
<path stroke="#000000" stroke-width="1" d="M6805.73+8142.29C6805.73+8132.29+6813.98+8124.17+6824.17+8124.17C6834.35+8124.17+6842.61+8132.29+6842.61+8142.29C6842.61+8152.3+6834.35+8160.42+6824.17+8160.42C6813.98+8160.42+6805.73+8152.3+6805.73+8142.29Z" fill="#000000" stroke-linecap="butt" fill-opacity="0.97638" opacity="1" stroke-linejoin="round"/>
<path stroke="#000000" stroke-width="1" d="M6805.73+8214.55C6805.73+8204.54+6813.98+8196.43+6824.17+8196.43C6834.35+8196.43+6842.61+8204.54+6842.61+8214.55C6842.61+8224.56+6834.35+8232.67+6824.17+8232.67C6813.98+8232.67+6805.73+8224.56+6805.73+8214.55Z" fill="#000000" stroke-linecap="butt" fill-opacity="0.97638" opacity="1" stroke-linejoin="round"/>
<path stroke="#000000" stroke-width="1" d="M6824.16+8268.67C6813.98+8268.67+6805.73+8276.82+6805.73+8286.83C6805.73+8296.84+6813.98+8304.92+6824.16+8304.92C6834.35+8304.92+6842.6+8296.84+6842.6+8286.83C6842.6+8276.82+6834.35+8268.67+6824.16+8268.67ZM6833.38+8285.48C6833.94+8285.46+6834.31+8285.46+6834.53+8285.48C6834.66+8285.47+6834.65+8285.52+6835.14+8285.75C6835.39+8286.07+6835.17+8286.26+6835.21+8286.43C6835.25+8286.44+6835.38+8286.49+6835.41+8286.49C6835.35+8286.49+6835.28+8286.61+6835.21+8286.63C6835.21+8286.68+6835.23+8286.77+6835.21+8286.83C6835.51+8286.63+6835.8+8286.31+6836.16+8286.49C6836.69+8286.76+6836.9+8287.38+6836.63+8287.92C6836.35+8288.49+6835.89+8288.68+6835.35+8288.66C6835.17+8288.66+6835.31+8288.62+6834.67+8288.53C6834.12+8288.45+6833.83+8288.51+6833.52+8288.59C6833.1+8288.7+6832.72+8288.97+6832.43+8289.54C6832.16+8290.08+6831.54+8290.29+6831.01+8290.02C6830.47+8289.75+6830.27+8289.06+6830.53+8288.53C6830.88+8287.83+6831.51+8287.66+6832.02+8287.31C6831.74+8287.11+6831.35+8287+6831.35+8286.63C6831.35+8286.03+6831.83+8285.55+6832.43+8285.55C6832.5+8285.55+6833.24+8285.48+6833.38+8285.48Z" fill="#000000" stroke-linecap="butt" fill-opacity="0.97638" opacity="1" stroke-linejoin="round"/>
<path stroke="#000000" stroke-width="1" d="M6822.77+6191.06C6823.92+6195.02+6822.22+6200.59+6825.38+6203.45C6875.07+6170.19+6931.47+6265.05+6872.9+6270.09C6873.82+6278.39+6874.74+6286.68+6875.66+6294.98C6983.34+6286.34+6879.95+6119.03+6822.77+6191.06" fill="#cbc3c3" stroke-linecap="butt" opacity="1" stroke-linejoin="round"/>
<path stroke="#000000" stroke-width="1" d="M6822.77+6264.79C6823.92+6268.75+6822.22+6274.31+6825.38+6277.17C6875.07+6243.91+6931.47+6338.77+6872.9+6343.81C6873.82+6352.11+6874.74+6360.41+6875.66+6368.71C6983.34+6360.06+6879.95+6192.75+6822.77+6264.79" fill="#cbc3c3" stroke-linecap="butt" opacity="1" stroke-linejoin="round"/>
<path stroke="#000000" stroke-width="1" d="M6822.77+6338.51C6823.92+6342.47+6822.22+6348.04+6825.38+6350.9C6875.07+6317.63+6931.47+6412.49+6872.9+6417.53C6873.82+6425.83+6874.74+6434.13+6875.66+6442.43C6983.34+6433.78+6879.95+6266.47+6822.77+6338.51" fill="#cbc3c3" stroke-linecap="butt" opacity="1" stroke-linejoin="round"/>
<path stroke="#000000" stroke-width="1" d="M6822.77+6410.06C6823.92+6414.02+6822.22+6419.59+6825.38+6422.45C6875.07+6389.19+6931.47+6484.05+6872.9+6489.08C6873.82+6497.38+6874.74+6505.68+6875.66+6513.98C6983.34+6505.33+6879.95+6338.03+6822.77+6410.06" fill="#cbc3c3" stroke-linecap="butt" opacity="1" stroke-linejoin="round"/>
<path stroke="#000000" stroke-width="1" d="M6822.77+6472.94C6823.92+6476.9+6822.22+6482.47+6825.38+6485.33C6875.07+6452.07+6931.47+6546.93+6872.9+6551.96C6873.82+6560.26+6874.74+6568.56+6875.66+6576.86C6983.34+6568.21+6879.95+6400.91+6822.77+6472.94" fill="#cbc3c3" stroke-linecap="butt" opacity="1" stroke-linejoin="round"/>
<path stroke="#000000" stroke-width="1" d="M6822.77+6540.16C6823.92+6544.12+6822.22+6549.69+6825.38+6552.55C6875.07+6519.28+6931.47+6614.15+6872.9+6619.18C6873.82+6627.48+6874.74+6635.78+6875.66+6644.08C6983.34+6635.43+6879.95+6468.12+6822.77+6540.16" fill="#cbc3c3" stroke-linecap="butt" opacity="1" stroke-linejoin="round"/>
<path stroke="#000000" stroke-width="1" d="M6822.77+6616.05C6823.92+6620.01+6822.22+6625.58+6825.38+6628.44C6875.07+6595.17+6931.47+6690.04+6872.9+6695.07C6873.82+6703.37+6874.74+6711.67+6875.66+6719.97C6983.34+6711.32+6879.95+6544.01+6822.77+6616.05" fill="#cbc3c3" stroke-linecap="butt" opacity="1" stroke-linejoin="round"/>
<path stroke="#000000" stroke-width="1" d="M6822.77+6687.6C6823.92+6691.56+6822.22+6697.13+6825.38+6699.99C6875.07+6666.73+6931.47+6761.59+6872.9+6766.62C6873.82+6774.92+6874.74+6783.22+6875.66+6791.52C6983.34+6782.87+6879.95+6615.57+6822.77+6687.6" fill="#cbc3c3" stroke-linecap="butt" opacity="1" stroke-linejoin="round"/>
<path stroke="#000000" stroke-width="1" d="M6822.77+6752.65C6823.92+6756.61+6822.22+6762.18+6825.38+6765.04C6875.07+6731.78+6931.47+6826.64+6872.9+6831.67C6873.82+6839.97+6874.74+6848.27+6875.66+6856.57C6983.34+6847.92+6879.95+6680.62+6822.77+6752.65" fill="#cbc3c3" stroke-linecap="butt" opacity="1" stroke-linejoin="round"/>
<path stroke="#000000" stroke-width="1" d="M6822.77+6824.2C6823.92+6828.16+6822.22+6833.73+6825.38+6836.59C6875.07+6803.33+6931.47+6898.19+6872.9+6903.23C6873.82+6911.52+6874.74+6919.82+6875.66+6928.12C6983.34+6919.47+6879.95+6752.17+6822.77+6824.2" fill="#cbc3c3" stroke-linecap="butt" opacity="1" stroke-linejoin="round"/>
<path stroke="#000000" stroke-width="1" d="M6822.77+6902.26C6823.92+6906.22+6822.22+6911.79+6825.38+6914.65C6875.07+6881.39+6931.47+6976.25+6872.9+6981.28C6873.82+6989.58+6874.74+6997.88+6875.66+7006.18C6983.34+6997.53+6879.95+6830.23+6822.77+6902.26" fill="#cbc3c3" stroke-linecap="butt" opacity="1" stroke-linejoin="round"/>
<path stroke="#000000" stroke-width="1" d="M6822.77+6971.65C6823.92+6975.61+6822.22+6981.17+6825.38+6984.03C6875.07+6950.77+6931.47+7045.63+6872.9+7050.67C6873.82+7058.97+6874.74+7067.27+6875.66+7075.57C6983.34+7066.92+6879.95+6899.61+6822.77+6971.65" fill="#cbc3c3" stroke-linecap="butt" opacity="1" stroke-linejoin="round"/>
<path stroke="#000000" stroke-width="1" d="M6822.77+7047.54C6823.92+7051.5+6822.22+7057.06+6825.38+7059.92C6875.07+7026.66+6931.47+7121.52+6872.9+7126.56C6873.82+7134.86+6874.74+7143.16+6875.66+7151.45C6983.34+7142.81+6879.95+6975.5+6822.77+7047.54" fill="#cbc3c3" stroke-linecap="butt" opacity="1" stroke-linejoin="round"/>
<path stroke="#000000" stroke-width="1" d="M6822.77+7116.92C6823.92+7120.88+6822.22+7126.45+6825.38+7129.31C6875.07+7096.05+6931.47+7190.91+6872.9+7195.94C6873.82+7204.24+6874.74+7212.54+6875.66+7220.84C6983.34+7212.19+6879.95+7044.89+6822.77+7116.92" fill="#cbc3c3" stroke-linecap="butt" opacity="1" stroke-linejoin="round"/>
<path stroke="#000000" stroke-width="1" d="M6822.77+7192.81C6823.92+7196.77+6822.22+7202.34+6825.38+7205.2C6875.07+7171.94+6931.47+7266.8+6872.9+7271.83C6873.82+7280.13+6874.74+7288.43+6875.66+7296.73C6983.34+7288.08+6879.95+7120.78+6822.77+7192.81" fill="#cbc3c3" stroke-linecap="butt" opacity="1" stroke-linejoin="round"/>
<path stroke="#000000" stroke-width="1" d="M6822.77+7266.53C6823.92+7270.49+6822.22+7276.06+6825.38+7278.92C6875.07+7245.66+6931.47+7340.52+6872.9+7345.55C6873.82+7353.85+6874.74+7362.15+6875.66+7370.45C6983.34+7361.8+6879.95+7194.5+6822.77+7266.53" fill="#cbc3c3" stroke-linecap="butt" opacity="1" stroke-linejoin="round"/>
<path stroke="#000000" stroke-width="1" d="M6822.77+7333.75C6823.92+7337.71+6822.22+7343.28+6825.38+7346.14C6875.07+7312.88+6931.47+7407.74+6872.9+7412.77C6873.82+7421.07+6874.74+7429.37+6875.66+7437.67C6983.34+7429.02+6879.95+7261.72+6822.77+7333.75" fill="#cbc3c3" stroke-linecap="butt" opacity="1" stroke-linejoin="round"/>
<path stroke="#000000" stroke-width="1" d="M6822.77+7409.64C6823.92+7413.6+6822.22+7419.17+6825.38+7422.03C6875.07+7388.77+6931.47+7483.63+6872.9+7488.66C6873.82+7496.96+6874.74+7505.26+6875.66+7513.56C6983.34+7504.91+6879.95+7337.61+6822.77+7409.64" fill="#cbc3c3" stroke-linecap="butt" opacity="1" stroke-linejoin="round"/>
<path stroke="#000000" stroke-width="1" d="M6822.77+7485.53C6823.92+7489.49+6822.22+7495.06+6825.38+7497.92C6875.07+7464.66+6931.47+7559.52+6872.9+7564.55C6873.82+7572.85+6874.74+7581.15+6875.66+7589.45C6983.34+7580.8+6879.95+7413.5+6822.77+7485.53" fill="#cbc3c3" stroke-linecap="butt" opacity="1" stroke-linejoin="round"/>
<path stroke="#000000" stroke-width="1" d="M6822.77+7561.42C6823.92+7565.38+6822.22+7570.95+6825.38+7573.81C6875.07+7540.55+6931.47+7635.41+6872.9+7640.44C6873.82+7648.74+6874.74+7657.04+6875.66+7665.34C6983.34+7656.69+6879.95+7489.39+6822.77+7561.42" fill="#cbc3c3" stroke-linecap="butt" opacity="1" stroke-linejoin="round"/>
<path stroke="#000000" stroke-width="1" d="M6822.77+7635.14C6823.92+7639.1+6822.22+7644.67+6825.38+7647.53C6875.07+7614.27+6931.47+7709.13+6872.9+7714.16C6873.82+7722.46+6874.74+7730.76+6875.66+7739.06C6983.34+7730.41+6879.95+7563.11+6822.77+7635.14" fill="#cbc3c3" stroke-linecap="butt" opacity="1" stroke-linejoin="round"/>
<path stroke="#000000" stroke-width="1" d="M6822.77+7702.36C6823.92+7706.32+6822.22+7711.89+6825.38+7714.74C6875.07+7681.48+6931.47+7776.34+6872.9+7781.38C6873.82+7789.68+6874.74+7797.98+6875.66+7806.28C6983.34+7797.63+6879.95+7630.32+6822.77+7702.36" fill="#cbc3c3" stroke-linecap="butt" opacity="1" stroke-linejoin="round"/>
<path stroke="#000000" stroke-width="1" d="M6822.77+7773.91C6823.92+7777.87+6822.22+7783.44+6825.38+7786.3C6875.07+7753.04+6931.47+7847.9+6872.9+7852.93C6873.82+7861.23+6874.74+7869.53+6875.66+7877.83C6983.34+7869.18+6879.95+7701.88+6822.77+7773.91" fill="#cbc3c3" stroke-linecap="butt" opacity="1" stroke-linejoin="round"/>
<path stroke="#000000" stroke-width="1" d="M6822.77+7845.46C6823.92+7849.42+6822.22+7854.99+6825.38+7857.85C6875.07+7824.59+6931.47+7919.45+6872.9+7924.49C6873.82+7932.78+6874.74+7941.08+6875.66+7949.38C6983.34+7940.73+6879.95+7773.43+6822.77+7845.46" fill="#cbc3c3" stroke-linecap="butt" opacity="1" stroke-linejoin="round"/>
<path stroke="#000000" stroke-width="1" d="M6822.77+7925.69C6823.92+7929.65+6822.22+7935.22+6825.38+7938.08C6875.07+7904.82+6931.47+7999.68+6872.9+8004.71C6873.82+8013.01+6874.74+8021.31+6875.66+8029.61C6983.34+8020.96+6879.95+7853.66+6822.77+7925.69" fill="#cbc3c3" stroke-linecap="butt" opacity="1" stroke-linejoin="round"/>
<path stroke="#000000" stroke-width="1" d="M6822.77+7995.08C6823.92+7999.03+6822.22+8004.6+6825.38+8007.46C6875.07+7974.2+6931.47+8069.06+6872.9+8074.1C6873.82+8082.4+6874.74+8090.7+6875.66+8098.99C6983.34+8090.35+6879.95+7923.04+6822.77+7995.08" fill="#cbc3c3" stroke-linecap="butt" opacity="1" stroke-linejoin="round"/>
<path stroke="#000000" stroke-width="1" d="M6822.77+8066.63C6823.92+8070.59+6822.22+8076.16+6825.38+8079.02C6875.07+8045.75+6931.47+8140.62+6872.9+8145.65C6873.82+8153.95+6874.74+8162.25+6875.66+8170.55C6983.34+8161.9+6879.95+7994.6+6822.77+8066.63" fill="#cbc3c3" stroke-linecap="butt" opacity="1" stroke-linejoin="round"/>
<path stroke="#000000" stroke-width="1" d="M6822.77+8140.35C6823.92+8144.31+6822.22+8149.88+6825.38+8152.74C6875.07+8119.48+6931.47+8214.34+6872.9+8219.37C6873.82+8227.67+6874.74+8235.97+6875.66+8244.27C6983.34+8235.62+6879.95+8068.32+6822.77+8140.35" fill="#cbc3c3" stroke-linecap="butt" opacity="1" stroke-linejoin="round"/>
<path stroke="#000000" stroke-width="1" d="M6822.77+8207.57C6823.92+8211.53+6822.22+8217.1+6825.38+8219.95C6875.07+8186.69+6931.47+8281.55+6872.9+8286.59C6873.82+8294.89+6874.74+8303.19+6875.66+8311.49C6983.34+8302.84+6879.95+8135.53+6822.77+8207.57" fill="#cbc3c3" stroke-linecap="butt" opacity="1" stroke-linejoin="round"/>
<path stroke="#000000" stroke-width="1" d="M6866.16+8287.87C6867.25+8287.87+6875.54+8287.39+6871.68+8287.39" fill="#cbc3c3" stroke-linecap="butt" opacity="1" stroke-linejoin="round"/>
<path stroke="#000000" stroke-width="1" d="M6825.21+8293.72C6836.9+8276.04+6894.6+8318.65+6892.64+8268.3C6865.77+8261.79+6787.83+8265.89+6825.21+8293.72" fill="#d0caca" stroke-linecap="butt" opacity="1" stroke-linejoin="round"/>
<path stroke="#000000" stroke-width="1" d="M799.777+169.62C780.798+169.62+765.52+184.956+765.52+203.877L765.522+15628.6C765.52+15647.5+780.799+15662.8+799.779+15662.8L11075.1+15662.8C11094.1+15662.8+11109.4+15647.5+11109.4+15628.6L11109.4+203.876C11109.3+184.954+11094.1+169.619+11075.1+169.619L799.777+169.62ZM10823.1+15101.6C10827+15101.5+10829.6+15101.4+10831.1+15101.6C10831.9+15101.6+10831.9+15101.9+10835.3+15103.5C10837+15105.7+10835.5+15107+10835.8+15108.2C10836.1+15108.2+10837+15108.6+10837.2+15108.6C10836.7+15108.6+10836.2+15109.4+10835.8+15109.6C10835.7+15109.9+10835.9+15110.5+10835.8+15111C10837.9+15109.6+10839.8+15107.4+10842.3+15108.6C10846+15110.5+10847.5+15114.8+10845.6+15118.5C10843.6+15122.4+10840.5+15123.7+10836.7+15123.6C10835.5+15123.6+10836.4+15123.3+10832+15122.7C10828.2+15122.2+10826.2+15122.6+10824+15123.2C10821.2+15123.9+10818.5+15125.8+10816.5+15129.7C10814.7+15133.4+10810.4+15134.9+10806.7+15133C10803+15131.2+10801.5+15126.4+10803.4+15122.7C10805.8+15117.9+10810.1+15116.7+10813.7+15114.3C10811.7+15112.9+10809+15112.2+10809+15109.6C10809+15105.4+10812.4+15102.1+10816.5+15102.1C10817+15102+10822.1+15101.6+10823.1+15101.6Z" fill="#ec8b30" stroke-linecap="butt" opacity="1" stroke-linejoin="round"/>
<path stroke="#000000" stroke-width="1" d="M10576.7+576.684C10576.7+507.367+10633.9+451.175+10704.4+451.175C10775+451.175+10832.2+507.367+10832.2+576.684C10832.2+646.001+10775+702.193+10704.4+702.193C10633.9+702.193+10576.7+646.001+10576.7+576.684Z" fill="#000000" stroke-linecap="butt" fill-opacity="0.97638" opacity="1" stroke-linejoin="round"/>
<path stroke="#000000" stroke-width="1" d="M10576.7+1080.06C10576.7+1010.74+10633.9+954.546+10704.4+954.546C10775+954.546+10832.2+1010.74+10832.2+1080.06C10832.2+1149.37+10775+1205.56+10704.4+1205.56C10633.9+1205.56+10576.7+1149.37+10576.7+1080.06Z" fill="#000000" stroke-linecap="butt" fill-opacity="0.97638" opacity="1" stroke-linejoin="round"/>
<path stroke="#000000" stroke-width="1" d="M10576.7+1580.49C10576.7+1511.17+10633.9+1454.98+10704.4+1454.98C10775+1454.98+10832.2+1511.17+10832.2+1580.49C10832.2+1649.81+10775+1706+10704.4+1706C10633.9+1706+10576.7+1649.81+10576.7+1580.49Z" fill="#000000" stroke-linecap="butt" fill-opacity="0.97638" opacity="1" stroke-linejoin="round"/>
<path stroke="#000000" stroke-width="1" d="M10576.7+2080.92C10576.7+2011.61+10633.9+1955.42+10704.4+1955.42C10775+1955.42+10832.2+2011.61+10832.2+2080.92C10832.2+2150.24+10775+2206.43+10704.4+2206.43C10633.9+2206.43+10576.7+2150.24+10576.7+2080.92Z" fill="#000000" stroke-linecap="butt" fill-opacity="0.97638" opacity="1" stroke-linejoin="round"/>
<path stroke="#000000" stroke-width="1" d="M10551.8+2524.98C10551.8+2455.66+10609+2399.47+10679.5+2399.47C10750.1+2399.47+10807.2+2455.66+10807.2+2524.98C10807.2+2594.29+10750.1+2650.49+10679.5+2650.49C10609+2650.49+10551.8+2594.29+10551.8+2524.98Z" fill="#000000" stroke-linecap="butt" fill-opacity="0.97638" opacity="1" stroke-linejoin="round"/>
<path stroke="#000000" stroke-width="1" d="M10551.8+3025.41C10551.8+2956.09+10609+2899.9+10679.5+2899.9C10750.1+2899.9+10807.2+2956.09+10807.2+3025.41C10807.2+3094.73+10750.1+3150.92+10679.5+3150.92C10609+3150.92+10551.8+3094.73+10551.8+3025.41Z" fill="#000000" stroke-linecap="butt" fill-opacity="0.97638" opacity="1" stroke-linejoin="round"/>
<path stroke="#000000" stroke-width="1" d="M10551.8+3525.85C10551.8+3456.53+10609+3400.34+10679.5+3400.34C10750.1+3400.34+10807.2+3456.53+10807.2+3525.85C10807.2+3595.16+10750.1+3651.36+10679.5+3651.36C10609+3651.36+10551.8+3595.16+10551.8+3525.85Z" fill="#000000" stroke-linecap="butt" fill-opacity="0.97638" opacity="1" stroke-linejoin="round"/>
<path stroke="#000000" stroke-width="1" d="M10551.8+4026.28C10551.8+3956.96+10609+3900.77+10679.5+3900.77C10750.1+3900.77+10807.2+3956.96+10807.2+4026.28C10807.2+4095.6+10750.1+4151.79+10679.5+4151.79C10609+4151.79+10551.8+4095.6+10551.8+4026.28Z" fill="#000000" stroke-linecap="butt" fill-opacity="0.97638" opacity="1" stroke-linejoin="round"/>
<path stroke="#000000" stroke-width="1" d="M10551.8+8530.19C10551.8+8460.87+10609+8404.68+10679.5+8404.68C10750.1+8404.68+10807.2+8460.87+10807.2+8530.19C10807.2+8599.51+10750.1+8655.7+10679.5+8655.7C10609+8655.7+10551.8+8599.51+10551.8+8530.19Z" fill="#000000" stroke-linecap="butt" fill-opacity="0.97638" opacity="1" stroke-linejoin="round"/>
<path stroke="#000000" stroke-width="1" d="M10551.8+4519.75C10551.8+4450.44+10609+4394.24+10679.5+4394.24C10750.1+4394.24+10807.2+4450.44+10807.2+4519.75C10807.2+4589.07+10750.1+4645.26+10679.5+4645.26C10609+4645.26+10551.8+4589.07+10551.8+4519.75Z" fill="#000000" stroke-linecap="butt" fill-opacity="0.97638" opacity="1" stroke-linejoin="round"/>
<path stroke="#000000" stroke-width="1" d="M10551.8+5020.19C10551.8+4950.87+10609+4894.68+10679.5+4894.68C10750.1+4894.68+10807.2+4950.87+10807.2+5020.19C10807.2+5089.5+10750.1+5145.7+10679.5+5145.7C10609+5145.7+10551.8+5089.5+10551.8+5020.19Z" fill="#000000" stroke-linecap="butt" fill-opacity="0.97638" opacity="1" stroke-linejoin="round"/>
<path stroke="#000000" stroke-width="1" d="M10551.8+5520.62C10551.8+5451.3+10609+5395.11+10679.5+5395.11C10750.1+5395.11+10807.2+5451.3+10807.2+5520.62C10807.2+5589.94+10750.1+5646.13+10679.5+5646.13C10609+5646.13+10551.8+5589.94+10551.8+5520.62Z" fill="#000000" stroke-linecap="butt" fill-opacity="0.97638" opacity="1" stroke-linejoin="round"/>
<path stroke="#000000" stroke-width="1" d="M10551.8+6021.06C10551.8+5951.74+10609+5895.55+10679.5+5895.55C10750.1+5895.55+10807.2+5951.74+10807.2+6021.06C10807.2+6090.37+10750.1+6146.56+10679.5+6146.56C10609+6146.56+10551.8+6090.37+10551.8+6021.06Z" fill="#000000" stroke-linecap="butt" fill-opacity="0.97638" opacity="1" stroke-linejoin="round"/>
<path stroke="#000000" stroke-width="1" d="M10551.8+6521.49C10551.8+6452.17+10609+6395.98+10679.5+6395.98C10750.1+6395.98+10807.2+6452.17+10807.2+6521.49C10807.2+6590.81+10750.1+6647+10679.5+6647C10609+6647+10551.8+6590.81+10551.8+6521.49Z" fill="#000000" stroke-linecap="butt" fill-opacity="0.97638" opacity="1" stroke-linejoin="round"/>
<path stroke="#000000" stroke-width="1" d="M10551.8+7021.92C10551.8+6952.61+10609+6896.42+10679.5+6896.42C10750.1+6896.42+10807.2+6952.61+10807.2+7021.92C10807.2+7091.24+10750.1+7147.43+10679.5+7147.43C10609+7147.43+10551.8+7091.24+10551.8+7021.92Z" fill="#000000" stroke-linecap="butt" fill-opacity="0.97638" opacity="1" stroke-linejoin="round"/>
<path stroke="#000000" stroke-width="1" d="M10551.8+7522.36C10551.8+7453.04+10609+7396.85+10679.5+7396.85C10750.1+7396.85+10807.2+7453.04+10807.2+7522.36C10807.2+7591.68+10750.1+7647.87+10679.5+7647.87C10609+7647.87+10551.8+7591.68+10551.8+7522.36Z" fill="#000000" stroke-linecap="butt" fill-opacity="0.97638" opacity="1" stroke-linejoin="round"/>
<path stroke="#000000" stroke-width="1" d="M10551.8+8022.79C10551.8+7953.48+10609+7897.28+10679.5+7897.28C10750.1+7897.28+10807.2+7953.48+10807.2+8022.79C10807.2+8092.11+10750.1+8148.3+10679.5+8148.3C10609+8148.3+10551.8+8092.11+10551.8+8022.79Z" fill="#000000" stroke-linecap="butt" fill-opacity="0.97638" opacity="1" stroke-linejoin="round"/>
<path stroke="#000000" stroke-width="1" d="M10551.8+9023.66C10551.8+8954.34+10609+8898.15+10679.5+8898.15C10750.1+8898.15+10807.2+8954.34+10807.2+9023.66C10807.2+9092.98+10750.1+9149.17+10679.5+9149.17C10609+9149.17+10551.8+9092.98+10551.8+9023.66Z" fill="#000000" stroke-linecap="butt" fill-opacity="0.97638" opacity="1" stroke-linejoin="round"/>
<path stroke="#000000" stroke-width="1" d="M10586+9591.13C10586+9521.82+10643.1+9465.63+10713.7+9465.63C10784.2+9465.63+10841.4+9521.82+10841.4+9591.13C10841.4+9660.45+10784.2+9716.64+10713.7+9716.64C10643.1+9716.64+10586+9660.45+10586+9591.13Z" fill="#000000" stroke-linecap="butt" fill-opacity="0.97638" opacity="1" stroke-linejoin="round"/>
<path stroke="#000000" stroke-width="1" d="M10586+10091.6C10586+10022.3+10643.1+9966.06+10713.7+9966.06C10784.2+9966.06+10841.4+10022.3+10841.4+10091.6C10841.4+10160.9+10784.2+10217.1+10713.7+10217.1C10643.1+10217.1+10586+10160.9+10586+10091.6Z" fill="#000000" stroke-linecap="butt" fill-opacity="0.97638" opacity="1" stroke-linejoin="round"/>
<path stroke="#000000" stroke-width="1" d="M10586+10592C10586+10522.7+10643.1+10466.5+10713.7+10466.5C10784.2+10466.5+10841.4+10522.7+10841.4+10592C10841.4+10661.3+10784.2+10717.5+10713.7+10717.5C10643.1+10717.5+10586+10661.3+10586+10592Z" fill="#000000" stroke-linecap="butt" fill-opacity="0.97638" opacity="1" stroke-linejoin="round"/>
<path stroke="#000000" stroke-width="1" d="M10586+11092.4C10586+11023.1+10643.1+10966.9+10713.7+10966.9C10784.2+10966.9+10841.4+11023.1+10841.4+11092.4C10841.4+11161.8+10784.2+11217.9+10713.7+11217.9C10643.1+11217.9+10586+11161.8+10586+11092.4Z" fill="#000000" stroke-linecap="butt" fill-opacity="0.97638" opacity="1" stroke-linejoin="round"/>
<path stroke="#000000" stroke-width="1" d="M10576.7+11582.2C10576.7+11512.9+10633.9+11456.7+10704.4+11456.7C10775+11456.7+10832.2+11512.9+10832.2+11582.2C10832.2+11651.5+10775+11707.7+10704.4+11707.7C10633.9+11707.7+10576.7+11651.5+10576.7+11582.2Z" fill="#ffffff" stroke-linecap="butt" opacity="1" stroke-linejoin="round"/>
<path stroke="#000000" stroke-width="1" d="M10576.7+12082.6C10576.7+12013.3+10633.9+11957.1+10704.4+11957.1C10775+11957.1+10832.2+12013.3+10832.2+12082.6C10832.2+12152+10775+12208.2+10704.4+12208.2C10633.9+12208.2+10576.7+12152+10576.7+12082.6Z" fill="#ffffff" stroke-linecap="butt" opacity="1" stroke-linejoin="round"/>
<path stroke="#000000" stroke-width="1" d="M10576.7+12583.1C10576.7+12513.8+10633.9+12457.6+10704.4+12457.6C10775+12457.6+10832.2+12513.8+10832.2+12583.1C10832.2+12652.4+10775+12708.6+10704.4+12708.6C10633.9+12708.6+10576.7+12652.4+10576.7+12583.1Z" fill="#ffffff" stroke-linecap="butt" opacity="1" stroke-linejoin="round"/>
<path stroke="#000000" stroke-width="1" d="M10586+11583.5C10586+11514.2+10643.1+11458+10713.7+11458C10784.2+11458+10841.4+11514.2+10841.4+11583.5C10841.4+11652.8+10784.2+11709+10713.7+11709C10643.1+11709+10586+11652.8+10586+11583.5Z" fill="#000000" stroke-linecap="butt" fill-opacity="0.97638" opacity="1" stroke-linejoin="round"/>
<path stroke="#000000" stroke-width="1" d="M10586+12083.9C10586+12014.6+10643.1+11958.4+10713.7+11958.4C10784.2+11958.4+10841.4+12014.6+10841.4+12083.9C10841.4+12153.3+10784.2+12209.4+10713.7+12209.4C10643.1+12209.4+10586+12153.3+10586+12083.9Z" fill="#000000" stroke-linecap="butt" fill-opacity="0.97638" opacity="1" stroke-linejoin="round"/>
<path stroke="#000000" stroke-width="1" d="M10586+12584.4C10586+12515.1+10643.1+12458.9+10713.7+12458.9C10784.2+12458.9+10841.4+12515.1+10841.4+12584.4C10841.4+12653.7+10784.2+12709.9+10713.7+12709.9C10643.1+12709.9+10586+12653.7+10586+12584.4Z" fill="#000000" stroke-linecap="butt" fill-opacity="0.97638" opacity="1" stroke-linejoin="round"/>
<path stroke="#000000" stroke-width="1" d="M10586+13084.8C10586+13015.5+10643.1+12959.3+10713.7+12959.3C10784.2+12959.3+10841.4+13015.5+10841.4+13084.8C10841.4+13154.1+10784.2+13210.3+10713.7+13210.3C10643.1+13210.3+10586+13154.1+10586+13084.8Z" fill="#000000" stroke-linecap="butt" fill-opacity="0.97638" opacity="1" stroke-linejoin="round"/>
<path stroke="#000000" stroke-width="1" d="M10576.7+13574.6C10576.7+13505.3+10633.9+13449.1+10704.4+13449.1C10775+13449.1+10832.2+13505.3+10832.2+13574.6C10832.2+13643.9+10775+13700.1+10704.4+13700.1C10633.9+13700.1+10576.7+13643.9+10576.7+13574.6Z" fill="#000000" stroke-linecap="butt" fill-opacity="0.97638" opacity="1" stroke-linejoin="round"/>
<path stroke="#000000" stroke-width="1" d="M10576.7+14075C10576.7+14005.7+10633.9+13949.5+10704.4+13949.5C10775+13949.5+10832.2+14005.7+10832.2+14075C10832.2+14144.3+10775+14200.5+10704.4+14200.5C10633.9+14200.5+10576.7+14144.3+10576.7+14075Z" fill="#000000" stroke-linecap="butt" fill-opacity="0.97638" opacity="1" stroke-linejoin="round"/>
<path stroke="#000000" stroke-width="1" d="M10576.7+14575.5C10576.7+14506.1+10633.9+14449.9+10704.4+14449.9C10775+14449.9+10832.2+14506.1+10832.2+14575.5C10832.2+14644.8+10775+14701+10704.4+14701C10633.9+14701+10576.7+14644.8+10576.7+14575.5Z" fill="#000000" stroke-linecap="butt" fill-opacity="0.97638" opacity="1" stroke-linejoin="round"/>
<path stroke="#000000" stroke-width="1" d="M10704.4+14950.3C10633.9+14950.3+10576.8+15006.7+10576.8+15076.1C10576.8+15145.4+10633.9+15201.4+10704.4+15201.4C10774.9+15201.4+10832+15145.4+10832+15076.1C10832+15006.7+10774.9+14950.3+10704.4+14950.3ZM10768.2+15066.7C10772.1+15066.5+10774.7+15066.5+10776.2+15066.7C10777.1+15066.6+10777+15067+10780.4+15068.5C10782.1+15070.8+10780.6+15072.1+10780.9+15073.2C10781.2+15073.3+10782.1+15073.7+10782.3+15073.7C10781.8+15073.7+10781.4+15074.5+10780.9+15074.6C10780.9+15075+10781+15075.6+10780.9+15076.1C10783+15074.6+10785+15072.5+10787.5+15073.7C10791.2+15075.6+10792.6+15079.9+10790.8+15083.6C10788.8+15087.5+10785.6+15088.8+10781.8+15088.7C10780.6+15088.7+10781.6+15088.4+10777.1+15087.8C10773.4+15087.3+10771.3+15087.7+10769.2+15088.3C10766.3+15089+10763.6+15090.8+10761.7+15094.8C10759.8+15098.5+10755.5+15100+10751.8+15098.1C10748.1+15096.3+10746.7+15091.5+10748.5+15087.8C10750.9+15083+10755.2+15081.8+10758.8+15079.3C10756.8+15078+10754.1+15077.2+10754.1+15074.6C10754.2+15070.5+10757.5+15067.1+10761.7+15067.1C10762.1+15067.1+10767.3+15066.7+10768.2+15066.7Z" fill="#000000" stroke-linecap="butt" fill-opacity="0.97638" opacity="1" stroke-linejoin="round"/>
<path stroke="#000000" stroke-width="1" d="M10694.8+561.359C10702.7+588.78+10690.9+627.35+10712.8+647.148C11057+416.794+11447.6+1073.77+11041.9+1108.64C11048.3+1166.12+11054.7+1223.59+11061.1+1281.07C11806.8+1221.18+11090.8+62.4746+10694.8+561.359" fill="#cbc3c3" stroke-linecap="butt" opacity="1" stroke-linejoin="round"/>
<path stroke="#000000" stroke-width="1" d="M10694.8+1071.93C10702.7+1099.35+10690.9+1137.92+10712.8+1157.72C11057+927.369+11447.6+1584.35+11041.9+1619.22C11048.3+1676.69+11054.7+1734.17+11061.1+1791.65C11806.8+1731.75+11090.8+573.049+10694.8+1071.93" fill="#cbc3c3" stroke-linecap="butt" opacity="1" stroke-linejoin="round"/>
<path stroke="#000000" stroke-width="1" d="M10694.8+1582.51C10702.7+1609.93+10690.9+1648.5+10712.8+1668.3C11057+1437.94+11447.6+2094.92+11041.9+2129.79C11048.3+2187.27+11054.7+2244.74+11061.1+2302.22C11806.8+2242.33+11090.8+1083.62+10694.8+1582.51" fill="#cbc3c3" stroke-linecap="butt" opacity="1" stroke-linejoin="round"/>
<path stroke="#000000" stroke-width="1" d="M10694.8+2078.07C10702.7+2105.49+10690.9+2144.06+10712.8+2163.86C11057+1933.5+11447.6+2590.48+11041.9+2625.35C11048.3+2682.83+11054.7+2740.3+11061.1+2797.78C11806.8+2737.88+11090.8+1579.18+10694.8+2078.07" fill="#cbc3c3" stroke-linecap="butt" opacity="1" stroke-linejoin="round"/>
<path stroke="#000000" stroke-width="1" d="M10694.8+2513.56C10702.7+2540.98+10690.9+2579.55+10712.8+2599.35C11057+2368.99+11447.6+3025.97+11041.9+3060.84C11048.3+3118.32+11054.7+3175.79+11061.1+3233.27C11806.8+3173.37+11090.8+2014.67+10694.8+2513.56" fill="#cbc3c3" stroke-linecap="butt" opacity="1" stroke-linejoin="round"/>
<path stroke="#000000" stroke-width="1" d="M10694.8+2979.08C10702.7+3006.5+10690.9+3045.07+10712.8+3064.87C11057+2834.52+11447.6+3491.49+11041.9+3526.36C11048.3+3583.84+11054.7+3641.32+11061.1+3698.79C11806.8+3638.9+11090.8+2480.2+10694.8+2979.08" fill="#cbc3c3" stroke-linecap="butt" opacity="1" stroke-linejoin="round"/>
<path stroke="#000000" stroke-width="1" d="M10694.8+3504.67C10702.7+3532.09+10690.9+3570.66+10712.8+3590.46C11057+3360.11+11447.6+4017.08+11041.9+4051.96C11048.3+4109.43+11054.7+4166.91+11061.1+4224.38C11806.8+4164.49+11090.8+3005.79+10694.8+3504.67" fill="#cbc3c3" stroke-linecap="butt" opacity="1" stroke-linejoin="round"/>
<path stroke="#000000" stroke-width="1" d="M10694.8+4000.23C10702.7+4027.65+10690.9+4066.22+10712.8+4086.02C11057+3855.66+11447.6+4512.64+11041.9+4547.51C11048.3+4604.99+11054.7+4662.47+11061.1+4719.94C11806.8+4660.05+11090.8+3501.35+10694.8+4000.23" fill="#cbc3c3" stroke-linecap="butt" opacity="1" stroke-linejoin="round"/>
<path stroke="#000000" stroke-width="1" d="M10694.8+4450.74C10702.7+4478.16+10690.9+4516.73+10712.8+4536.53C11057+4306.17+11447.6+4963.15+11041.9+4998.02C11048.3+5055.5+11054.7+5112.97+11061.1+5170.45C11806.8+5110.55+11090.8+3951.85+10694.8+4450.74" fill="#cbc3c3" stroke-linecap="butt" opacity="1" stroke-linejoin="round"/>
<path stroke="#000000" stroke-width="1" d="M10694.8+4946.29C10702.7+4973.71+10690.9+5012.29+10712.8+5032.08C11057+4801.73+11447.6+5458.71+11041.9+5493.58C11048.3+5551.05+11054.7+5608.53+11061.1+5666.01C11806.8+5606.11+11090.8+4447.41+10694.8+4946.29" fill="#cbc3c3" stroke-linecap="butt" opacity="1" stroke-linejoin="round"/>
<path stroke="#000000" stroke-width="1" d="M10694.8+5486.9C10702.7+5514.32+10690.9+5552.89+10712.8+5572.69C11057+5342.34+11447.6+5999.32+11041.9+6034.19C11048.3+6091.66+11054.7+6149.14+11061.1+6206.61C11806.8+6146.72+11090.8+4988.02+10694.8+5486.9" fill="#cbc3c3" stroke-linecap="butt" opacity="1" stroke-linejoin="round"/>
<path stroke="#000000" stroke-width="1" d="M10694.8+5967.44C10702.7+5994.86+10690.9+6033.43+10712.8+6053.23C11057+5822.88+11447.6+6479.86+11041.9+6514.73C11048.3+6572.2+11054.7+6629.68+11061.1+6687.16C11806.8+6627.26+11090.8+5468.56+10694.8+5967.44" fill="#cbc3c3" stroke-linecap="butt" opacity="1" stroke-linejoin="round"/>
<path stroke="#000000" stroke-width="1" d="M10694.8+6493.04C10702.7+6520.46+10690.9+6559.03+10712.8+6578.82C11057+6348.47+11447.6+7005.45+11041.9+7040.32C11048.3+7097.8+11054.7+7155.27+11061.1+7212.75C11806.8+7152.85+11090.8+5994.15+10694.8+6493.04" fill="#cbc3c3" stroke-linecap="butt" opacity="1" stroke-linejoin="round"/>
<path stroke="#000000" stroke-width="1" d="M10694.8+6973.58C10702.7+7001+10690.9+7039.57+10712.8+7059.37C11057+6829.01+11447.6+7485.99+11041.9+7520.86C11048.3+7578.34+11054.7+7635.81+11061.1+7693.29C11806.8+7633.39+11090.8+6474.69+10694.8+6973.58" fill="#cbc3c3" stroke-linecap="butt" opacity="1" stroke-linejoin="round"/>
<path stroke="#000000" stroke-width="1" d="M10694.8+7499.17C10702.7+7526.59+10690.9+7565.16+10712.8+7584.96C11057+7354.6+11447.6+8011.58+11041.9+8046.45C11048.3+8103.93+11054.7+8161.4+11061.1+8218.88C11806.8+8158.99+11090.8+7000.28+10694.8+7499.17" fill="#cbc3c3" stroke-linecap="butt" opacity="1" stroke-linejoin="round"/>
<path stroke="#000000" stroke-width="1" d="M10694.8+8009.74C10702.7+8037.16+10690.9+8075.73+10712.8+8095.53C11057+7865.18+11447.6+8522.16+11041.9+8557.03C11048.3+8614.5+11054.7+8671.98+11061.1+8729.45C11806.8+8669.56+11090.8+7510.86+10694.8+8009.74" fill="#cbc3c3" stroke-linecap="butt" opacity="1" stroke-linejoin="round"/>
<path stroke="#000000" stroke-width="1" d="M10694.8+8475.27C10702.7+8502.69+10690.9+8541.26+10712.8+8561.06C11057+8330.7+11447.6+8987.68+11041.9+9022.55C11048.3+9080.03+11054.7+9137.5+11061.1+9194.98C11806.8+9135.08+11090.8+7976.38+10694.8+8475.27" fill="#cbc3c3" stroke-linecap="butt" opacity="1" stroke-linejoin="round"/>
<path stroke="#000000" stroke-width="1" d="M10694.8+9000.86C10702.7+9028.28+10690.9+9066.85+10712.8+9086.65C11057+8856.29+11447.6+9513.27+11041.9+9548.14C11048.3+9605.62+11054.7+9663.09+11061.1+9720.57C11806.8+9660.68+11090.8+8501.97+10694.8+9000.86" fill="#cbc3c3" stroke-linecap="butt" opacity="1" stroke-linejoin="round"/>
<path stroke="#000000" stroke-width="1" d="M10694.8+9526.45C10702.7+9553.87+10690.9+9592.44+10712.8+9612.24C11057+9381.88+11447.6+10038.9+11041.9+10073.7C11048.3+10131.2+11054.7+10188.7+11061.1+10246.2C11806.8+10186.3+11090.8+9027.57+10694.8+9526.45" fill="#cbc3c3" stroke-linecap="butt" opacity="1" stroke-linejoin="round"/>
<path stroke="#000000" stroke-width="1" d="M10694.8+10052C10702.7+10079.5+10690.9+10118+10712.8+10137.8C11057+9907.48+11447.6+10564.5+11041.9+10599.3C11048.3+10656.8+11054.7+10714.3+11061.1+10771.8C11806.8+10711.9+11090.8+9553.16+10694.8+10052" fill="#cbc3c3" stroke-linecap="butt" opacity="1" stroke-linejoin="round"/>
<path stroke="#000000" stroke-width="1" d="M10694.8+10562.6C10702.7+10590+10690.9+10628.6+10712.8+10648.4C11057+10418.1+11447.6+11075+11041.9+11109.9C11048.3+11167.4+11054.7+11224.9+11061.1+11282.3C11806.8+11222.4+11090.8+10063.7+10694.8+10562.6" fill="#cbc3c3" stroke-linecap="butt" opacity="1" stroke-linejoin="round"/>
<path stroke="#000000" stroke-width="1" d="M10694.8+11028.1C10702.7+11055.6+10690.9+11094.1+10712.8+11113.9C11057+10883.6+11447.6+11540.6+11041.9+11575.4C11048.3+11632.9+11054.7+11690.4+11061.1+11747.9C11806.8+11688+11090.8+10529.3+10694.8+11028.1" fill="#cbc3c3" stroke-linecap="butt" opacity="1" stroke-linejoin="round"/>
<path stroke="#000000" stroke-width="1" d="M10694.8+11523.7C10702.7+11551.1+10690.9+11589.7+10712.8+11609.5C11057+11379.1+11447.6+12036.1+11041.9+12071C11048.3+12128.5+11054.7+12185.9+11061.1+12243.4C11806.8+12183.5+11090.8+11024.8+10694.8+11523.7" fill="#cbc3c3" stroke-linecap="butt" opacity="1" stroke-linejoin="round"/>
<path stroke="#000000" stroke-width="1" d="M10694.8+12019.3C10702.7+12046.7+10690.9+12085.2+10712.8+12105C11057+11874.7+11447.6+12531.7+11041.9+12566.5C11048.3+12624+11054.7+12681.5+11061.1+12739C11806.8+12679.1+11090.8+11520.4+10694.8+12019.3" fill="#cbc3c3" stroke-linecap="butt" opacity="1" stroke-linejoin="round"/>
<path stroke="#000000" stroke-width="1" d="M10694.8+12574.9C10702.7+12602.3+10690.9+12640.9+10712.8+12660.7C11057+12430.3+11447.6+13087.3+11041.9+13122.2C11048.3+13179.6+11054.7+13237.1+11061.1+13294.6C11806.8+13234.7+11090.8+12076+10694.8+12574.9" fill="#cbc3c3" stroke-linecap="butt" opacity="1" stroke-linejoin="round"/>
<path stroke="#000000" stroke-width="1" d="M10694.8+13055.4C10702.7+13082.8+10690.9+13121.4+10712.8+13141.2C11057+12910.9+11447.6+13567.8+11041.9+13602.7C11048.3+13660.2+11054.7+13717.7+11061.1+13775.1C11806.8+13715.2+11090.8+12556.5+10694.8+13055.4" fill="#cbc3c3" stroke-linecap="butt" opacity="1" stroke-linejoin="round"/>
<path stroke="#000000" stroke-width="1" d="M10694.8+13551C10702.7+13578.4+10690.9+13617+10712.8+13636.8C11057+13406.4+11447.6+14063.4+11041.9+14098.3C11048.3+14155.7+11054.7+14213.2+11061.1+14270.7C11806.8+14210.8+11090.8+13052.1+10694.8+13551" fill="#cbc3c3" stroke-linecap="butt" opacity="1" stroke-linejoin="round"/>
<path stroke="#000000" stroke-width="1" d="M10694.8+14061.6C10702.7+14089+10690.9+14127.5+10712.8+14147.3C11057+13917+11447.6+14574+11041.9+14608.8C11048.3+14666.3+11054.7+14723.8+11061.1+14781.3C11806.8+14721.4+11090.8+13562.7+10694.8+14061.6" fill="#cbc3c3" stroke-linecap="butt" opacity="1" stroke-linejoin="round"/>
<path stroke="#000000" stroke-width="1" d="M10694.8+14527.1C10702.7+14554.5+10690.9+14593.1+10712.8+14612.9C11057+14382.5+11447.6+15039.5+11041.9+15074.4C11048.3+15131.8+11054.7+15189.3+11061.1+15246.8C11806.8+15186.9+11090.8+14028.2+10694.8+14527.1" fill="#cbc3c3" stroke-linecap="butt" opacity="1" stroke-linejoin="round"/>
<path stroke="#000000" stroke-width="1" d="M10995.3+15083.2C11002.8+15083.2+11060.2+15079.9+11033.5+15079.9" fill="#cbc3c3" stroke-linecap="butt" opacity="1" stroke-linejoin="round"/>
<path stroke="#000000" stroke-width="1" d="M10711.7+15123.7C10792.6+15001.3+11192.2+15296.4+11178.7+14947.7C10992.5+14902.6+10452.7+14931+10711.7+15123.7" fill="#d0caca" stroke-linecap="butt" opacity="1" stroke-linejoin="round"/>
<path stroke="#000000" stroke-width="1" d="M778.72+185.282L778.72+185.282C808.723+185.282+833.046+389.973+833.046+642.471L833.046+15200C833.046+15452.5+808.723+15657.1+778.72+15657.1L778.72+15657.1C748.718+15657.1+724.395+15452.5+724.395+15200L724.395+642.471C724.395+389.973+748.718+185.282+778.72+185.282Z" fill="#ec8b30" stroke-linecap="round" opacity="1" stroke-linejoin="round"/>
<path stroke="#000000" stroke-width="1" d="M761.658+185.898L833.482+185.898L833.482+15665.6L761.658+15665.6L761.658+185.898Z" fill="#ffffff" stroke-linecap="butt" opacity="1" stroke-linejoin="round"/>
<path stroke="#000000" stroke-width="1" d="M2474.52+15541.7L2495.44+15541.7L2495.44+15562.7L2474.52+15562.7L2474.52+15541.7Z" fill="#ffffff" stroke-linecap="butt" opacity="1" stroke-linejoin="round"/>
</g>
</svg>
