<?xml version="1.0" encoding="UTF-8" standalone="no"?> <!-- Created with Vectornator for iOS (http://vectornator.io/) --><!DOCTYPE svg PUBLIC "-//W3C//DTD SVG 1.1//EN" "http://www.w3.org/Graphics/SVG/1.1/DTD/svg11.dtd">
<svg style="fill-rule:evenodd;clip-rule:evenodd;stroke-linecap:round;stroke-linejoin:round;" xmlns:vectornator="http://vectornator.io" xmlns:xlink="http://www.w3.org/1999/xlink" xmlns="http://www.w3.org/2000/svg" xml:space="preserve" version="1.1" viewBox="0 0 1000 1400">
<metadata>
<vectornator:setting key="DimensionsVisible" value="1"/>
<vectornator:setting key="SnapToGrid" value="0"/>
<vectornator:setting key="SnapToPoints" value="0"/>
<vectornator:setting key="GuidesVisible" value="1"/>
<vectornator:setting key="RulersVisible" value="1"/>
<vectornator:setting key="SnapToEdges" value="0"/>
<vectornator:setting key="DisplayWhiteBackground" value="0"/>
<vectornator:setting key="SnapToGuides" value="1"/>
<vectornator:setting key="GridSpacing" value="36"/>
<vectornator:setting key="Units" value="Pixels"/>
<vectornator:setting key="DynamicGuides" value="0"/>
<vectornator:setting key="New" value="1"/>
</metadata>
<defs/>
<g id="レイヤー 1" vectornator:layerName="レイヤー 1">
<path stroke="#000000" stroke-width="1" d="M134.925+48.3235C133.524+48.3235+132.397+49.5824+132.397+51.1355L132.397+1317.27C132.397+1318.83+133.524+1320.08+134.925+1320.08L893.074+1320.08C894.475+1320.08+895.602+1318.83+895.602+1317.27L895.602+51.1355C895.602+49.5823+894.475+48.3235+893.074+48.3235L134.925+48.3235ZM874.481+1274.01C874.767+1274+874.958+1274+875.069+1274.01C875.133+1274.01+875.128+1274.04+875.381+1274.17C875.505+1274.35+875.395+1274.46+875.415+1274.55C875.437+1274.56+875.505+1274.59+875.519+1274.59C875.486+1274.59+875.45+1274.66+875.415+1274.67C875.413+1274.7+875.425+1274.75+875.415+1274.78C875.57+1274.67+875.717+1274.49+875.9+1274.59C876.174+1274.74+876.279+1275.1+876.143+1275.4C875.996+1275.73+875.763+1275.83+875.485+1275.82C875.393+1275.82+875.466+1275.8+875.138+1275.75C874.861+1275.71+874.709+1275.74+874.55+1275.79C874.339+1275.85+874.143+1276+873.996+1276.33C873.859+1276.63+873.542+1276.75+873.269+1276.59C872.995+1276.44+872.889+1276.05+873.026+1275.75C873.204+1275.35+873.522+1275.25+873.788+1275.05C873.641+1274.94+873.442+1274.88+873.442+1274.67C873.442+1274.33+873.69+1274.05+873.996+1274.05C874.031+1274.05+874.409+1274.02+874.481+1274.01Z" fill="#ffffff" stroke-linecap="butt" opacity="1" stroke-linejoin="round"/>
<path stroke="#000000" stroke-width="1" d="M860.35+84.6033C860.35+78.9135+864.569+74.3009+869.774+74.3009C874.978+74.3009+879.197+78.9135+879.197+84.6033C879.197+90.2932+874.978+94.9058+869.774+94.9058C864.569+94.9058+860.35+90.2932+860.35+84.6033Z" fill="#000000" stroke-linecap="butt" fill-opacity="0.97638" opacity="1" stroke-linejoin="round"/>
<path stroke="#000000" stroke-width="1" d="M860.35+125.923C860.35+120.233+864.569+115.62+869.774+115.62C874.978+115.62+879.197+120.233+879.197+125.923C879.197+131.612+874.978+136.225+869.774+136.225C864.569+136.225+860.35+131.612+860.35+125.923Z" fill="#000000" stroke-linecap="butt" fill-opacity="0.97638" opacity="1" stroke-linejoin="round"/>
<path stroke="#000000" stroke-width="1" d="M860.35+167.001C860.35+161.311+864.569+156.698+869.774+156.698C874.978+156.698+879.197+161.311+879.197+167.001C879.197+172.691+874.978+177.303+869.774+177.303C864.569+177.303+860.35+172.691+860.35+167.001Z" fill="#000000" stroke-linecap="butt" fill-opacity="0.97638" opacity="1" stroke-linejoin="round"/>
<path stroke="#000000" stroke-width="1" d="M860.35+208.079C860.35+202.389+864.569+197.776+869.774+197.776C874.978+197.776+879.197+202.389+879.197+208.079C879.197+213.769+874.978+218.381+869.774+218.381C864.569+218.381+860.35+213.769+860.35+208.079Z" fill="#000000" stroke-linecap="butt" fill-opacity="0.97638" opacity="1" stroke-linejoin="round"/>
<path stroke="#000000" stroke-width="1" d="M858.512+244.529C858.512+238.839+862.731+234.227+867.935+234.227C873.14+234.227+877.359+238.839+877.359+244.529C877.359+250.219+873.14+254.831+867.935+254.831C862.731+254.831+858.512+250.219+858.512+244.529Z" fill="#000000" stroke-linecap="butt" fill-opacity="0.97638" opacity="1" stroke-linejoin="round"/>
<path stroke="#000000" stroke-width="1" d="M858.512+285.607C858.512+279.917+862.731+275.305+867.935+275.305C873.14+275.305+877.359+279.917+877.359+285.607C877.359+291.297+873.14+295.91+867.935+295.91C862.731+295.91+858.512+291.297+858.512+285.607Z" fill="#000000" stroke-linecap="butt" fill-opacity="0.97638" opacity="1" stroke-linejoin="round"/>
<path stroke="#000000" stroke-width="1" d="M858.512+326.685C858.512+320.995+862.731+316.383+867.935+316.383C873.14+316.383+877.359+320.995+877.359+326.685C877.359+332.375+873.14+336.988+867.935+336.988C862.731+336.988+858.512+332.375+858.512+326.685Z" fill="#000000" stroke-linecap="butt" fill-opacity="0.97638" opacity="1" stroke-linejoin="round"/>
<path stroke="#000000" stroke-width="1" d="M858.512+367.764C858.512+362.074+862.731+357.461+867.935+357.461C873.14+357.461+877.359+362.074+877.359+367.764C877.359+373.453+873.14+378.066+867.935+378.066C862.731+378.066+858.512+373.453+858.512+367.764Z" fill="#000000" stroke-linecap="butt" fill-opacity="0.97638" opacity="1" stroke-linejoin="round"/>
<path stroke="#000000" stroke-width="1" d="M858.512+737.467C858.512+731.777+862.731+727.165+867.935+727.165C873.14+727.165+877.359+731.777+877.359+737.467C877.359+743.157+873.14+747.769+867.935+747.769C862.731+747.769+858.512+743.157+858.512+737.467Z" fill="#000000" stroke-linecap="butt" fill-opacity="0.97638" opacity="1" stroke-linejoin="round"/>
<path stroke="#000000" stroke-width="1" d="M858.512+408.27C858.512+402.58+862.731+397.968+867.935+397.968C873.14+397.968+877.359+402.58+877.359+408.27C877.359+413.96+873.14+418.573+867.935+418.573C862.731+418.573+858.512+413.96+858.512+408.27Z" fill="#000000" stroke-linecap="butt" fill-opacity="0.97638" opacity="1" stroke-linejoin="round"/>
<path stroke="#000000" stroke-width="1" d="M858.512+449.348C858.512+443.658+862.731+439.046+867.935+439.046C873.14+439.046+877.359+443.658+877.359+449.348C877.359+455.038+873.14+459.651+867.935+459.651C862.731+459.651+858.512+455.038+858.512+449.348Z" fill="#000000" stroke-linecap="butt" fill-opacity="0.97638" opacity="1" stroke-linejoin="round"/>
<path stroke="#000000" stroke-width="1" d="M858.512+490.426C858.512+484.737+862.731+480.124+867.935+480.124C873.14+480.124+877.359+484.737+877.359+490.426C877.359+496.116+873.14+500.729+867.935+500.729C862.731+500.729+858.512+496.116+858.512+490.426Z" fill="#000000" stroke-linecap="butt" fill-opacity="0.97638" opacity="1" stroke-linejoin="round"/>
<path stroke="#000000" stroke-width="1" d="M858.512+531.505C858.512+525.815+862.731+521.202+867.935+521.202C873.14+521.202+877.359+525.815+877.359+531.505C877.359+537.195+873.14+541.807+867.935+541.807C862.731+541.807+858.512+537.195+858.512+531.505Z" fill="#000000" stroke-linecap="butt" fill-opacity="0.97638" opacity="1" stroke-linejoin="round"/>
<path stroke="#000000" stroke-width="1" d="M858.512+572.583C858.512+566.893+862.731+562.28+867.935+562.28C873.14+562.28+877.359+566.893+877.359+572.583C877.359+578.273+873.14+582.885+867.935+582.885C862.731+582.885+858.512+578.273+858.512+572.583Z" fill="#000000" stroke-linecap="butt" fill-opacity="0.97638" opacity="1" stroke-linejoin="round"/>
<path stroke="#000000" stroke-width="1" d="M858.512+613.661C858.512+607.971+862.731+603.359+867.935+603.359C873.14+603.359+877.359+607.971+877.359+613.661C877.359+619.351+873.14+623.963+867.935+623.963C862.731+623.963+858.512+619.351+858.512+613.661Z" fill="#000000" stroke-linecap="butt" fill-opacity="0.97638" opacity="1" stroke-linejoin="round"/>
<path stroke="#000000" stroke-width="1" d="M858.512+654.739C858.512+649.049+862.731+644.437+867.935+644.437C873.14+644.437+877.359+649.049+877.359+654.739C877.359+660.429+873.14+665.042+867.935+665.042C862.731+665.042+858.512+660.429+858.512+654.739Z" fill="#000000" stroke-linecap="butt" fill-opacity="0.97638" opacity="1" stroke-linejoin="round"/>
<path stroke="#000000" stroke-width="1" d="M858.512+695.817C858.512+690.127+862.731+685.515+867.935+685.515C873.14+685.515+877.359+690.127+877.359+695.817C877.359+701.507+873.14+706.12+867.935+706.12C862.731+706.12+858.512+701.507+858.512+695.817Z" fill="#000000" stroke-linecap="butt" fill-opacity="0.97638" opacity="1" stroke-linejoin="round"/>
<path stroke="#000000" stroke-width="1" d="M858.512+777.974C858.512+772.284+862.731+767.671+867.935+767.671C873.14+767.671+877.359+772.284+877.359+777.974C877.359+783.664+873.14+788.276+867.935+788.276C862.731+788.276+858.512+783.664+858.512+777.974Z" fill="#000000" stroke-linecap="butt" fill-opacity="0.97638" opacity="1" stroke-linejoin="round"/>
<path stroke="#000000" stroke-width="1" d="M861.032+824.555C861.032+818.865+865.251+814.252+870.455+814.252C875.66+814.252+879.879+818.865+879.879+824.555C879.879+830.244+875.66+834.857+870.455+834.857C865.251+834.857+861.032+830.244+861.032+824.555Z" fill="#000000" stroke-linecap="butt" fill-opacity="0.97638" opacity="1" stroke-linejoin="round"/>
<path stroke="#000000" stroke-width="1" d="M861.032+865.633C861.032+859.943+865.251+855.33+870.455+855.33C875.66+855.33+879.879+859.943+879.879+865.633C879.879+871.323+875.66+875.935+870.455+875.935C865.251+875.935+861.032+871.323+861.032+865.633Z" fill="#000000" stroke-linecap="butt" fill-opacity="0.97638" opacity="1" stroke-linejoin="round"/>
<path stroke="#000000" stroke-width="1" d="M861.032+906.711C861.032+901.021+865.251+896.409+870.455+896.409C875.66+896.409+879.879+901.021+879.879+906.711C879.879+912.401+875.66+917.013+870.455+917.013C865.251+917.013+861.032+912.401+861.032+906.711Z" fill="#000000" stroke-linecap="butt" fill-opacity="0.97638" opacity="1" stroke-linejoin="round"/>
<path stroke="#000000" stroke-width="1" d="M861.032+947.789C861.032+942.099+865.251+937.487+870.455+937.487C875.66+937.487+879.879+942.099+879.879+947.789C879.879+953.479+875.66+958.092+870.455+958.092C865.251+958.092+861.032+953.479+861.032+947.789Z" fill="#000000" stroke-linecap="butt" fill-opacity="0.97638" opacity="1" stroke-linejoin="round"/>
<path stroke="#000000" stroke-width="1" d="M860.35+987.993C860.35+982.303+864.569+977.69+869.774+977.69C874.978+977.69+879.197+982.303+879.197+987.993C879.197+993.682+874.978+998.295+869.774+998.295C864.569+998.295+860.35+993.682+860.35+987.993Z" fill="#ffffff" stroke-linecap="butt" opacity="1" stroke-linejoin="round"/>
<path stroke="#000000" stroke-width="1" d="M860.35+1029.07C860.35+1023.38+864.569+1018.77+869.774+1018.77C874.978+1018.77+879.197+1023.38+879.197+1029.07C879.197+1034.76+874.978+1039.37+869.774+1039.37C864.569+1039.37+860.35+1034.76+860.35+1029.07Z" fill="#ffffff" stroke-linecap="butt" opacity="1" stroke-linejoin="round"/>
<path stroke="#000000" stroke-width="1" d="M860.35+1070.15C860.35+1064.46+864.569+1059.85+869.774+1059.85C874.978+1059.85+879.197+1064.46+879.197+1070.15C879.197+1075.84+874.978+1080.45+869.774+1080.45C864.569+1080.45+860.35+1075.84+860.35+1070.15Z" fill="#ffffff" stroke-linecap="butt" opacity="1" stroke-linejoin="round"/>
<path stroke="#000000" stroke-width="1" d="M861.032+988.098C861.032+982.409+865.251+977.796+870.455+977.796C875.66+977.796+879.879+982.409+879.879+988.098C879.879+993.788+875.66+998.401+870.455+998.401C865.251+998.401+861.032+993.788+861.032+988.098Z" fill="#000000" stroke-linecap="butt" fill-opacity="0.97638" opacity="1" stroke-linejoin="round"/>
<path stroke="#000000" stroke-width="1" d="M861.032+1029.18C861.032+1023.49+865.251+1018.87+870.455+1018.87C875.66+1018.87+879.879+1023.49+879.879+1029.18C879.879+1034.87+875.66+1039.48+870.455+1039.48C865.251+1039.48+861.032+1034.87+861.032+1029.18Z" fill="#000000" stroke-linecap="butt" fill-opacity="0.97638" opacity="1" stroke-linejoin="round"/>
<path stroke="#000000" stroke-width="1" d="M861.032+1070.25C861.032+1064.56+865.251+1059.95+870.455+1059.95C875.66+1059.95+879.879+1064.56+879.879+1070.25C879.879+1075.94+875.66+1080.56+870.455+1080.56C865.251+1080.56+861.032+1075.94+861.032+1070.25Z" fill="#000000" stroke-linecap="butt" fill-opacity="0.97638" opacity="1" stroke-linejoin="round"/>
<path stroke="#000000" stroke-width="1" d="M861.032+1111.33C861.032+1105.64+865.251+1101.03+870.455+1101.03C875.66+1101.03+879.879+1105.64+879.879+1111.33C879.879+1117.02+875.66+1121.64+870.455+1121.64C865.251+1121.64+861.032+1117.02+861.032+1111.33Z" fill="#000000" stroke-linecap="butt" fill-opacity="0.97638" opacity="1" stroke-linejoin="round"/>
<path stroke="#000000" stroke-width="1" d="M860.35+1151.54C860.35+1145.85+864.569+1141.23+869.774+1141.23C874.978+1141.23+879.197+1145.85+879.197+1151.54C879.197+1157.23+874.978+1161.84+869.774+1161.84C864.569+1161.84+860.35+1157.23+860.35+1151.54Z" fill="#000000" stroke-linecap="butt" fill-opacity="0.97638" opacity="1" stroke-linejoin="round"/>
<path stroke="#000000" stroke-width="1" d="M860.35+1192.61C860.35+1186.92+864.569+1182.31+869.774+1182.31C874.978+1182.31+879.197+1186.92+879.197+1192.61C879.197+1198.3+874.978+1202.92+869.774+1202.92C864.569+1202.92+860.35+1198.3+860.35+1192.61Z" fill="#000000" stroke-linecap="butt" fill-opacity="0.97638" opacity="1" stroke-linejoin="round"/>
<path stroke="#000000" stroke-width="1" d="M860.35+1233.69C860.35+1228+864.569+1223.39+869.774+1223.39C874.978+1223.39+879.197+1228+879.197+1233.69C879.197+1239.38+874.978+1244+869.774+1244C864.569+1244+860.35+1239.38+860.35+1233.69Z" fill="#000000" stroke-linecap="butt" fill-opacity="0.97638" opacity="1" stroke-linejoin="round"/>
<path stroke="#000000" stroke-width="1" d="M869.772+1264.46C864.567+1264.46+860.354+1269.09+860.354+1274.78C860.354+1280.47+864.567+1285.07+869.772+1285.07C874.976+1285.07+879.19+1280.47+879.19+1274.78C879.19+1269.09+874.976+1264.46+869.772+1264.46ZM874.481+1274.01C874.767+1274+874.958+1274+875.069+1274.01C875.133+1274.01+875.128+1274.04+875.381+1274.17C875.505+1274.35+875.395+1274.46+875.415+1274.55C875.437+1274.56+875.505+1274.59+875.519+1274.59C875.486+1274.59+875.45+1274.66+875.415+1274.67C875.413+1274.7+875.425+1274.75+875.415+1274.78C875.57+1274.67+875.717+1274.49+875.9+1274.59C876.174+1274.74+876.279+1275.1+876.143+1275.4C875.996+1275.73+875.763+1275.83+875.485+1275.82C875.393+1275.82+875.466+1275.8+875.138+1275.75C874.861+1275.71+874.709+1275.74+874.55+1275.79C874.339+1275.85+874.143+1276+873.996+1276.33C873.859+1276.63+873.542+1276.75+873.269+1276.59C872.995+1276.44+872.889+1276.05+873.026+1275.75C873.204+1275.35+873.522+1275.25+873.788+1275.05C873.641+1274.94+873.442+1274.88+873.442+1274.67C873.442+1274.33+873.69+1274.05+873.996+1274.05C874.031+1274.05+874.409+1274.02+874.481+1274.01Z" fill="#000000" stroke-linecap="butt" fill-opacity="0.97638" opacity="1" stroke-linejoin="round"/>
<path stroke="#000000" stroke-width="1" d="M869.06+83.3454C869.649+85.5962+868.776+88.7623+870.394+90.3874C895.784+71.4788+924.605+125.407+894.676+128.269C895.147+132.987+895.617+137.705+896.088+142.423C951.109+137.507+898.28+42.3945+869.06+83.3454" fill="#cbc3c3" stroke-linecap="butt" opacity="1" stroke-linejoin="round"/>
<path stroke="#000000" stroke-width="1" d="M869.06+125.256C869.649+127.507+868.776+130.673+870.394+132.298C895.784+113.389+924.605+167.317+894.676+170.18C895.147+174.898+895.617+179.616+896.088+184.333C951.109+179.417+898.28+84.305+869.06+125.256" fill="#cbc3c3" stroke-linecap="butt" opacity="1" stroke-linejoin="round"/>
<path stroke="#000000" stroke-width="1" d="M869.06+167.166C869.649+169.417+868.776+172.583+870.394+174.208C895.784+155.3+924.605+209.228+894.676+212.09C895.147+216.808+895.617+221.526+896.088+226.244C951.109+221.328+898.28+126.216+869.06+167.166" fill="#cbc3c3" stroke-linecap="butt" opacity="1" stroke-linejoin="round"/>
<path stroke="#000000" stroke-width="1" d="M869.06+207.844C869.649+210.095+868.776+213.261+870.394+214.886C895.784+195.978+924.605+249.906+894.676+252.768C895.147+257.486+895.617+262.204+896.088+266.922C951.109+262.005+898.28+166.893+869.06+207.844" fill="#cbc3c3" stroke-linecap="butt" opacity="1" stroke-linejoin="round"/>
<path stroke="#000000" stroke-width="1" d="M869.06+243.592C869.649+245.842+868.776+249.008+870.394+250.634C895.784+231.725+924.605+285.653+894.676+288.515C895.147+293.233+895.617+297.951+896.088+302.669C951.109+297.753+898.28+202.641+869.06+243.592" fill="#cbc3c3" stroke-linecap="butt" opacity="1" stroke-linejoin="round"/>
<path stroke="#000000" stroke-width="1" d="M869.06+281.804C869.649+284.055+868.776+287.221+870.394+288.846C895.784+269.937+924.605+323.866+894.676+326.728C895.147+331.446+895.617+336.164+896.088+340.882C951.109+335.965+898.28+240.853+869.06+281.804" fill="#cbc3c3" stroke-linecap="butt" opacity="1" stroke-linejoin="round"/>
<path stroke="#000000" stroke-width="1" d="M869.06+324.947C869.649+327.198+868.776+330.364+870.394+331.989C895.784+313.081+924.605+367.009+894.676+369.871C895.147+374.589+895.617+379.307+896.088+384.025C951.109+379.108+898.28+283.996+869.06+324.947" fill="#cbc3c3" stroke-linecap="butt" opacity="1" stroke-linejoin="round"/>
<path stroke="#000000" stroke-width="1" d="M869.06+365.625C869.649+367.876+868.776+371.042+870.394+372.667C895.784+353.759+924.605+407.687+894.676+410.549C895.147+415.267+895.617+419.985+896.088+424.703C951.109+419.786+898.28+324.674+869.06+365.625" fill="#cbc3c3" stroke-linecap="butt" opacity="1" stroke-linejoin="round"/>
<path stroke="#000000" stroke-width="1" d="M869.06+402.605C869.649+404.856+868.776+408.022+870.394+409.647C895.784+390.738+924.605+444.666+894.676+447.529C895.147+452.247+895.617+456.965+896.088+461.683C951.109+456.766+898.28+361.654+869.06+402.605" fill="#cbc3c3" stroke-linecap="butt" opacity="1" stroke-linejoin="round"/>
<path stroke="#000000" stroke-width="1" d="M869.06+443.283C869.649+445.534+868.776+448.7+870.394+450.325C895.784+431.416+924.605+485.344+894.676+488.207C895.147+492.925+895.617+497.643+896.088+502.36C951.109+497.444+898.28+402.332+869.06+443.283" fill="#cbc3c3" stroke-linecap="butt" opacity="1" stroke-linejoin="round"/>
<path stroke="#000000" stroke-width="1" d="M869.06+487.659C869.649+489.91+868.776+493.076+870.394+494.701C895.784+475.792+924.605+529.72+894.676+532.583C895.147+537.3+895.617+542.018+896.088+546.736C951.109+541.82+898.28+446.708+869.06+487.659" fill="#cbc3c3" stroke-linecap="butt" opacity="1" stroke-linejoin="round"/>
<path stroke="#000000" stroke-width="1" d="M869.06+527.104C869.649+529.355+868.776+532.521+870.394+534.146C895.784+515.237+924.605+569.165+894.676+572.028C895.147+576.746+895.617+581.464+896.088+586.181C951.109+581.265+898.28+486.153+869.06+527.104" fill="#cbc3c3" stroke-linecap="butt" opacity="1" stroke-linejoin="round"/>
<path stroke="#000000" stroke-width="1" d="M869.06+570.247C869.649+572.498+868.776+575.664+870.394+577.289C895.784+558.381+924.605+612.309+894.676+615.171C895.147+619.889+895.617+624.607+896.088+629.325C951.109+624.408+898.28+529.296+869.06+570.247" fill="#cbc3c3" stroke-linecap="butt" opacity="1" stroke-linejoin="round"/>
<path stroke="#000000" stroke-width="1" d="M869.06+609.692C869.649+611.943+868.776+615.109+870.394+616.734C895.784+597.826+924.605+651.754+894.676+654.616C895.147+659.334+895.617+664.052+896.088+668.77C951.109+663.853+898.28+568.741+869.06+609.692" fill="#cbc3c3" stroke-linecap="butt" opacity="1" stroke-linejoin="round"/>
<path stroke="#000000" stroke-width="1" d="M869.06+652.836C869.649+655.086+868.776+658.252+870.394+659.878C895.784+640.969+924.605+694.897+894.676+697.759C895.147+702.477+895.617+707.195+896.088+711.913C951.109+706.997+898.28+611.885+869.06+652.836" fill="#cbc3c3" stroke-linecap="butt" opacity="1" stroke-linejoin="round"/>
<path stroke="#000000" stroke-width="1" d="M869.06+694.746C869.649+696.997+868.776+700.163+870.394+701.788C895.784+682.879+924.605+736.808+894.676+739.67C895.147+744.388+895.617+749.106+896.088+753.824C951.109+748.907+898.28+653.795+869.06+694.746" fill="#cbc3c3" stroke-linecap="butt" opacity="1" stroke-linejoin="round"/>
<path stroke="#000000" stroke-width="1" d="M869.06+732.959C869.649+735.209+868.776+738.375+870.394+740.001C895.784+721.092+924.605+775.02+894.676+777.882C895.147+782.6+895.617+787.318+896.088+792.036C951.109+787.12+898.28+692.008+869.06+732.959" fill="#cbc3c3" stroke-linecap="butt" opacity="1" stroke-linejoin="round"/>
<path stroke="#000000" stroke-width="1" d="M869.06+776.102C869.649+778.353+868.776+781.519+870.394+783.144C895.784+764.235+924.605+818.163+894.676+821.026C895.147+825.744+895.617+830.461+896.088+835.179C951.109+830.263+898.28+735.151+869.06+776.102" fill="#cbc3c3" stroke-linecap="butt" opacity="1" stroke-linejoin="round"/>
<path stroke="#000000" stroke-width="1" d="M869.06+819.245C869.649+821.496+868.776+824.662+870.394+826.287C895.784+807.378+924.605+861.306+894.676+864.169C895.147+868.887+895.617+873.605+896.088+878.323C951.109+873.406+898.28+778.294+869.06+819.245" fill="#cbc3c3" stroke-linecap="butt" opacity="1" stroke-linejoin="round"/>
<path stroke="#000000" stroke-width="1" d="M869.06+862.388C869.649+864.639+868.776+867.805+870.394+869.43C895.784+850.522+924.605+904.45+894.676+907.312C895.147+912.03+895.617+916.748+896.088+921.466C951.109+916.549+898.28+821.437+869.06+862.388" fill="#cbc3c3" stroke-linecap="butt" opacity="1" stroke-linejoin="round"/>
<path stroke="#000000" stroke-width="1" d="M869.06+904.299C869.649+906.55+868.776+909.716+870.394+911.341C895.784+892.432+924.605+946.36+894.676+949.223C895.147+953.94+895.617+958.658+896.088+963.376C951.109+958.46+898.28+863.348+869.06+904.299" fill="#cbc3c3" stroke-linecap="butt" opacity="1" stroke-linejoin="round"/>
<path stroke="#000000" stroke-width="1" d="M869.06+942.511C869.649+944.762+868.776+947.928+870.394+949.553C895.784+930.645+924.605+984.573+894.676+987.435C895.147+992.153+895.617+996.871+896.088+1001.59C951.109+996.672+898.28+901.56+869.06+942.511" fill="#cbc3c3" stroke-linecap="butt" opacity="1" stroke-linejoin="round"/>
<path stroke="#000000" stroke-width="1" d="M869.06+983.189C869.649+985.44+868.776+988.606+870.394+990.231C895.784+971.323+924.605+1025.25+894.676+1028.11C895.147+1032.83+895.617+1037.55+896.088+1042.27C951.109+1037.35+898.28+942.238+869.06+983.189" fill="#cbc3c3" stroke-linecap="butt" opacity="1" stroke-linejoin="round"/>
<path stroke="#000000" stroke-width="1" d="M869.06+1023.87C869.649+1026.12+868.776+1029.28+870.394+1030.91C895.784+1012+924.605+1065.93+894.676+1068.79C895.147+1073.51+895.617+1078.23+896.088+1082.94C951.109+1078.03+898.28+982.916+869.06+1023.87" fill="#cbc3c3" stroke-linecap="butt" opacity="1" stroke-linejoin="round"/>
<path stroke="#000000" stroke-width="1" d="M869.06+1069.48C869.649+1071.73+868.776+1074.89+870.394+1076.52C895.784+1057.61+924.605+1111.54+894.676+1114.4C895.147+1119.12+895.617+1123.84+896.088+1128.55C951.109+1123.64+898.28+1028.52+869.06+1069.48" fill="#cbc3c3" stroke-linecap="butt" opacity="1" stroke-linejoin="round"/>
<path stroke="#000000" stroke-width="1" d="M869.06+1108.92C869.649+1111.17+868.776+1114.34+870.394+1115.96C895.784+1097.05+924.605+1150.98+894.676+1153.84C895.147+1158.56+895.617+1163.28+896.088+1168C951.109+1163.08+898.28+1067.97+869.06+1108.92" fill="#cbc3c3" stroke-linecap="butt" opacity="1" stroke-linejoin="round"/>
<path stroke="#000000" stroke-width="1" d="M869.06+1149.6C869.649+1151.85+868.776+1155.02+870.394+1156.64C895.784+1137.73+924.605+1191.66+894.676+1194.52C895.147+1199.24+895.617+1203.96+896.088+1208.68C951.109+1203.76+898.28+1108.65+869.06+1149.6" fill="#cbc3c3" stroke-linecap="butt" opacity="1" stroke-linejoin="round"/>
<path stroke="#000000" stroke-width="1" d="M869.06+1191.51C869.649+1193.76+868.776+1196.93+870.394+1198.55C895.784+1179.64+924.605+1233.57+894.676+1236.43C895.147+1241.15+895.617+1245.87+896.088+1250.59C951.109+1245.67+898.28+1150.56+869.06+1191.51" fill="#cbc3c3" stroke-linecap="butt" opacity="1" stroke-linejoin="round"/>
<path stroke="#000000" stroke-width="1" d="M869.06+1229.72C869.649+1231.97+868.776+1235.14+870.394+1236.76C895.784+1217.86+924.605+1271.78+894.676+1274.65C895.147+1279.36+895.617+1284.08+896.088+1288.8C951.109+1283.88+898.28+1188.77+869.06+1229.72" fill="#cbc3c3" stroke-linecap="butt" opacity="1" stroke-linejoin="round"/>
<path stroke="#000000" stroke-width="1" d="M891.232+1275.37C891.788+1275.37+896.023+1275.1+894.053+1275.1" fill="#cbc3c3" stroke-linecap="butt" opacity="1" stroke-linejoin="round"/>
<path stroke="#000000" stroke-width="1" d="M870.308+1278.7C876.281+1268.65+905.762+1292.87+904.764+1264.25C891.031+1260.55+851.203+1262.88+870.308+1278.7" fill="#d0caca" stroke-linecap="butt" opacity="1" stroke-linejoin="round"/>
<path stroke="#000000" stroke-width="1" d="M112.665+12.1523C111.185+12.1523+109.994+13.4828+109.994+15.1243L109.994+1353.28C109.994+1354.93+111.185+1356.26+112.665+1356.26L913.941+1356.26C915.422+1356.26+916.612+1354.93+916.612+1353.28L916.612+15.1243C916.612+13.4827+915.422+12.1523+913.941+12.1523L112.665+12.1523ZM894.29+1307.56C894.592+1307.55+894.794+1307.55+894.912+1307.56C894.979+1307.56+894.974+1307.59+895.241+1307.73C895.373+1307.92+895.256+1308.04+895.278+1308.13C895.3+1308.14+895.372+1308.17+895.387+1308.18C895.352+1308.17+895.314+1308.25+895.278+1308.26C895.275+1308.29+895.288+1308.34+895.278+1308.38C895.442+1308.26+895.596+1308.07+895.79+1308.18C896.08+1308.34+896.191+1308.71+896.046+1309.03C895.891+1309.37+895.645+1309.49+895.351+1309.48C895.254+1309.47+895.331+1309.45+894.985+1309.4C894.692+1309.35+894.531+1309.39+894.363+1309.44C894.14+1309.5+893.933+1309.66+893.777+1310.01C893.633+1310.33+893.298+1310.45+893.009+1310.29C892.719+1310.13+892.608+1309.72+892.753+1309.4C892.94+1308.98+893.277+1308.87+893.558+1308.66C893.402+1308.55+893.192+1308.48+893.192+1308.26C893.192+1307.9+893.454+1307.61+893.777+1307.61C893.814+1307.6+894.214+1307.57+894.29+1307.56Z" fill="#ffffff" stroke-linecap="butt" opacity="1" stroke-linejoin="round"/>
<path stroke="#000000" stroke-width="1" d="M879.356+50.4959C879.356+44.4824+883.815+39.6075+889.315+39.6075C894.816+39.6075+899.275+44.4824+899.275+50.4959C899.275+56.5095+894.816+61.3844+889.315+61.3844C883.815+61.3844+879.356+56.5095+879.356+50.4959Z" fill="#000000" stroke-linecap="butt" fill-opacity="0.97638" opacity="1" stroke-linejoin="round"/>
<path stroke="#000000" stroke-width="1" d="M879.356+94.1655C879.356+88.152+883.815+83.2771+889.315+83.2771C894.816+83.2771+899.275+88.152+899.275+94.1655C899.275+100.179+894.816+105.054+889.315+105.054C883.815+105.054+879.356+100.179+879.356+94.1655Z" fill="#000000" stroke-linecap="butt" fill-opacity="0.97638" opacity="1" stroke-linejoin="round"/>
<path stroke="#000000" stroke-width="1" d="M879.356+137.58C879.356+131.567+883.815+126.692+889.315+126.692C894.816+126.692+899.275+131.567+899.275+137.58C899.275+143.594+894.816+148.469+889.315+148.469C883.815+148.469+879.356+143.594+879.356+137.58Z" fill="#000000" stroke-linecap="butt" fill-opacity="0.97638" opacity="1" stroke-linejoin="round"/>
<path stroke="#000000" stroke-width="1" d="M879.356+180.995C879.356+174.982+883.815+170.107+889.315+170.107C894.816+170.107+899.275+174.982+899.275+180.995C899.275+187.009+894.816+191.884+889.315+191.884C883.815+191.884+879.356+187.009+879.356+180.995Z" fill="#000000" stroke-linecap="butt" fill-opacity="0.97638" opacity="1" stroke-linejoin="round"/>
<path stroke="#000000" stroke-width="1" d="M877.412+219.519C877.412+213.505+881.872+208.63+887.372+208.63C892.873+208.63+897.332+213.505+897.332+219.519C897.332+225.532+892.873+230.407+887.372+230.407C881.872+230.407+877.412+225.532+877.412+219.519Z" fill="#000000" stroke-linecap="butt" fill-opacity="0.97638" opacity="1" stroke-linejoin="round"/>
<path stroke="#000000" stroke-width="1" d="M877.412+262.934C877.412+256.92+881.872+252.045+887.372+252.045C892.873+252.045+897.332+256.92+897.332+262.934C897.332+268.947+892.873+273.822+887.372+273.822C881.872+273.822+877.412+268.947+877.412+262.934Z" fill="#000000" stroke-linecap="butt" fill-opacity="0.97638" opacity="1" stroke-linejoin="round"/>
<path stroke="#000000" stroke-width="1" d="M877.412+306.348C877.412+300.335+881.872+295.46+887.372+295.46C892.873+295.46+897.332+300.335+897.332+306.348C897.332+312.362+892.873+317.237+887.372+317.237C881.872+317.237+877.412+312.362+877.412+306.348Z" fill="#000000" stroke-linecap="butt" fill-opacity="0.97638" opacity="1" stroke-linejoin="round"/>
<path stroke="#000000" stroke-width="1" d="M877.412+349.763C877.412+343.75+881.872+338.875+887.372+338.875C892.873+338.875+897.332+343.75+897.332+349.763C897.332+355.777+892.873+360.652+887.372+360.652C881.872+360.652+877.412+355.777+877.412+349.763Z" fill="#000000" stroke-linecap="butt" fill-opacity="0.97638" opacity="1" stroke-linejoin="round"/>
<path stroke="#000000" stroke-width="1" d="M877.412+740.497C877.412+734.483+881.872+729.608+887.372+729.608C892.873+729.608+897.332+734.483+897.332+740.497C897.332+746.51+892.873+751.385+887.372+751.385C881.872+751.385+877.412+746.51+877.412+740.497Z" fill="#000000" stroke-linecap="butt" fill-opacity="0.97638" opacity="1" stroke-linejoin="round"/>
<path stroke="#000000" stroke-width="1" d="M877.412+392.574C877.412+386.561+881.872+381.686+887.372+381.686C892.873+381.686+897.332+386.561+897.332+392.574C897.332+398.588+892.873+403.463+887.372+403.463C881.872+403.463+877.412+398.588+877.412+392.574Z" fill="#000000" stroke-linecap="butt" fill-opacity="0.97638" opacity="1" stroke-linejoin="round"/>
<path stroke="#000000" stroke-width="1" d="M877.412+435.989C877.412+429.975+881.872+425.1+887.372+425.1C892.873+425.1+897.332+429.975+897.332+435.989C897.332+442.002+892.873+446.877+887.372+446.877C881.872+446.877+877.412+442.002+877.412+435.989Z" fill="#000000" stroke-linecap="butt" fill-opacity="0.97638" opacity="1" stroke-linejoin="round"/>
<path stroke="#000000" stroke-width="1" d="M877.412+479.404C877.412+473.39+881.872+468.515+887.372+468.515C892.873+468.515+897.332+473.39+897.332+479.404C897.332+485.417+892.873+490.292+887.372+490.292C881.872+490.292+877.412+485.417+877.412+479.404Z" fill="#000000" stroke-linecap="butt" fill-opacity="0.97638" opacity="1" stroke-linejoin="round"/>
<path stroke="#000000" stroke-width="1" d="M877.412+522.819C877.412+516.805+881.872+511.93+887.372+511.93C892.873+511.93+897.332+516.805+897.332+522.819C897.332+528.832+892.873+533.707+887.372+533.707C881.872+533.707+877.412+528.832+877.412+522.819Z" fill="#000000" stroke-linecap="butt" fill-opacity="0.97638" opacity="1" stroke-linejoin="round"/>
<path stroke="#000000" stroke-width="1" d="M877.412+566.233C877.412+560.22+881.872+555.345+887.372+555.345C892.873+555.345+897.332+560.22+897.332+566.233C897.332+572.247+892.873+577.122+887.372+577.122C881.872+577.122+877.412+572.247+877.412+566.233Z" fill="#000000" stroke-linecap="butt" fill-opacity="0.97638" opacity="1" stroke-linejoin="round"/>
<path stroke="#000000" stroke-width="1" d="M877.412+609.648C877.412+603.635+881.872+598.76+887.372+598.76C892.873+598.76+897.332+603.635+897.332+609.648C897.332+615.662+892.873+620.537+887.372+620.537C881.872+620.537+877.412+615.662+877.412+609.648Z" fill="#000000" stroke-linecap="butt" fill-opacity="0.97638" opacity="1" stroke-linejoin="round"/>
<path stroke="#000000" stroke-width="1" d="M877.412+653.063C877.412+647.05+881.872+642.175+887.372+642.175C892.873+642.175+897.332+647.05+897.332+653.063C897.332+659.077+892.873+663.952+887.372+663.952C881.872+663.952+877.412+659.077+877.412+653.063Z" fill="#000000" stroke-linecap="butt" fill-opacity="0.97638" opacity="1" stroke-linejoin="round"/>
<path stroke="#000000" stroke-width="1" d="M877.412+696.478C877.412+690.464+881.872+685.589+887.372+685.589C892.873+685.589+897.332+690.464+897.332+696.478C897.332+702.491+892.873+707.366+887.372+707.366C881.872+707.366+877.412+702.491+877.412+696.478Z" fill="#000000" stroke-linecap="butt" fill-opacity="0.97638" opacity="1" stroke-linejoin="round"/>
<path stroke="#000000" stroke-width="1" d="M877.412+783.308C877.412+777.294+881.872+772.419+887.372+772.419C892.873+772.419+897.332+777.294+897.332+783.308C897.332+789.321+892.873+794.196+887.372+794.196C881.872+794.196+877.412+789.321+877.412+783.308Z" fill="#000000" stroke-linecap="butt" fill-opacity="0.97638" opacity="1" stroke-linejoin="round"/>
<path stroke="#000000" stroke-width="1" d="M880.076+832.538C880.076+826.525+884.535+821.65+890.035+821.65C895.536+821.65+899.995+826.525+899.995+832.538C899.995+838.552+895.536+843.427+890.035+843.427C884.535+843.427+880.076+838.552+880.076+832.538Z" fill="#000000" stroke-linecap="butt" fill-opacity="0.97638" opacity="1" stroke-linejoin="round"/>
<path stroke="#000000" stroke-width="1" d="M880.076+875.953C880.076+869.94+884.535+865.065+890.035+865.065C895.536+865.065+899.995+869.94+899.995+875.953C899.995+881.967+895.536+886.842+890.035+886.842C884.535+886.842+880.076+881.967+880.076+875.953Z" fill="#000000" stroke-linecap="butt" fill-opacity="0.97638" opacity="1" stroke-linejoin="round"/>
<path stroke="#000000" stroke-width="1" d="M880.076+919.368C880.076+913.354+884.535+908.479+890.035+908.479C895.536+908.479+899.995+913.354+899.995+919.368C899.995+925.381+895.536+930.256+890.035+930.256C884.535+930.256+880.076+925.381+880.076+919.368Z" fill="#000000" stroke-linecap="butt" fill-opacity="0.97638" opacity="1" stroke-linejoin="round"/>
<path stroke="#000000" stroke-width="1" d="M880.076+962.783C880.076+956.769+884.535+951.894+890.035+951.894C895.536+951.894+899.995+956.769+899.995+962.783C899.995+968.796+895.536+973.671+890.035+973.671C884.535+973.671+880.076+968.796+880.076+962.783Z" fill="#000000" stroke-linecap="butt" fill-opacity="0.97638" opacity="1" stroke-linejoin="round"/>
<path stroke="#000000" stroke-width="1" d="M879.356+1005.27C879.356+999.26+883.815+994.385+889.315+994.385C894.816+994.385+899.275+999.26+899.275+1005.27C899.275+1011.29+894.816+1016.16+889.315+1016.16C883.815+1016.16+879.356+1011.29+879.356+1005.27Z" fill="#ffffff" stroke-linecap="butt" opacity="1" stroke-linejoin="round"/>
<path stroke="#000000" stroke-width="1" d="M879.356+1048.69C879.356+1042.67+883.815+1037.8+889.315+1037.8C894.816+1037.8+899.275+1042.67+899.275+1048.69C899.275+1054.7+894.816+1059.58+889.315+1059.58C883.815+1059.58+879.356+1054.7+879.356+1048.69Z" fill="#ffffff" stroke-linecap="butt" opacity="1" stroke-linejoin="round"/>
<path stroke="#000000" stroke-width="1" d="M879.356+1092.1C879.356+1086.09+883.815+1081.21+889.315+1081.21C894.816+1081.21+899.275+1086.09+899.275+1092.1C899.275+1098.12+894.816+1102.99+889.315+1102.99C883.815+1102.99+879.356+1098.12+879.356+1092.1Z" fill="#ffffff" stroke-linecap="butt" opacity="1" stroke-linejoin="round"/>
<path stroke="#000000" stroke-width="1" d="M880.076+1005.39C880.076+999.372+884.535+994.497+890.035+994.497C895.536+994.497+899.995+999.372+899.995+1005.39C899.995+1011.4+895.536+1016.27+890.035+1016.27C884.535+1016.27+880.076+1011.4+880.076+1005.39Z" fill="#000000" stroke-linecap="butt" fill-opacity="0.97638" opacity="1" stroke-linejoin="round"/>
<path stroke="#000000" stroke-width="1" d="M880.076+1048.8C880.076+1042.79+884.535+1037.91+890.035+1037.91C895.536+1037.91+899.995+1042.79+899.995+1048.8C899.995+1054.81+895.536+1059.69+890.035+1059.69C884.535+1059.69+880.076+1054.81+880.076+1048.8Z" fill="#000000" stroke-linecap="butt" fill-opacity="0.97638" opacity="1" stroke-linejoin="round"/>
<path stroke="#000000" stroke-width="1" d="M880.076+1092.21C880.076+1086.2+884.535+1081.33+890.035+1081.33C895.536+1081.33+899.995+1086.2+899.995+1092.21C899.995+1098.23+895.536+1103.1+890.035+1103.1C884.535+1103.1+880.076+1098.23+880.076+1092.21Z" fill="#000000" stroke-linecap="butt" fill-opacity="0.97638" opacity="1" stroke-linejoin="round"/>
<path stroke="#000000" stroke-width="1" d="M880.076+1135.63C880.076+1129.62+884.535+1124.74+890.035+1124.74C895.536+1124.74+899.995+1129.62+899.995+1135.63C899.995+1141.64+895.536+1146.52+890.035+1146.52C884.535+1146.52+880.076+1141.64+880.076+1135.63Z" fill="#000000" stroke-linecap="butt" fill-opacity="0.97638" opacity="1" stroke-linejoin="round"/>
<path stroke="#000000" stroke-width="1" d="M879.356+1178.12C879.356+1172.11+883.815+1167.23+889.315+1167.23C894.816+1167.23+899.275+1172.11+899.275+1178.12C899.275+1184.13+894.816+1189.01+889.315+1189.01C883.815+1189.01+879.356+1184.13+879.356+1178.12Z" fill="#000000" stroke-linecap="butt" fill-opacity="0.97638" opacity="1" stroke-linejoin="round"/>
<path stroke="#000000" stroke-width="1" d="M879.356+1221.53C879.356+1215.52+883.815+1210.65+889.315+1210.65C894.816+1210.65+899.275+1215.52+899.275+1221.53C899.275+1227.55+894.816+1232.42+889.315+1232.42C883.815+1232.42+879.356+1227.55+879.356+1221.53Z" fill="#000000" stroke-linecap="butt" fill-opacity="0.97638" opacity="1" stroke-linejoin="round"/>
<path stroke="#000000" stroke-width="1" d="M879.356+1264.95C879.356+1258.94+883.815+1254.06+889.315+1254.06C894.816+1254.06+899.275+1258.94+899.275+1264.95C899.275+1270.96+894.816+1275.84+889.315+1275.84C883.815+1275.84+879.356+1270.96+879.356+1264.95Z" fill="#000000" stroke-linecap="butt" fill-opacity="0.97638" opacity="1" stroke-linejoin="round"/>
<path stroke="#000000" stroke-width="1" d="M889.313+1297.47C883.812+1297.47+879.359+1302.37+879.359+1308.38C879.359+1314.39+883.812+1319.25+889.313+1319.25C894.814+1319.25+899.267+1314.39+899.267+1308.38C899.266+1302.37+894.813+1297.47+889.313+1297.47ZM894.29+1307.56C894.592+1307.55+894.794+1307.55+894.912+1307.56C894.979+1307.56+894.974+1307.59+895.241+1307.73C895.373+1307.92+895.256+1308.04+895.278+1308.13C895.3+1308.14+895.372+1308.17+895.387+1308.18C895.352+1308.17+895.314+1308.25+895.278+1308.26C895.275+1308.29+895.288+1308.34+895.278+1308.38C895.442+1308.26+895.596+1308.07+895.79+1308.18C896.08+1308.34+896.191+1308.71+896.046+1309.03C895.891+1309.37+895.645+1309.49+895.351+1309.48C895.254+1309.47+895.331+1309.45+894.985+1309.4C894.692+1309.35+894.531+1309.39+894.363+1309.44C894.14+1309.5+893.933+1309.66+893.777+1310.01C893.633+1310.33+893.298+1310.45+893.009+1310.29C892.719+1310.13+892.608+1309.72+892.753+1309.4C892.94+1308.98+893.277+1308.87+893.558+1308.66C893.402+1308.55+893.192+1308.48+893.192+1308.26C893.192+1307.9+893.454+1307.61+893.777+1307.61C893.814+1307.6+894.214+1307.57+894.29+1307.56Z" fill="#000000" stroke-linecap="butt" fill-opacity="0.97638" opacity="1" stroke-linejoin="round"/>
<path stroke="#000000" stroke-width="1" d="M888.56+49.1664C889.183+51.5452+888.26+54.8914+889.971+56.609C916.805+36.6248+947.265+93.6204+915.633+96.6456C916.131+101.632+916.629+106.618+917.126+111.604C975.277+106.408+919.443+5.88603+888.56+49.1664" fill="#cbc3c3" stroke-linecap="butt" opacity="1" stroke-linejoin="round"/>
<path stroke="#000000" stroke-width="1" d="M888.56+93.4609C889.183+95.8398+888.26+99.1859+889.971+100.904C916.805+80.9193+947.265+137.915+915.633+140.94C916.131+145.926+916.629+150.913+917.126+155.899C975.277+150.703+919.443+50.1806+888.56+93.4609" fill="#cbc3c3" stroke-linecap="butt" opacity="1" stroke-linejoin="round"/>
<path stroke="#000000" stroke-width="1" d="M888.56+137.755C889.183+140.134+888.26+143.48+889.971+145.198C916.805+125.214+947.265+182.21+915.633+185.235C916.131+190.221+916.629+195.207+917.126+200.194C975.277+194.998+919.443+94.4751+888.56+137.755" fill="#cbc3c3" stroke-linecap="butt" opacity="1" stroke-linejoin="round"/>
<path stroke="#000000" stroke-width="1" d="M888.56+180.747C889.183+183.126+888.26+186.472+889.971+188.19C916.805+168.206+947.265+225.201+915.633+228.227C916.131+233.213+916.629+238.199+917.126+243.185C975.277+237.989+919.443+137.467+888.56+180.747" fill="#cbc3c3" stroke-linecap="butt" opacity="1" stroke-linejoin="round"/>
<path stroke="#000000" stroke-width="1" d="M888.56+218.528C889.183+220.907+888.26+224.253+889.971+225.97C916.805+205.986+947.265+262.982+915.633+266.007C916.131+270.993+916.629+275.98+917.126+280.966C975.277+275.77+919.443+175.248+888.56+218.528" fill="#cbc3c3" stroke-linecap="butt" opacity="1" stroke-linejoin="round"/>
<path stroke="#000000" stroke-width="1" d="M888.56+258.914C889.183+261.293+888.26+264.639+889.971+266.357C916.805+246.373+947.265+303.368+915.633+306.393C916.131+311.38+916.629+316.366+917.126+321.352C975.277+316.156+919.443+215.634+888.56+258.914" fill="#cbc3c3" stroke-linecap="butt" opacity="1" stroke-linejoin="round"/>
<path stroke="#000000" stroke-width="1" d="M888.56+304.511C889.183+306.89+888.26+310.236+889.971+311.954C916.805+291.97+947.265+348.965+915.633+351.991C916.131+356.977+916.629+361.963+917.126+366.95C975.277+361.753+919.443+261.231+888.56+304.511" fill="#cbc3c3" stroke-linecap="butt" opacity="1" stroke-linejoin="round"/>
<path stroke="#000000" stroke-width="1" d="M888.56+347.503C889.183+349.882+888.26+353.228+889.971+354.946C916.805+334.962+947.265+391.957+915.633+394.982C916.131+399.969+916.629+404.955+917.126+409.941C975.277+404.745+919.443+304.223+888.56+347.503" fill="#cbc3c3" stroke-linecap="butt" opacity="1" stroke-linejoin="round"/>
<path stroke="#000000" stroke-width="1" d="M888.56+386.587C889.183+388.966+888.26+392.312+889.971+394.029C916.805+374.045+947.265+431.041+915.633+434.066C916.131+439.052+916.629+444.038+917.126+449.025C975.277+443.829+919.443+343.306+888.56+386.587" fill="#cbc3c3" stroke-linecap="butt" opacity="1" stroke-linejoin="round"/>
<path stroke="#000000" stroke-width="1" d="M888.56+429.578C889.183+431.957+888.26+435.303+889.971+437.021C916.805+417.037+947.265+474.032+915.633+477.058C916.131+482.044+916.629+487.03+917.126+492.017C975.277+486.82+919.443+386.298+888.56+429.578" fill="#cbc3c3" stroke-linecap="butt" opacity="1" stroke-linejoin="round"/>
<path stroke="#000000" stroke-width="1" d="M888.56+476.479C889.183+478.857+888.26+482.204+889.971+483.921C916.805+463.937+947.265+520.933+915.633+523.958C916.131+528.944+916.629+533.93+917.126+538.917C975.277+533.721+919.443+433.198+888.56+476.479" fill="#cbc3c3" stroke-linecap="butt" opacity="1" stroke-linejoin="round"/>
<path stroke="#000000" stroke-width="1" d="M888.56+518.168C889.183+520.546+888.26+523.893+889.971+525.61C916.805+505.626+947.265+562.622+915.633+565.647C916.131+570.633+916.629+575.619+917.126+580.606C975.277+575.41+919.443+474.887+888.56+518.168" fill="#cbc3c3" stroke-linecap="butt" opacity="1" stroke-linejoin="round"/>
<path stroke="#000000" stroke-width="1" d="M888.56+563.765C889.183+566.144+888.26+569.49+889.971+571.207C916.805+551.223+947.265+608.219+915.633+611.244C916.131+616.23+916.629+621.217+917.126+626.203C975.277+621.007+919.443+520.484+888.56+563.765" fill="#cbc3c3" stroke-linecap="butt" opacity="1" stroke-linejoin="round"/>
<path stroke="#000000" stroke-width="1" d="M888.56+605.454C889.183+607.833+888.26+611.179+889.971+612.896C916.805+592.912+947.265+649.908+915.633+652.933C916.131+657.919+916.629+662.906+917.126+667.892C975.277+662.696+919.443+562.173+888.56+605.454" fill="#cbc3c3" stroke-linecap="butt" opacity="1" stroke-linejoin="round"/>
<path stroke="#000000" stroke-width="1" d="M888.56+651.051C889.183+653.43+888.26+656.776+889.971+658.494C916.805+638.51+947.265+695.505+915.633+698.53C916.131+703.517+916.629+708.503+917.126+713.489C975.277+708.293+919.443+607.771+888.56+651.051" fill="#cbc3c3" stroke-linecap="butt" opacity="1" stroke-linejoin="round"/>
<path stroke="#000000" stroke-width="1" d="M888.56+695.346C889.183+697.725+888.26+701.071+889.971+702.788C916.805+682.804+947.265+739.8+915.633+742.825C916.131+747.811+916.629+752.798+917.126+757.784C975.277+752.588+919.443+652.065+888.56+695.346" fill="#cbc3c3" stroke-linecap="butt" opacity="1" stroke-linejoin="round"/>
<path stroke="#000000" stroke-width="1" d="M888.56+735.732C889.183+738.111+888.26+741.457+889.971+743.175C916.805+723.19+947.265+780.186+915.633+783.211C916.131+788.197+916.629+793.184+917.126+798.17C975.277+792.974+919.443+692.452+888.56+735.732" fill="#cbc3c3" stroke-linecap="butt" opacity="1" stroke-linejoin="round"/>
<path stroke="#000000" stroke-width="1" d="M888.56+781.329C889.183+783.708+888.26+787.054+889.971+788.772C916.805+768.788+947.265+825.783+915.633+828.809C916.131+833.795+916.629+838.781+917.126+843.767C975.277+838.571+919.443+738.049+888.56+781.329" fill="#cbc3c3" stroke-linecap="butt" opacity="1" stroke-linejoin="round"/>
<path stroke="#000000" stroke-width="1" d="M888.56+826.927C889.183+829.305+888.26+832.652+889.971+834.369C916.805+814.385+947.265+871.381+915.633+874.406C916.131+879.392+916.629+884.378+917.126+889.365C975.277+884.169+919.443+783.646+888.56+826.927" fill="#cbc3c3" stroke-linecap="butt" opacity="1" stroke-linejoin="round"/>
<path stroke="#000000" stroke-width="1" d="M888.56+872.524C889.183+874.903+888.26+878.249+889.971+879.967C916.805+859.982+947.265+916.978+915.633+920.003C916.131+924.989+916.629+929.976+917.126+934.962C975.277+929.766+919.443+829.244+888.56+872.524" fill="#cbc3c3" stroke-linecap="butt" opacity="1" stroke-linejoin="round"/>
<path stroke="#000000" stroke-width="1" d="M888.56+916.818C889.183+919.197+888.26+922.543+889.971+924.261C916.805+904.277+947.265+961.273+915.633+964.298C916.131+969.284+916.629+974.27+917.126+979.257C975.277+974.061+919.443+873.538+888.56+916.818" fill="#cbc3c3" stroke-linecap="butt" opacity="1" stroke-linejoin="round"/>
<path stroke="#000000" stroke-width="1" d="M888.56+957.205C889.183+959.584+888.26+962.93+889.971+964.647C916.805+944.663+947.265+1001.66+915.633+1004.68C916.131+1009.67+916.629+1014.66+917.126+1019.64C975.277+1014.45+919.443+913.924+888.56+957.205" fill="#cbc3c3" stroke-linecap="butt" opacity="1" stroke-linejoin="round"/>
<path stroke="#000000" stroke-width="1" d="M888.56+1000.2C889.183+1002.58+888.26+1005.92+889.971+1007.64C916.805+987.655+947.265+1044.65+915.633+1047.68C916.131+1052.66+916.629+1057.65+917.126+1062.63C975.277+1057.44+919.443+956.916+888.56+1000.2" fill="#cbc3c3" stroke-linecap="butt" opacity="1" stroke-linejoin="round"/>
<path stroke="#000000" stroke-width="1" d="M888.56+1043.19C889.183+1045.57+888.26+1048.91+889.971+1050.63C916.805+1030.65+947.265+1087.64+915.633+1090.67C916.131+1095.65+916.629+1100.64+917.126+1105.63C975.277+1100.43+919.443+999.908+888.56+1043.19" fill="#cbc3c3" stroke-linecap="butt" opacity="1" stroke-linejoin="round"/>
<path stroke="#000000" stroke-width="1" d="M888.56+1091.39C889.183+1093.77+888.26+1097.12+889.971+1098.83C916.805+1078.85+947.265+1135.85+915.633+1138.87C916.131+1143.86+916.629+1148.84+917.126+1153.83C975.277+1148.63+919.443+1048.11+888.56+1091.39" fill="#cbc3c3" stroke-linecap="butt" opacity="1" stroke-linejoin="round"/>
<path stroke="#000000" stroke-width="1" d="M888.56+1133.08C889.183+1135.46+888.26+1138.81+889.971+1140.52C916.805+1120.54+947.265+1177.53+915.633+1180.56C916.131+1185.55+916.629+1190.53+917.126+1195.52C975.277+1190.32+919.443+1089.8+888.56+1133.08" fill="#cbc3c3" stroke-linecap="butt" opacity="1" stroke-linejoin="round"/>
<path stroke="#000000" stroke-width="1" d="M888.56+1176.07C889.183+1178.45+888.26+1181.8+889.971+1183.51C916.805+1163.53+947.265+1220.53+915.633+1223.55C916.131+1228.54+916.629+1233.52+917.126+1238.51C975.277+1233.31+919.443+1132.79+888.56+1176.07" fill="#cbc3c3" stroke-linecap="butt" opacity="1" stroke-linejoin="round"/>
<path stroke="#000000" stroke-width="1" d="M888.56+1220.37C889.183+1222.75+888.26+1226.09+889.971+1227.81C916.805+1207.82+947.265+1264.82+915.633+1267.85C916.131+1272.83+916.629+1277.82+917.126+1282.8C975.277+1277.61+919.443+1177.09+888.56+1220.37" fill="#cbc3c3" stroke-linecap="butt" opacity="1" stroke-linejoin="round"/>
<path stroke="#000000" stroke-width="1" d="M888.56+1260.75C889.183+1263.13+888.26+1266.48+889.971+1268.2C916.805+1248.21+947.265+1305.21+915.633+1308.23C916.131+1313.22+916.629+1318.2+917.126+1323.19C975.277+1317.99+919.443+1217.47+888.56+1260.75" fill="#cbc3c3" stroke-linecap="butt" opacity="1" stroke-linejoin="round"/>
<path stroke="#000000" stroke-width="1" d="M911.994+1309C912.582+1309+917.057+1308.71+914.976+1308.71" fill="#cbc3c3" stroke-linecap="butt" opacity="1" stroke-linejoin="round"/>
<path stroke="#000000" stroke-width="1" d="M889.88+1312.52C896.192+1301.89+927.351+1327.5+926.296+1297.24C911.781+1293.33+869.688+1295.79+889.88+1312.52" fill="#d0caca" stroke-linecap="butt" opacity="1" stroke-linejoin="round"/>
</g>
</svg>
