<?xml version="1.0" encoding="UTF-8" standalone="no"?> <!-- Created with Vectornator for iOS (http://vectornator.io/) --><!DOCTYPE svg PUBLIC "-//W3C//DTD SVG 1.1//EN" "http://www.w3.org/Graphics/SVG/1.1/DTD/svg11.dtd">
<svg style="fill-rule:evenodd;clip-rule:evenodd;stroke-linecap:round;stroke-linejoin:round;" xmlns:vectornator="http://vectornator.io" xmlns:xlink="http://www.w3.org/1999/xlink" xmlns="http://www.w3.org/2000/svg" xml:space="preserve" version="1.1" viewBox="0 0 205 290">
<metadata>
<vectornator:setting key="DimensionsVisible" value="1"/>
<vectornator:setting key="SnapToGrid" value="0"/>
<vectornator:setting key="SnapToPoints" value="0"/>
<vectornator:setting key="GuidesVisible" value="1"/>
<vectornator:setting key="RulersVisible" value="1"/>
<vectornator:setting key="SnapToEdges" value="0"/>
<vectornator:setting key="DisplayWhiteBackground" value="1"/>
<vectornator:setting key="SnapToGuides" value="1"/>
<vectornator:setting key="GridSpacing" value="36"/>
<vectornator:setting key="Units" value="Pixels"/>
<vectornator:setting key="DynamicGuides" value="0"/>
<vectornator:setting key="New" value="1"/>
</metadata>
<defs/>
<g id="レイヤー 1" vectornator:layerName="レイヤー 1">
<path stroke="#000000" stroke-width="0.61" d="M65.746+271.353C65.3478+272.104+65.1266+275.186+66.576+274.574C67.945+273.996+67.2801+271.976+66.5925+271.23C66.5299+271.162+65.9641+270.074+65.765+270.249C65.6808+270.323+65.7636+270.473+65.7617+270.586C65.7558+270.948+66.141+273.751+66.1961+273.772C66.3714+273.839+66.2063+273.397+66.214+273.21C66.219+273.087+66.217+271.455+66.297+271.446C66.49+271.427+66.5925+272.899+66.5909+273.06C66.5907+273.079+66.5066+273.652+66.501+273.648C66.2015+273.454+66.449+271.725+66.5969+271.827C66.9941+272.099+66.9005+273.691+66.592+273.994C66.564+274.021+66.5215+274.056+66.4848+274.042C66.2422+273.95+66.2016+272.164+66.4551+272.271C66.7853+272.41+66.7378+273.914+66.311+273.985C65.937+274.046+65.7286+272.635+66.2707+272.663C66.7854+272.69+65.7878+274.054+65.56+273.575C65.2708+272.967+66.1092+272.866+65.8356+273.715C65.8073+273.803+65.8466+274.033+65.7693+273.983C65.4914+273.804+65.9399+273.304+66.144+273.441C66.2834+273.535+66.137+274.248+66.0803+274.288C66.0496+274.31+66.0039+274.336+65.9712+274.318C65.8743+274.262+66.0503+273.992+66.0503+273.992C66.0503+273.992+65.9201+273.936+65.9079+273.876" fill="none" stroke-linecap="round" opacity="1" stroke-linejoin="round"/>
</g>
</svg>
