<?xml version="1.0" encoding="UTF-8" standalone="no"?> <!-- Created with Vectornator for iOS (http://vectornator.io/) --><!DOCTYPE svg PUBLIC "-//W3C//DTD SVG 1.1//EN" "http://www.w3.org/Graphics/SVG/1.1/DTD/svg11.dtd">
<svg style="fill-rule:evenodd;clip-rule:evenodd;stroke-linecap:round;stroke-linejoin:round;" xmlns:vectornator="http://vectornator.io" xmlns:xlink="http://www.w3.org/1999/xlink" xmlns="http://www.w3.org/2000/svg" xml:space="preserve" version="1.1" viewBox="0 0 205 290">
<metadata>
<vectornator:setting key="DimensionsVisible" value="1"/>
<vectornator:setting key="SnapToGrid" value="0"/>
<vectornator:setting key="SnapToPoints" value="0"/>
<vectornator:setting key="GuidesVisible" value="1"/>
<vectornator:setting key="RulersVisible" value="1"/>
<vectornator:setting key="SnapToEdges" value="0"/>
<vectornator:setting key="DisplayWhiteBackground" value="1"/>
<vectornator:setting key="SnapToGuides" value="1"/>
<vectornator:setting key="GridSpacing" value="36"/>
<vectornator:setting key="Units" value="Pixels"/>
<vectornator:setting key="DynamicGuides" value="0"/>
<vectornator:setting key="New" value="1"/>
</metadata>
<defs/>
<g id="レイヤー 1" vectornator:layerName="レイヤー 1">
<path stroke="#000000" stroke-width="0.61" d="M65.746+271.353C65.3478+272.104+65.1266+275.186+66.576+274.574C67.945+273.996+67.2801+271.976+66.5925+271.23C66.5299+271.162+65.9641+270.074+65.765+270.249C65.6808+270.323+65.7636+270.473+65.7617+270.586C65.7558+270.948+66.141+273.751+66.1961+273.772C66.3714+273.839+66.2063+273.397+66.214+273.21C66.219+273.087+66.217+271.455+66.297+271.446C66.49+271.427+66.5925+272.899+66.5909+273.06C66.5907+273.079+66.5066+273.652+66.501+273.648C66.2015+273.454+66.449+271.725+66.5969+271.827C66.9941+272.099+66.9005+273.691+66.592+273.994C66.564+274.021+66.5215+274.056+66.4848+274.042C66.2422+273.95+66.2016+272.164+66.4551+272.271C66.7853+272.41+66.7378+273.914+66.311+273.985C65.937+274.046+65.7286+272.635+66.2707+272.663C66.7854+272.69+65.7878+274.054+65.56+273.575C65.2708+272.967+66.1092+272.866+65.8356+273.715C65.8073+273.803+65.8466+274.033+65.7693+273.983C65.4914+273.804+65.9399+273.304+66.144+273.441C66.2834+273.535+66.137+274.248+66.0803+274.288C66.0496+274.31+66.0039+274.336+65.9712+274.318C65.8743+274.262+66.0503+273.992+66.0503+273.992C66.0503+273.992+65.9201+273.936+65.9079+273.876" fill="none" stroke-linecap="round" opacity="1" stroke-linejoin="round"/>
<path stroke="#000000" stroke-width="0.61" d="M65.6222+270.529C65.8843+272.352+64.1551+274.554+64.9056+276.328C65.6536+278.097+68.6131+279.292+69.0426+276.683C69.4847+273.996+67.4044+272.257+65.9519+270.566" fill="none" stroke-linecap="round" opacity="1" stroke-linejoin="round"/>
<path stroke="#000000" stroke-width="0.61" d="M65.3302+275.101C65.3808+275.454+65.3514+275.413+65.6168+275.841C65.7107+275.993+65.8152+275.53+65.835+275.353C65.8572+275.156+65.8012+274.183+65.6572+274.033C65.476+273.843+65.4766+274.54+65.4914+274.802C65.5093+275.118+65.4996+276.194+65.8948+276.354C66.0419+276.414+65.9452+276.038+65.9348+275.88C65.9065+275.453+65.8646+275.225+65.8026+274.793C65.7637+274.522+65.7247+274.252+65.6858+273.981C65.679+273.934+65.7086+273.819+65.6655+273.839C65.1507+274.078+65.3152+275.09+65.3625+275.493C65.3777+275.623+65.3997+275.752+65.4183+275.882C65.4251+275.929+65.4454+276.07+65.4386+276.023C65.3667+275.523+65.5939+274.595+65.3512+274.161C65.2073+273.904+65.2814+274.751+65.3099+275.044C65.338+275.333+65.309+276.465+65.6343+276.632C66.2597+276.952+65.6963+275.039+65.6481+275.14C65.402+275.656+66.4052+277.906+66.6758+276.855" fill="none" stroke-linecap="round" opacity="1" stroke-linejoin="round"/>
<path stroke="#000000" stroke-width="0.61" d="M66.1709+274.68C66.1356+275.457+66.446+276.147+66.7246+276.86C66.793+277.035+66.8576+277.509+66.9774+277.364C67.0721+277.249+66.6262+275.423+66.58+275.102C66.5738+275.059+66.5183+274.979+66.5614+274.972C66.5879+274.969+67.2579+276.847+67.3068+277.064C67.3365+277.196+67.4417+277.558+67.3408+277.468C66.9277+277.101+66.126+274.996+66.6098+274.557C67.4139+273.828+68.7209+276.943+68.1008+276.986C67.4728+277.031+66.3774+275.327+66.8861+274.974C67.511+274.54+68.8773+275.79+68.1641+276.256C67.3458+276.792+66.535+274.467+66.9427+274.281C67.6035+273.979+67.7034+274.179+67.9305+274.716C68.0307+274.952+68.1488+275.605+67.9211+275.486C67.5362+275.285+66.8964+273.274+67.5306+273.271C68.1353+273.267+68.3338+274.929+67.7842+274.785C67.3503+274.67+67.0801+272.955+67.4666+273.244C67.8116+273.502+68.6744+275.366+67.9312+275.473C67.7617+275.497+67.5328+274.506+67.6275+274.447C67.8743+274.292+68.4826+275.994+67.979+276.223C67.5379+276.423+67.0671+274.571+67.8784+274.687C68.5235+274.779+68.497+276.487+68.0381+276.467C67.6866+276.451+67.5215+274.565+68.1964+274.809C68.7152+274.997+68.4826+276.334+68.1677+276.616C68.1351+276.645+68.0691+276.679+68.0399+276.647C67.8888+276.478+67.8583+275.968+67.8356+275.811C67.8114+275.642+67.7594+275.475+67.7628+275.304C67.7936+273.776+69.3208+275.626+68.5796+276.305C68.1566+276.692+67.6937+274.527+68.2583+274.404C68.4221+274.368+68.4805+275.41+68.4897+275.512C68.5016+275.645+68.5637+276.01+68.475+275.911C68.3509+275.773+68.3287+275.395+68.3078+275.25C68.2858+275.097+68.1691+274.666+68.2654+274.788C68.5213+275.11+68.3441+276.968+68.0504+277.138C67.8996+277.225+67.9249+276.545+68.0836+276.616C68.2197+276.678+68.2387+277.431+67.9514+277.368C67.4111+277.25+67.8925+276.384+68.3459+276.434C68.7199+276.476+68.3721+277.249+68.1246+277.235C67.8485+277.22+68.3417+276.606+68.5311+276.636C68.5905+276.645+68.6348+276.946+68.5903+276.964C68.5604+276.976+68.5104+276.677+68.5497+276.682C68.7831+276.705+68.4704+277.657+68.1652+277.518C68.0203+277.452+68.0277+277.147+68.01+277.023C68.0038+276.98+67.9686+276.857+67.9914+276.894C68.1552+277.163+68.0767+277.763+67.6235+277.512C67.024+277.179+67.8258+276.774+67.7276+277.316C67.7247+277.333+67.5751+277.642+67.5462+277.643C67.4392+277.646+67.3724+277.209+67.354+277.142C67.3404+277.092+67.3365+276.941+67.3202+276.99C67.2552+277.186+67.2002+277.699+67.3847+277.606C67.4773+277.56+67.3383+276.798+67.2545+276.868C66.9758+277.1+67.3203+277.741+67.3662+277.645C67.7135+276.917+66.9761+277.47+66.7772+277.393C66.6897+277.359+66.0524+276.691+65.9659+276.849C65.8016+277.149+66.7302+277.484+66.7082+277.331C66.6925+277.222+66.1189+277.007+66.1124+277.032C66.0069+277.435+66.9188+277.85+67.235+277.652C67.7044+277.357+66.5459+277.152+66.8816+277.534C67.0366+277.711+68.0442+277.666+68.044+277.427" fill="none" stroke-linecap="round" opacity="1" stroke-linejoin="round"/>
</g>
</svg>
